<svg xmlns="http://www.w3.org/2000/svg" viewBox="0 0 24 24" id="Audio-Book-Headphones--Streamline-Freehand">
  <desc>
    Audio Book Headphones Streamline Icon: https://streamlinehq.com
  </desc>
  <g>
    <path d="M5 9.07a8.25 8.25 0 0 0 0 1.12 12.23 12.23 0 0 0 0.13 1.59 1.69 1.69 0 0 0 0.4 0.79 1.52 1.52 0 0 0 0.39 0.29l0.5 0.22 0.73 0.42a0.22 0.22 0 0 0 0.11 0 1.54 1.54 0 0 0 2.83 -0.22 2.71 2.71 0 0 0 0.13 -0.86c0 -0.56 -0.12 -1.15 -0.15 -1.69C10 9.91 10 9 9.93 8.14A6.56 6.56 0 0 0 9.69 7a1.33 1.33 0 0 0 -0.83 -0.85 1.28 1.28 0 0 0 -1.15 0.16 1.14 1.14 0 0 0 -0.15 0.17 11.09 11.09 0 0 1 0.59 -2.38 4.07 4.07 0 0 1 1.17 -1.65 4 4 0 0 1 3.55 -0.76 5.08 5.08 0 0 1 3.2 2.05 3.44 3.44 0 0 1 0.4 1c0.09 0.42 0.15 0.85 0.21 1.27a1.49 1.49 0 0 0 -0.68 -0.4c-1.65 -0.36 -1.56 1.95 -1.57 2l0 2.17v2c0 0.28 -0.07 0.78 0 1.18a1.7 1.7 0 0 0 0.21 0.73 1.49 1.49 0 0 0 1.69 0.6 1.8 1.8 0 0 0 1.25 -1.18 3 3 0 0 0 0.08 -0.41 9.8 9.8 0 0 0 1.05 -0.73 2.52 2.52 0 0 0 0.57 -0.65 1.29 1.29 0 0 0 0.15 -0.62c0 -0.32 -0.07 -0.7 -0.08 -0.93l-0.06 -0.84a6.27 6.27 0 0 0 -0.09 -0.71 1.84 1.84 0 0 0 -0.2 -0.57 0.74 0.74 0 0 0 -0.26 -0.27c-0.12 -0.07 -0.28 -0.12 -0.39 -0.18 -0.94 -0.38 -0.76 -0.23 -0.84 -0.71s-0.08 -1.23 -0.18 -1.85a4.09 4.09 0 0 0 -0.43 -1.29A5.85 5.85 0 0 0 13.11 0.64a4.92 4.92 0 0 0 -4.47 1.07 5.16 5.16 0 0 0 -1.27 2.11 15.52 15.52 0 0 0 -0.51 3.37 6.18 6.18 0 0 0 -0.9 0.43 2.27 2.27 0 0 0 -0.64 0.58 1.86 1.86 0 0 0 -0.32 0.87Zm11.41 3.68a0.7 0.7 0 0 1 -0.5 0.46 0.46 0.46 0 0 1 -0.52 -0.15 0.82 0.82 0 0 1 -0.07 -0.37l0 -1 -0.15 -1.93c0 -0.61 -0.09 -1.22 -0.12 -1.84s-0.25 -1.92 0.73 -1.63a0.79 0.79 0 0 1 0.5 0.43 1.06 1.06 0 0 1 0.09 0.36c0 0.24 0.05 0.48 0.07 0.7s0 0.65 0 1l0 2.33c0 0.36 0.05 0.73 0 1.09a1.93 1.93 0 0 1 -0.02 0.55Zm1.65 -4.68 0 0.89 0 0.84 0.14 1a1.87 1.87 0 0 1 -0.45 0.63l-0.29 0.26c0 -0.22 0 -0.45 -0.05 -0.67 -0.06 -0.78 -0.07 -1.56 -0.13 -2.33a8.83 8.83 0 0 0 -0.11 -1l0 -0.2 0.58 0.36c0.13 0.05 0.25 0.23 0.32 0.22ZM8.1 6.86a0.52 0.52 0 0 1 0.5 0 0.51 0.51 0 0 1 0.31 0.36 5.81 5.81 0 0 1 0.15 1l0 2.58c0 0.44 0.1 0.93 0.12 1.41a2.66 2.66 0 0 1 -0.08 0.75 0.51 0.51 0 0 1 -0.94 0 3.88 3.88 0 0 1 -0.16 -0.7c-0.07 -0.64 0 -1.33 -0.1 -1.94s-0.19 -1.14 -0.25 -1.72a2 2 0 0 1 0.27 -1.54 0.49 0.49 0 0 1 0.18 -0.2Zm-2 1.83a1.78 1.78 0 0 1 0.48 -0.52c0.14 -0.11 0.29 -0.2 0.43 -0.29l0 0.46c0 0.67 0.07 1.36 0.09 2s-0.1 1.34 -0.1 2l0 0.27 -0.25 -0.19c-0.15 -0.09 -0.3 -0.17 -0.44 -0.27L6.22 12a1 1 0 0 1 -0.12 -0.58l0 -1.3c0 -0.3 -0.06 -0.64 -0.05 -1a1 1 0 0 1 0.08 -0.43Z" fill="#000000" fill-rule="evenodd" stroke-width="1"></path>
    <path d="m19.23 6.51 0.35 -0.11 0.31 -0.08 0.92 -0.08 0.23 0a2.71 2.71 0 0 1 0.14 0.79c0.06 0.89 -0.11 1.92 -0.13 2.65 0 0.52 0 1 0.07 1.58 0.09 1.21 0.28 2.41 0.34 3.62l0 1.2 -2.77 0.44a17.37 17.37 0 0 0 -1.91 0.5c-0.62 0.2 -1.22 0.46 -1.81 0.7a10.15 10.15 0 0 0 -1.9 1.12 3.42 3.42 0 0 0 -0.49 0.44l0 -0.69c0 -0.93 0.12 -1.86 0.17 -2.78s0 -1.58 -0.06 -2.36c-0.09 -1.18 -0.27 -2.34 -0.39 -3.51a0.29 0.29 0 0 0 -0.57 0c0 1.18 -0.09 2.35 -0.09 3.52 0 0.78 0.05 1.56 0.05 2.33s0 1.59 0.1 2.39c0 0.55 0.07 1.09 0.15 1.62a1.58 1.58 0 0 0 0.18 0.53 0.3 0.3 0 0 0 0.4 -0.08 3.25 3.25 0 0 1 1 -0.82 9.65 9.65 0 0 1 1.86 -0.77L19 17.4l2.72 -0.74s0.45 -0.36 0.46 -0.51q0.09 -1 0.09 -2l0 -2.75 0 -1.79a21.15 21.15 0 0 0 0 -2.74 3.06 3.06 0 0 0 -0.46 -1.26 0.43 0.43 0 0 0 -0.39 -0.19 4.13 4.13 0 0 0 -0.52 0.07l-1 0.2 -0.35 0.12L19 6a0.29 0.29 0 0 0 -0.15 0.37 0.28 0.28 0 0 0 0.38 0.14Z" fill="#000000" fill-rule="evenodd" stroke-width="1"></path>
    <path d="M22.63 18.76a25.53 25.53 0 0 0 -4.55 0.6 16.4 16.4 0 0 0 -2.9 1.07 12.07 12.07 0 0 0 -1.76 1.12A7.52 7.52 0 0 0 12 22.92a0.32 0.32 0 0 0 -0.1 -0.32c-0.36 -0.27 -0.74 -0.52 -1.12 -0.75 -0.86 -0.52 -1.76 -1 -2.64 -1.5 -0.49 -0.3 -1 -0.63 -1.47 -0.91a6.64 6.64 0 0 0 -1.11 -0.53c-0.43 -0.15 -0.86 -0.28 -1.3 -0.4 -0.65 -0.17 -1.3 -0.31 -1.95 -0.45 -0.24 0 -0.59 -0.07 -0.9 -0.14l-0.15 0a2.24 2.24 0 0 0 -0.07 -0.34L1 15.76l-0.3 -4.71c0 -0.5 -0.09 -1 -0.11 -1.53a7.81 7.81 0 0 1 0 -1 0.27 0.27 0 0 0 -0.23 -0.32 0.28 0.28 0 0 0 -0.32 0.24 5.29 5.29 0 0 0 -0.08 0.8l0 1.79v4.77l0.14 1.87a3.94 3.94 0 0 0 0 0.55 0.81 0.81 0 0 0 0.2 0.37 1.65 1.65 0 0 0 0.63 0.34c0.36 0.11 0.8 0.12 1.1 0.19 0.63 0.13 1.28 0.26 1.91 0.41 0.42 0.1 0.83 0.2 1.24 0.33a6 6 0 0 1 1 0.41c0.51 0.26 1 0.55 1.5 0.82 0.9 0.49 1.83 0.89 2.72 1.37 0.36 0.2 0.73 0.42 1.08 0.66 0.18 0.13 -0.28 -0.24 0.42 0.32a0.29 0.29 0 0 0 0.4 0 6.2 6.2 0 0 1 1.17 -1 11.2 11.2 0 0 1 2.07 -1.05 21.25 21.25 0 0 1 2.05 -0.76c0.47 -0.16 0.94 -0.3 1.41 -0.43a33.09 33.09 0 0 1 3.64 -0.78A0.32 0.32 0 0 0 23 19a0.32 0.32 0 0 0 -0.37 -0.24Z" fill="#000000" fill-rule="evenodd" stroke-width="1"></path>
    <path d="M24 13.29c-0.09 -1.42 -0.3 -2.83 -0.42 -4.25a0.28 0.28 0 0 0 -0.29 -0.28 0.27 0.27 0 0 0 -0.27 0.29c0 1.2 -0.11 2.38 -0.11 3.58 0 0.71 0 1.42 0.07 2.13 0 0.47 0.07 1 0.1 1.42s0.13 1.23 0.16 1.85a6.73 6.73 0 0 1 -0.05 1.19 0.33 0.33 0 0 0 0.64 0.12A7.12 7.12 0 0 0 24 18c0.05 -0.63 0 -1.26 0.05 -1.89 -0.05 -0.91 -0.05 -1.87 -0.05 -2.82Z" fill="#000000" fill-rule="evenodd" stroke-width="1"></path>
    <path d="M1.67 11.44c0 1 0.14 2 0.19 2.94 0 0.22 -0.07 0.75 0 1.11A1 1 0 0 0 2 16a1.39 1.39 0 0 0 0.54 0.41 6.51 6.51 0 0 0 1 0.23l2.94 0.71a9.1 9.1 0 0 1 2.59 1A14 14 0 0 1 11.4 20a0.33 0.33 0 0 0 0.46 0 0.32 0.32 0 0 0 0 -0.45 14.14 14.14 0 0 0 -2.35 -1.84 9.82 9.82 0 0 0 -2.81 -1.29l-2.9 -0.82c-0.19 0 -0.43 -0.07 -0.65 -0.13a0.65 0.65 0 0 1 -0.21 -0.06l0 -1.12 -0.46 -4.15c-0.05 -0.76 -0.16 -1.56 -0.2 -2.35a7.9 7.9 0 0 1 0.06 -1.46 8.34 8.34 0 0 0 0.95 0.35c0.22 0.05 0.44 0.08 0.67 0.11a9 9 0 0 1 1 0.15 0.32 0.32 0 0 0 0.29 -0.57 4.59 4.59 0 0 0 -1 -0.56 2.79 2.79 0 0 0 -0.47 -0.14 2.42 2.42 0 0 0 -0.47 0c-0.36 0 -0.7 0 -1.08 0.07 -0.6 -0.09 -0.6 2.07 -0.6 2.11l0 2.36c0.01 0.38 0.02 0.79 0.04 1.23Z" fill="#000000" fill-rule="evenodd" stroke-width="1"></path>
  </g>
</svg>