<svg xmlns="http://www.w3.org/2000/svg" viewBox="0 0 24 24" id="Book-Next-Page--Streamline-Freehand">
  <desc>
    Book Next Page Streamline Icon: https://streamlinehq.com
  </desc>
  <g>
    <path d="M7.53 10.42c0.45 0.05 0.76 -0.45 0 -0.69 -0.52 -0.17 -3 -1.14 -4.41 -0.25 -0.19 0.12 -0.25 0.25 -0.22 0.37a0.3 0.3 0 0 0 0.09 0.2c0.14 0.14 4.4 0.37 4.54 0.37Z" fill="#000000" fill-rule="evenodd" stroke-width="1"></path>
    <path d="M7.67 7.31c0.16 0 1.28 -0.25 -0.86 -0.84a4.7 4.7 0 0 0 -1 -0.17c-0.66 0 -3 0.33 -2.74 1a0.35 0.35 0 0 0 0.11 0.18 40.63 40.63 0 0 0 4.49 -0.17Z" fill="#000000" fill-rule="evenodd" stroke-width="1"></path>
    <path d="M7.42 12.42a5.56 5.56 0 0 0 -1.62 -0.33c-0.08 0 -2.29 0.06 -2.37 0.09a0.44 0.44 0 0 0 -0.36 0.5c0 0.1 0.11 0.2 0.27 0.29 1 0.55 3.05 0 3.94 0.1a0.33 0.33 0 0 0 0.14 -0.65Z" fill="#000000" fill-rule="evenodd" stroke-width="1"></path>
    <path d="M13.29 7.52c0.3 0.14 0.14 -0.33 1.52 -0.16l4 0.36c0.33 0 0.53 -0.47 0.06 -0.72a10.81 10.81 0 0 0 -3.28 -0.69c-0.62 0 -2.14 0.21 -2.43 0.7a0.34 0.34 0 0 0 0.13 0.51Z" fill="#000000" fill-rule="evenodd" stroke-width="1"></path>
    <path d="M13.11 10.24a0.3 0.3 0 0 0 0.21 0.36c0.21 0.08 4.81 -0.36 4.86 -0.41a0.32 0.32 0 0 0 0 -0.47c-0.96 -1.28 -5.02 0.28 -5.07 0.52Z" fill="#000000" fill-rule="evenodd" stroke-width="1"></path>
    <path d="M1.1 19.07c0.94 0.69 4.31 -0.81 6.74 0.7 0.34 0.21 0.59 1.19 1.38 1.51a4.7 4.7 0 0 0 2.78 0c0.76 -0.29 1.09 -1.27 1.42 -1.44 0.59 -0.3 3.23 0.4 6.57 0.78 0.61 0.07 1.76 0.4 2.45 0 1.29 -0.68 0.8 -2.25 0.93 -3.39 0.11 -1 1.07 -9.8 0.38 -10.51 -2 -1.63 -1.86 -1.6 -2.05 -1.61 -0.13 -1 -1.45 -1.25 -2.46 -1.59a9 9 0 0 0 -3.13 -0.38A8 8 0 0 0 11.36 5l-0.24 -0.69C10.37 2.94 8.51 2.56 7 2.5c-2.24 -0.08 -4.43 1 -5.87 1.55 -0.94 0.18 -0.62 2.19 -0.65 3.66L0 16.8a0.56 0.56 0 0 0 0.61 0.58C0.7 18.64 1 19 1.1 19.07Zm5.84 -15.7c1.12 0.07 2.78 0.39 3.3 1.38 0.35 1.14 0.34 1.34 0.68 1.44 0 0.16 -0.43 4.6 -0.45 4.83 -0.12 2.07 0.14 2.85 0 3 -0.38 0.4 0.5 1.15 0.77 -0.17a9.41 9.41 0 0 0 0.1 -1.15c0.26 -2.51 0.57 -2 0.22 -6l0 -0.67c1.43 -0.71 2 -1.62 4.6 -1.74a9.38 9.38 0 0 1 4.47 1c0.16 0.72 -0.25 2.83 -0.11 7.17a4.55 4.55 0 0 1 -2.52 -0.32c-2 -0.66 -2 -0.71 -2.2 -0.54a0.43 0.43 0 0 0 -0.18 0.36c-0.05 0.71 0.39 1 -1 2.51a0.3 0.3 0 0 0 0.42 0.42 8.4 8.4 0 0 0 0.96 -1.07 2.05 2.05 0 0 0 0.44 -1.23 8.9 8.9 0 0 0 3.22 1.08 8 8 0 0 1 -2.19 2c-2.07 1.16 -2.58 -0.24 -5.49 0.5a3.19 3.19 0 0 0 -1.63 1c-3.82 -2.94 -6 -2.61 -9 -1.71 -0.26 0.07 -0.19 0.91 -0.1 -7.76l-0.07 -3C2 4.53 4.64 3.21 6.94 3.37Zm15.41 13.78c-0.13 0.9 0.15 2.26 -0.42 2.54a1.07 1.07 0 0 1 -0.55 0c-0.29 0 -6.6 -1.08 -7.48 -1.07 -1.7 0 -1.73 1.44 -2.28 1.67a3.72 3.72 0 0 1 -2.06 0.06c-0.38 -0.14 -0.77 -1.1 -1.26 -1.37 -2.22 -1.27 -4.2 -0.47 -6.45 -0.43 -0.44 0 -0.38 0.14 -0.52 -0.64 -0.09 -0.55 -0.06 -0.78 -0.23 -0.91 0.23 -0.39 0.1 -0.28 0.58 -0.48a13.42 13.42 0 0 1 3 -0.63c1.87 -0.11 4 1 5.5 2.15 0.63 0.48 0.74 -0.8 2.06 -1.19 2.9 -0.85 3.29 0.72 5.7 -0.44a8.61 8.61 0 0 0 2.65 -2.16c0 0.69 0 2.58 -0.08 3.23a4.92 4.92 0 0 0 -2.22 -0.27 0.3 0.3 0 0 0 -0.16 0.57 6.91 6.91 0 0 0 0.86 0.47c0.65 0.23 2.2 0.21 2.06 -0.44a43.62 43.62 0 0 0 0.3 -4.55 0.56 0.56 0 0 0 0 -0.56 64.76 64.76 0 0 1 0.38 -6.7c0.52 0.49 1 0.86 1.44 1.22 0.26 1.83 -0.56 8.1 -0.82 9.93Z" fill="#000000" fill-rule="evenodd" stroke-width="1"></path>
  </g>
</svg>