<svg xmlns="http://www.w3.org/2000/svg" viewBox="0 0 24 24" id="Bread-Baguette--Streamline-Freehand">
  <desc>
    Bread Baguette Streamline Icon: https://streamlinehq.com
  </desc>
  <g>
    <path d="M17 3.17a2.69 2.69 0 0 1 1 0.76 1 1 0 0 1 0.22 0.75 0.54 0.54 0 0 1 -0.42 0.42 3.12 3.12 0 0 1 -1.38 0.16c-1.28 -0.09 -2.58 -0.6 -3.84 -0.58a0.33 0.33 0 0 0 -0.35 0.33 0.34 0.34 0 0 0 0.32 0.35c1.26 0.11 2.49 0.79 3.75 1a4.22 4.22 0 0 0 1.89 -0.15 1.64 1.64 0 0 0 1.15 -1.37 2 2 0 0 0 -0.6 -1.55 3.41 3.41 0 0 0 -1.19 -0.74 3.86 3.86 0 0 0 -0.48 -0.16c-0.82 0 -1.38 0.44 -0.78 0.57a2.11 2.11 0 0 1 0.71 0.21Z" fill="#000000" fill-rule="evenodd" stroke-width="1"></path>
    <path d="M23.82 2.72a3.25 3.25 0 0 0 -1.13 -1.65 2.13 2.13 0 0 0 -0.54 -0.28 6.56 6.56 0 0 0 -0.7 -0.18 7.8 7.8 0 0 0 -2.93 0 14.57 14.57 0 0 0 -4 1.4c-0.42 0.22 -0.85 0.47 -1.28 0.75 -0.62 0.4 -1.24 0.82 -1.79 1.19a35.81 35.81 0 0 0 -3.89 3 34.24 34.24 0 0 0 -3.45 3.47c-0.32 0.38 -0.62 0.77 -0.91 1.17 -0.42 0.59 -0.82 1.2 -1.21 1.81L1.13 15c-0.1 0.21 -0.19 0.43 -0.27 0.65s-0.21 0.65 -0.31 1a9.1 9.1 0 0 0 -0.44 4.24 3.29 3.29 0 0 0 1.74 2.35 0.3 0.3 0 1 0 0.29 -0.52 2.74 2.74 0 0 1 -1.39 -2 8.24 8.24 0 0 1 0.51 -3.9 11.25 11.25 0 0 1 1.4 -3s1.46 -2.1 2.12 -2.82c0 0 1.92 -2 3.43 -3.3 0 0 2.51 -2 3.83 -2.82 0.56 -0.36 1.18 -0.78 1.8 -1.16a19 19 0 0 1 4.24 -1.84 7.38 7.38 0 0 1 3.13 -0.12 4.68 4.68 0 0 1 0.48 0.11A1 1 0 0 1 22 2a2.24 2.24 0 0 1 0.83 1.42 5.39 5.39 0 0 1 -0.08 1.88l-0.45 1.49 -0.46 1.14c-0.1 0.2 -0.23 0.43 -0.37 0.67s-0.46 0.72 -0.65 1a31.3 31.3 0 0 1 -2.66 3.35c-1 1.06 -2 2.07 -3.05 3.06s-2 1.83 -3 2.69c-0.69 0.56 -1.39 1.1 -2.14 1.61a16.49 16.49 0 0 1 -4.1 2.14 7.56 7.56 0 0 1 -3 0.38 0.35 0.35 0 0 0 -0.38 0.31 0.35 0.35 0 0 0 0.31 0.37 8.23 8.23 0 0 0 3.27 -0.36A17.57 17.57 0 0 0 10.38 21c0.78 -0.5 1.51 -1.05 2.23 -1.61 1.07 -0.85 2.08 -1.75 3.11 -2.68s2.16 -2 3.16 -3.06a30.19 30.19 0 0 0 2.8 -3.42c0.21 -0.29 0.47 -0.67 0.7 -1s0.32 -0.52 0.44 -0.75 0.24 -0.51 0.34 -0.77a5.31 5.31 0 0 0 0.2 -0.56l0.48 -1.57a5.81 5.81 0 0 0 -0.02 -2.86Z" fill="#000000" fill-rule="evenodd" stroke-width="1"></path>
    <path d="M11.62 7.82a4.25 4.25 0 0 1 1.38 0.87 1.14 1.14 0 0 1 0.41 0.94c0 0.26 -0.26 0.46 -0.64 0.55a2.43 2.43 0 0 1 -0.85 0.05 8.86 8.86 0 0 1 -1.43 -0.23c-0.82 -0.18 -1.72 -0.43 -2.62 -0.56a5.06 5.06 0 0 0 -1 -0.06c-0.76 0.16 -0.84 0.7 -0.27 0.67s0.54 0.07 1.08 0.19c0.86 0.19 1.72 0.51 2.5 0.75a11 11 0 0 0 1.6 0.39 3.57 3.57 0 0 0 1.22 -0.07 1.77 1.77 0 0 0 1.5 -1.52 2.17 2.17 0 0 0 -0.84 -1.86A5.27 5.27 0 0 0 11.91 7a14 14 0 0 0 -2 -0.39c-0.56 0 -0.78 0.57 -0.31 0.62a10.39 10.39 0 0 1 2.02 0.59Z" fill="#000000" fill-rule="evenodd" stroke-width="1"></path>
    <path d="M4.45 12.53a5.1 5.1 0 0 1 1.39 0.26 3.47 3.47 0 0 1 1.16 0.65 1.7 1.7 0 0 1 0.63 1.06 0.63 0.63 0 0 1 -0.43 0.72 3.23 3.23 0 0 1 -1.41 0.21 27.72 27.72 0 0 0 -3.49 -0.36c-0.4 0.14 -0.47 0.67 0 0.71 1.23 -0.13 2.19 0.5 3.44 0.66a3.87 3.87 0 0 0 1.91 -0.17A1.67 1.67 0 0 0 8.8 14.8a2.74 2.74 0 0 0 -1.15 -2.22 4.53 4.53 0 0 0 -1.57 -0.66 5.65 5.65 0 0 0 -1.64 -0.12c-0.6 0.24 -0.73 0.74 -0.4 0.74Z" fill="#000000" fill-rule="evenodd" stroke-width="1"></path>
  </g>
</svg>