<svg xmlns="http://www.w3.org/2000/svg" viewBox="0 0 24 24" id="Couple-Hold--Streamline-Freehand">
  <desc>
    Couple Hold Streamline Icon: https://streamlinehq.com
  </desc>
  <g>
    <path d="M8.14 4.69a1.88 1.88 0 0 1 -1.65 -1.88 1.44 1.44 0 0 1 1.56 -1.46A2.36 2.36 0 0 1 9.73 2a1.7 1.7 0 0 1 0.33 1.66 1.24 1.24 0 0 1 -0.46 0.67 1.39 1.39 0 0 1 -0.83 0.26 0.34 0.34 0 0 0 -0.36 0.32 0.34 0.34 0 0 0 0.32 0.36A2 2 0 0 0 10 5a2 2 0 0 0 0.87 -1.05 2.59 2.59 0 0 0 -0.36 -2.62A3.36 3.36 0 0 0 8.12 0.2a2.47 2.47 0 0 0 -2.59 2.62A2.61 2.61 0 0 0 8 5.28 0.3 0.3 0 0 0 8.38 5a0.29 0.29 0 0 0 -0.24 -0.31Z" fill="#000000" fill-rule="evenodd" stroke-width="1"></path>
    <path d="M5.18 10.49s0.06 0 0 0Zm0.55 1c0 0.28 0.06 0.53 0.1 0.76a8.82 8.82 0 0 0 0.46 1.64 4.36 4.36 0 0 0 0.63 1.26 1 1 0 0 0 0.82 0.4l1.43 0a1.34 1.34 0 0 0 1 -0.45 2.36 2.36 0 0 0 0.58 -1.25l0.2 -1.27a0.34 0.34 0 1 0 -0.67 -0.09L10 13.63a1.82 1.82 0 0 1 -0.33 0.74 0.6 0.6 0 0 1 -0.51 0.28l-1.45 0c-0.13 0 -0.15 -0.16 -0.22 -0.3a5.83 5.83 0 0 1 -0.28 -0.77 8.18 8.18 0 0 1 -0.3 -1.18 13 13 0 0 1 -0.15 -1.86c0 -0.28 0.06 -1.11 0.09 -1.47l0 -0.24a0.61 0.61 0 0 0 -0.11 -0.32 0.58 0.58 0 0 0 -1 0.09c-0.07 0.14 -0.23 0.85 -0.43 1.46 -0.06 0.16 -0.11 0.31 -0.17 0.43a0.27 0.27 0 0 1 -0.28 -0.12 2.38 2.38 0 0 1 -0.06 -0.59 4.54 4.54 0 0 1 0 -0.65L5 8.5a6.07 6.07 0 0 1 0.63 -1.44 4.59 4.59 0 0 1 1 -1.19 2.66 2.66 0 0 1 0.84 -0.38 3.47 3.47 0 0 1 1 -0.18 2.33 2.33 0 0 1 0.53 0 2.94 2.94 0 0 1 0.53 0.14 0.3 0.3 0 1 0 0.22 -0.56 4.21 4.21 0 0 0 -0.63 -0.2 3.51 3.51 0 0 0 -0.66 -0.07 4.86 4.86 0 0 0 -1.14 0.13 3.53 3.53 0 0 0 -1.13 0.46A5.55 5.55 0 0 0 4.9 6.57a7.31 7.31 0 0 0 -0.83 1.62l-0.21 0.74a4.81 4.81 0 0 0 -0.11 1 2.92 2.92 0 0 0 0.09 0.74 1.23 1.23 0 0 0 1 0.91 1.41 1.41 0 0 0 0.89 -0.12Z" fill="#000000" fill-rule="evenodd" stroke-width="1"></path>
    <path d="M8.9 15.13c0.07 -0.49 0.19 -1 0.24 -1.43l0 -1 -0.3 -1.82a0.34 0.34 0 0 0 -0.68 0L8 12.74l0 0.95a12.17 12.17 0 0 0 0.24 1.45 0.3 0.3 0 0 0 0.31 0.3 0.32 0.32 0 0 0 0.35 -0.31Z" fill="#000000" fill-rule="evenodd" stroke-width="1"></path>
    <path d="M18.16 10.46c-0.05 -0.12 -0.11 -0.27 -0.16 -0.42 -0.2 -0.59 -0.36 -1.27 -0.43 -1.41a0.28 0.28 0 0 0 -0.37 -0.07c-0.35 0 -0.81 0 -0.67 0.53 0 0.05 0 0.16 0.08 0.31 0.14 0.49 0.41 1.42 0.58 2.14 0 0.17 0.07 0.32 0.1 0.44 -0.92 0.09 -2.93 0.15 -4.17 0.13a0.35 0.35 0 0 0 -0.36 0.33 0.35 0.35 0 0 0 0.33 0.36c1.28 0.1 3.37 0.17 4.3 0.15a2.42 2.42 0 0 0 0.54 -0.06 0.49 0.49 0 0 0 0.38 -0.4 3.25 3.25 0 0 0 -0.06 -0.91 1.06 1.06 0 0 0 0.25 0 1.2 1.2 0 0 0 1 -0.88 3.25 3.25 0 0 0 0.07 -0.71 5.14 5.14 0 0 0 -0.12 -1l-0.22 -0.7a6 6 0 0 0 -0.8 -1.43 5.46 5.46 0 0 0 -1.18 -1.11 0.29 0.29 0 0 0 -0.42 0.06 0.3 0.3 0 0 0 0.06 0.42 4.66 4.66 0 0 1 0.95 1 4.71 4.71 0 0 1 0.58 1.29l0.13 0.6a3.29 3.29 0 0 1 0 0.63 2 2 0 0 1 -0.07 0.56c-0.06 0.17 -0.43 0.15 -0.36 0.06s0.04 0.07 0.04 0.09Z" fill="#000000" fill-rule="evenodd" stroke-width="1"></path>
    <path d="M16.58 12.42c-0.13 0.33 -0.28 0.85 -0.49 1.31a2.37 2.37 0 0 1 -0.3 0.47c0 0.06 -0.1 0.11 -0.16 0.11l-1.42 0a0.54 0.54 0 0 1 -0.47 -0.18 1.69 1.69 0 0 1 -0.38 -0.68 0.35 0.35 0 0 0 -0.41 -0.26 0.35 0.35 0 0 0 -0.26 0.41 2.26 2.26 0 0 0 0.53 1.26 1.41 1.41 0 0 0 1 0.49l1.46 0a1.28 1.28 0 0 0 1.08 -0.79 7.25 7.25 0 0 0 0.4 -2.08 0.3 0.3 0 0 0 -0.21 -0.37 0.3 0.3 0 0 0 -0.37 0.31Z" fill="#000000" fill-rule="evenodd" stroke-width="1"></path>
    <path d="M15.09 15a5.27 5.27 0 0 0 0.26 -0.84 2.06 2.06 0 0 0 0 -0.36 2 2 0 0 0 0 -0.35 8.5 8.5 0 0 0 -0.2 -0.83 0.34 0.34 0 0 0 -0.34 -0.34 0.34 0.34 0 0 0 -0.34 0.34c-0.06 0.24 -0.14 0.51 -0.2 0.83a2.17 2.17 0 0 0 0 0.72c0.06 0.32 0.18 0.58 0.24 0.82a0.32 0.32 0 0 0 0.29 0.31 0.3 0.3 0 0 0 0.29 -0.3Z" fill="#000000" fill-rule="evenodd" stroke-width="1"></path>
    <path d="M11.8 11.08a0.67 0.67 0 0 1 0.22 -0.4c0.15 -0.15 0.26 -0.34 0.41 -0.51s0.29 -0.32 0.43 -0.49 0.35 -0.48 0.5 -0.71l0.36 -0.66a1 1 0 0 0 -0.07 -0.69 0.66 0.66 0 0 0 -0.35 -0.44 0.44 0.44 0 0 0 -0.32 0 0.89 0.89 0 0 0 -0.37 0.23l-0.34 0.39a2.81 2.81 0 0 1 -0.26 0.27 0.61 0.61 0 0 1 -0.78 0l-0.3 -0.43a1.29 1.29 0 0 0 -0.21 -0.19 2.61 2.61 0 0 0 -0.28 -0.17 0.42 0.42 0 0 0 -0.47 0.06 0.73 0.73 0 0 0 -0.22 0.6 3.12 3.12 0 0 0 0.49 1.35 7.15 7.15 0 0 0 0.88 1c0.29 0.31 0.44 0.6 0.63 0.75Zm-0.15 -4.45c-0.07 -0.07 -0.14 -0.12 -0.21 -0.18a2.87 2.87 0 0 0 -0.44 -0.28 1.57 1.57 0 0 0 -1.81 0.25A2 2 0 0 0 8.52 8a4.29 4.29 0 0 0 0.94 2.32 3.39 3.39 0 0 0 0.89 0.85 3 3 0 0 0 1.2 0.36 0.27 0.27 0 0 0 0.33 -0.11l0 0.07a0.6 0.6 0 0 0 0.84 0.1 6.3 6.3 0 0 0 0.85 -0.64 7 7 0 0 0 1 -1.24 6.53 6.53 0 0 0 0.35 -0.56 2.37 2.37 0 0 0 0.2 -0.54 2.56 2.56 0 0 0 -0.21 -1.59 2 2 0 0 0 -1.25 -1.14 1.81 1.81 0 0 0 -1.12 0.12 2.3 2.3 0 0 0 -0.83 0.59Z" fill="#000000" fill-rule="evenodd" stroke-width="1"></path>
    <path d="M17.55 4.51c0.09 0 0.12 -0.06 0.08 -0.12s-0.05 0 -0.06 0.05a0.25 0.25 0 0 1 -0.02 0.07Zm0 0.14c0 0.1 0 0.17 0.06 0.12s-0.03 -0.07 -0.1 -0.12Zm-0.22 -0.12a4.86 4.86 0 0 1 -0.73 -0.08 0.66 0.66 0 0 0 -0.34 0 1.34 1.34 0 0 0 -0.36 0.18 1.79 1.79 0 0 1 -1.07 0.29 1.5 1.5 0 0 1 -1.06 -0.27 0.34 0.34 0 1 0 -0.5 0.47 2.29 2.29 0 0 0 1.55 0.58 2.77 2.77 0 0 0 1.62 -0.35 3.54 3.54 0 0 0 1.32 0.07 1.08 1.08 0 0 0 0.78 -0.49 0.66 0.66 0 0 0 0.07 -0.51 1.21 1.21 0 0 0 -0.38 -0.56c-0.13 -0.12 -0.34 -0.21 -0.38 -0.35a15 15 0 0 0 -0.39 -2A1.81 1.81 0 0 0 16 0.39a1.39 1.39 0 0 0 -0.35 0 3.28 3.28 0 0 0 -0.43 0l-0.45 0.09 -0.25 0 -0.42 0a1.65 1.65 0 0 0 -0.32 0.06 1.8 1.8 0 0 0 -1.07 0.74 3.45 3.45 0 0 0 -0.39 1.66l-0.09 0.72a0.31 0.31 0 0 0 0.21 0.37 0.3 0.3 0 0 0 0.37 -0.21L13 3a3.49 3.49 0 0 1 0.28 -1.1 1 1 0 0 1 0.72 -0.49l0.43 0 0.28 0.06a0.59 0.59 0 0 0 0.23 0l0.4 -0.05 0.41 0a0.81 0.81 0 0 1 0.59 0.49 16.6 16.6 0 0 1 0.36 1.89 1.38 1.38 0 0 0 0.41 0.59Z" fill="#000000" fill-rule="evenodd" stroke-width="1"></path>
    <path d="M5 18.78c0 -0.06 -0.12 -0.13 -0.18 -0.22s-0.24 -0.36 -0.29 -0.41A3.33 3.33 0 0 1 3.89 17a1 1 0 0 1 0.1 -1c0.09 -0.12 0.22 -0.1 0.34 -0.07a2 2 0 0 1 0.44 0.22 4.66 4.66 0 0 1 1.05 1 5.79 5.79 0 0 1 0.79 1.24 4.27 4.27 0 0 1 0.28 0.91 13.61 13.61 0 0 1 0.16 1.57c0 0.93 0 1.88 0.07 2.45a0.35 0.35 0 0 0 0.69 0c0 -0.57 0.09 -1.52 0.12 -2.47a13.31 13.31 0 0 0 0 -1.7 4.44 4.44 0 0 0 -0.37 -1.45 8.7 8.7 0 0 0 -0.76 -1.21 4.63 4.63 0 0 0 -2.17 -1.65 1.25 1.25 0 0 0 -1.44 0.58A1.82 1.82 0 0 0 3 17a3.93 3.93 0 0 0 1.1 1.63 5 5 0 0 0 0.58 0.63 0.47 0.47 0 0 0 0.53 0.07 0.31 0.31 0 0 0 0.11 -0.41 0.3 0.3 0 0 0 -0.32 -0.14Z" fill="#000000" fill-rule="evenodd" stroke-width="1"></path>
    <path d="M19 18.81a0.35 0.35 0 0 0 -0.26 0.15 0.32 0.32 0 0 0 0.11 0.42 0.49 0.49 0 0 0 0.53 -0.07 5 5 0 0 0 0.58 -0.63A3.93 3.93 0 0 0 21 17.05a1.82 1.82 0 0 0 -0.17 -1.52 1.25 1.25 0 0 0 -1.42 -0.53 4.63 4.63 0 0 0 -2.17 1.65 8.15 8.15 0 0 0 -0.76 1.21 4.37 4.37 0 0 0 -0.37 1.45 13.31 13.31 0 0 0 0 1.7c0 0.94 0.1 1.89 0.12 2.47a0.35 0.35 0 0 0 0.69 0c0 -0.57 0 -1.52 0.07 -2.46a13.42 13.42 0 0 1 0.16 -1.56 4.1 4.1 0 0 1 0.28 -0.91 5.79 5.79 0 0 1 0.79 -1.24 4.66 4.66 0 0 1 1.05 -1 1.64 1.64 0 0 1 0.44 -0.22 0.28 0.28 0 0 1 0.34 0.07 1 1 0 0 1 0.1 1 3.39 3.39 0 0 1 -0.68 1.11c-0.05 0.06 -0.17 0.24 -0.29 0.42s-0.18 0.07 -0.18 0.12Z" fill="#000000" fill-rule="evenodd" stroke-width="1"></path>
    <path d="m2.69 21.19 0 2.27a0.31 0.31 0 0 0 0.3 0.3 0.3 0.3 0 0 0 0.31 -0.3l0.14 -2.38a0.93 0.93 0 0 0 -0.18 -0.43c-0.28 -0.43 -1 -1.23 -1.4 -1.83a5.33 5.33 0 0 1 -0.52 -1.9c-0.09 -0.66 -0.15 -1.4 -0.19 -2.13a20.27 20.27 0 0 1 0.06 -3c0.05 -0.47 0.06 -0.83 0.18 -1l0.3 -0.17c0.5 0 0.7 0.37 0.85 1a15.71 15.71 0 0 1 0.3 3.06 0.35 0.35 0 0 0 0.35 0.34 0.33 0.33 0 0 0 0.33 -0.34 12.52 12.52 0 0 0 -0.29 -3.81A1.54 1.54 0 0 0 1.64 9.7a1.44 1.44 0 0 0 -0.52 0.15 1.59 1.59 0 0 0 -0.44 0.28 3 3 0 0 0 -0.55 1.55A18.46 18.46 0 0 0 0 14.85a17.59 17.59 0 0 0 0.27 2.25 6 6 0 0 0 0.81 2.26 6.83 6.83 0 0 0 0.53 0.63c0.35 0.39 0.75 0.77 1 1 0.02 0.1 0.05 0.2 0.08 0.2Z" fill="#000000" fill-rule="evenodd" stroke-width="1"></path>
    <path d="M21.31 21.23s0.06 -0.1 0.1 -0.16c0.23 -0.27 0.63 -0.65 1 -1 0.2 -0.22 0.39 -0.44 0.53 -0.63a6 6 0 0 0 0.81 -2.26 17.59 17.59 0 0 0 0.25 -2.29 18.42 18.42 0 0 0 -0.11 -3.17 3 3 0 0 0 -0.55 -1.55 1.86 1.86 0 0 0 -0.44 -0.29 1.62 1.62 0 0 0 -0.52 -0.14A1.54 1.54 0 0 0 20.75 11a12.52 12.52 0 0 0 -0.29 3.81 0.34 0.34 0 0 0 0.33 0.34 0.35 0.35 0 0 0 0.35 -0.34 15.71 15.71 0 0 1 0.3 -3.06c0.15 -0.61 0.35 -1 0.85 -1l0.3 0.17c0.12 0.12 0.13 0.48 0.18 0.95a20.23 20.23 0 0 1 0.06 3c0 0.73 -0.1 1.46 -0.19 2.13a5.33 5.33 0 0 1 -0.52 1.9c-0.36 0.6 -1.12 1.4 -1.4 1.82a1 1 0 0 0 -0.18 0.44l0.14 2.38a0.3 0.3 0 0 0 0.31 0.3 0.31 0.31 0 0 0 0.3 -0.3Z" fill="#000000" fill-rule="evenodd" stroke-width="1"></path>
  </g>
</svg>