<svg xmlns="http://www.w3.org/2000/svg" viewBox="0 0 24 24" id="Drugs-Mortar-Pestle--Streamline-Freehand">
  <desc>
    Drugs Mortar Pestle Streamline Icon: https://streamlinehq.com
  </desc>
  <g>
    <path d="M12.68 12.05a0.35 0.35 0 0 0 0.4 -0.31 33.7 33.7 0 0 1 1.21 -5.09 11.15 11.15 0 0 1 1.49 -3 1.19 1.19 0 0 1 0.91 -0.57 1 1 0 0 1 0.82 0.57 2.88 2.88 0 0 1 0.4 1.15 5.26 5.26 0 0 1 0 1.37l-0.75 5.16a0.4 0.4 0 1 0 0.8 0.12L19 6.37a6.33 6.33 0 0 0 0.14 -1.67 4.11 4.11 0 0 0 -0.48 -1.7 2.24 2.24 0 0 0 -2 -1.27 2.5 2.5 0 0 0 -2 1.16 11.87 11.87 0 0 0 -1.48 3.43 31.59 31.59 0 0 0 -0.82 5.35 0.36 0.36 0 0 0 0.32 0.38Z" fill="#000000" fill-rule="evenodd" stroke-width="1"></path>
    <path d="M14.32 16.86c-0.66 0 -1.32 -0.07 -2 -0.11a0.57 0.57 0 0 0 0 -0.13c-0.07 -0.58 -0.21 -1.13 -0.3 -1.71a0.36 0.36 0 0 0 -0.35 -0.36 0.35 0.35 0 0 0 -0.36 0.35 14.69 14.69 0 0 0 -0.31 1.74v0.1h-0.35a18.36 18.36 0 0 1 -2 0.09 0.36 0.36 0 1 0 -0.13 0.7 10.9 10.9 0 0 0 2 0.52l0.45 0v0.05c0.08 0.57 0.2 1.13 0.29 1.7a0.39 0.39 0 0 0 0.41 0.4 0.4 0.4 0 0 0 0.4 -0.41c0.07 -0.59 0.15 -1.15 0.18 -1.74 0.69 -0.09 1.35 -0.24 2 -0.37a0.4 0.4 0 0 0 0.37 -0.44 0.41 0.41 0 0 0 -0.3 -0.38Z" fill="#000000" fill-rule="evenodd" stroke-width="1"></path>
    <path d="M23.87 11.2a0.39 0.39 0 0 0 -0.14 -0.26 2.15 2.15 0 0 0 0.15 -1.09 2.74 2.74 0 0 0 -1.38 -2 5.2 5.2 0 0 0 -0.62 -0.32c-0.31 -0.14 -0.63 -0.25 -0.94 -0.37a0.4 0.4 0 0 0 -0.52 0.23 0.39 0.39 0 0 0 0.23 0.52l1.4 0.67A1.85 1.85 0 0 1 23 9.94a1.33 1.33 0 0 1 -0.73 1.29 10 10 0 0 1 -2.69 1 24.69 24.69 0 0 1 -4.42 0.57c-1.09 0.07 -4.42 0 -7.4 -0.23A21.64 21.64 0 0 1 3 11.92l-1 -0.51c-0.53 -0.37 -0.8 -0.68 -0.79 -1a1.16 1.16 0 0 1 0.38 -0.74 10 10 0 0 1 4 -2l1.54 -0.29c0.62 -0.09 1.24 -0.16 1.87 -0.21 1 -0.09 2 -0.17 2.89 -0.17a0.36 0.36 0 0 0 0.36 -0.36 0.37 0.37 0 0 0 -0.37 -0.36L9 6.28c-0.64 0 -1.29 0.07 -1.93 0.13l-1.63 0.26A11 11 0 0 0 0.77 8.82 2.38 2.38 0 0 0 0 10.35a2 2 0 0 0 0.4 1.21 14.4 14.4 0 0 0 1.42 5.08A9.66 9.66 0 0 0 6 21.09a15.9 15.9 0 0 0 7.28 1.15 13.86 13.86 0 0 0 7 -2.24c2.58 -1.74 4.2 -4.55 3.59 -8.8ZM19.69 19a13.46 13.46 0 0 1 -6.45 1.86 15.59 15.59 0 0 1 -6.67 -0.95 8.46 8.46 0 0 1 -3.88 -3.77 13.39 13.39 0 0 1 -1.34 -3.65 5.39 5.39 0 0 0 0.5 0.33c0.21 0.12 0.43 0.21 0.65 0.31a21.11 21.11 0 0 0 5.13 0.78 66.11 66.11 0 0 0 7.58 0.12 27.48 27.48 0 0 0 4.6 -0.75 11.44 11.44 0 0 0 2.94 -1.23 2.66 2.66 0 0 0 0.31 -0.26c0.19 3.51 -1.2 5.85 -3.37 7.21Z" fill="#000000" fill-rule="evenodd" stroke-width="1"></path>
  </g>
</svg>