<svg xmlns="http://www.w3.org/2000/svg" viewBox="0 0 24 24" id="E-Learning-Application-Window-Certificate--Streamline-Freehand">
  <desc>
    E Learning Application Window Certificate Streamline Icon: https://streamlinehq.com
  </desc>
  <g>
    <path d="M23.55 12.27a2.74 2.74 0 0 0 -0.57 -0.7s-0.25 -0.1 -0.41 -0.17a2.14 2.14 0 0 0 0.07 -0.35 2.47 2.47 0 0 0 -0.15 -0.94A2.11 2.11 0 0 0 22 9.3a1.6 1.6 0 0 0 -1.05 -0.49 3.8 3.8 0 0 0 -1.13 0.28l0 -0.05a2.42 2.42 0 0 0 -0.25 -0.31 2.08 2.08 0 0 0 -0.32 -0.27 1.82 1.82 0 0 0 -1.76 -0.17 2 2 0 0 0 -1 1.13 1.9 1.9 0 0 0 -1.67 0.22 2 2 0 0 0 -0.79 1.51 1 1 0 0 0 0 0.3 4.37 4.37 0 0 0 0.12 0.49 2 2 0 0 0 -0.28 0.25 2.09 2.09 0 0 0 -0.42 0.52 1.87 1.87 0 0 0 -0.23 0.65 1.81 1.81 0 0 0 0.25 1.35 7.22 7.22 0 0 0 1 1.06l0 0.25a2.2 2.2 0 0 0 0.05 0.58 1.75 1.75 0 0 0 0.24 0.59 1.63 1.63 0 0 0 1 0.73l0.2 0 0 3.61v1.67l0 0.26a0.51 0.51 0 0 0 0.13 0.34 0.49 0.49 0 0 0 0.7 0.1 4.52 4.52 0 0 0 0.77 -0.55 10.42 10.42 0 0 0 0.94 -0.94 2.82 2.82 0 0 0 0.21 -0.33c0.12 0.07 0.32 0.13 0.37 0.16l1.68 1.26s0.71 0.24 0.83 -0.31a2 2 0 0 0 0.05 -0.22l0.07 -0.54v-1.51l-0.19 -3.68a2.26 2.26 0 0 0 0.35 -0.17 2.09 2.09 0 0 0 0.64 -0.65 1.61 1.61 0 0 0 0.17 -0.43 3.34 3.34 0 0 0 0.08 -0.7v-0.16c0.13 0 0.33 -0.22 0.39 -0.26a1.69 1.69 0 0 0 0.66 -0.75 2 2 0 0 0 0.14 -0.95 2.26 2.26 0 0 0 -0.4 -0.9Zm-2.94 9.83 -0.31 -0.25q-0.35 -0.29 -0.72 -0.54a5.11 5.11 0 0 0 -0.58 -0.4 0.77 0.77 0 0 0 -0.51 -0.08 0.83 0.83 0 0 0 -0.41 0.22 6.1 6.1 0 0 0 -0.52 0.6c-0.23 0.25 -0.46 0.51 -0.72 0.75l-0.07 -0.91 -0.29 -3.57a1.35 1.35 0 0 0 0.29 0 1.81 1.81 0 0 0 0.35 -0.05 1.62 1.62 0 0 1 0.1 0.18 1.76 1.76 0 0 0 0.45 0.52 1.36 1.36 0 0 0 1.23 0.15 1.87 1.87 0 0 0 0.8 -0.46 3.11 3.11 0 0 0 0.64 -0.93c0 -0.08 0.13 -0.05 0.36 0l0 3.61Zm2.1 -8.43a0.61 0.61 0 0 1 -0.27 0.28c-0.08 0.06 -0.39 0.16 -0.52 0.24a0.63 0.63 0 0 0 -0.21 0.24 1.41 1.41 0 0 0 -0.15 0.45c0 0.3 0.05 0.67 -0.13 1a1 1 0 0 1 -0.29 0.29c-0.42 0.27 -0.47 0.06 -0.65 0a0.6 0.6 0 0 0 -0.37 0c-0.51 0.25 -0.78 0.8 -1.19 1.19a0.74 0.74 0 0 1 -0.32 0.19c-0.15 0 -0.23 0.07 -0.3 0a1.14 1.14 0 0 1 -0.21 -0.3 2.13 2.13 0 0 0 -0.5 -0.59 0.62 0.62 0 0 0 -0.54 -0.09 5.49 5.49 0 0 0 -0.56 0.21 1.32 1.32 0 0 1 -0.62 0 0.62 0.62 0 0 1 -0.4 -0.27 0.83 0.83 0 0 1 -0.12 -0.27 1.12 1.12 0 0 1 0 -0.32c0 -0.06 0 -0.26 0.06 -0.33a0.54 0.54 0 0 0 -0.13 -0.44 9.66 9.66 0 0 1 -1.13 -1.07 1 1 0 0 1 -0.16 -0.72 1.15 1.15 0 0 1 0.12 -0.37 1.27 1.27 0 0 1 0.24 -0.33s0.28 -0.17 0.37 -0.23a0.48 0.48 0 0 0 0.19 -0.36l-0.2 -1a1.26 1.26 0 0 1 0.45 -1 1.21 1.21 0 0 1 1.08 -0.15s0.55 0.2 0.7 -0.27a1.43 1.43 0 0 1 0.77 -0.9 1.12 1.12 0 0 1 1.1 0.16l0.35 0.4s0.09 0.18 0.13 0.24a0.38 0.38 0 0 0 0.41 0.2 6.72 6.72 0 0 1 1.2 -0.26 0.81 0.81 0 0 1 0.49 0.29 1.16 1.16 0 0 1 0.29 0.49 1.68 1.68 0 0 1 0.07 0.59c0 0.09 -0.09 0.24 -0.11 0.35a0.59 0.59 0 0 0 0.2 0.61c0.12 0.1 0.45 0.29 0.51 0.35a1.62 1.62 0 0 1 0.34 0.44 1.19 1.19 0 0 1 0.13 0.49 0.85 0.85 0 0 1 -0.12 0.57Z" fill="#000000" fill-rule="evenodd" stroke-width="1"></path>
    <path d="M17.61 10.89a1.94 1.94 0 0 0 -0.75 0.3 2.63 2.63 0 0 0 -1 2.9 2.6 2.6 0 0 0 2.51 2 2.67 2.67 0 0 0 1.83 -0.88 2.94 2.94 0 0 0 0.8 -1.82 2.43 2.43 0 0 0 -0.8 -1.91 2.74 2.74 0 0 0 -2.59 -0.59Zm2.48 2.42a2 2 0 0 1 -0.65 1.1 1.67 1.67 0 0 1 -1.08 0.52 1.59 1.59 0 0 1 -1.52 -1.14 1.78 1.78 0 0 1 0.47 -2 1.82 1.82 0 0 1 2.36 0.26 1.6 1.6 0 0 1 0.42 1.26Z" fill="#000000" fill-rule="evenodd" stroke-width="1"></path>
    <path d="M21.64 3.85a6.05 6.05 0 0 0 -0.56 -2.34A2.41 2.41 0 0 0 19.73 0.38a8.38 8.38 0 0 0 -2.36 -0.26c-1.31 0 -2.6 -0.09 -3.9 -0.11s-2.59 0 -3.9 0c-0.92 0 -1.83 0.06 -2.74 0.12S5 0.31 4.1 0.42a8.76 8.76 0 0 0 -1.91 0.35 2.88 2.88 0 0 0 -1.26 0.79 2.3 2.3 0 0 0 -0.48 0.88A6.14 6.14 0 0 0 0.24 3.7C0.18 4.32 0.16 5 0.16 5.57l0 2.74L0.28 12a22.77 22.77 0 0 0 0.19 3 6 6 0 0 0 0.63 2 2.15 2.15 0 0 0 0.94 0.9 5.25 5.25 0 0 0 1.67 0.45 21.53 21.53 0 0 0 2.74 0.09c2.24 0 5 -0.18 6.28 -0.17a0.31 0.31 0 0 0 0.31 -0.29 0.3 0.3 0 0 0 -0.29 -0.3c-1.34 0 -4.06 0.05 -6.29 0a21.09 21.09 0 0 1 -2.63 -0.17 4.28 4.28 0 0 1 -1.38 -0.4 1.2 1.2 0 0 1 -0.55 -0.54 5.12 5.12 0 0 1 -0.49 -1.71A24.69 24.69 0 0 1 1.3 12V8.31c0 -0.05 -0.05 -3.55 0.05 -4.5a6 6 0 0 1 0.16 -1 1.33 1.33 0 0 1 0.25 -0.47 1.86 1.86 0 0 1 0.78 -0.48 8.62 8.62 0 0 1 1.69 -0.31c0.88 -0.11 1.78 -0.21 2.67 -0.28s1.8 -0.14 2.69 -0.18C10.9 1 12.18 1 13.47 1l3.87 0a7.55 7.55 0 0 1 2.13 0.16 1.63 1.63 0 0 1 0.93 0.75 5.28 5.28 0 0 1 0.51 2 21.7 21.7 0 0 1 0 3.32 0.35 0.35 0 0 0 0.31 0.37 0.33 0.33 0 0 0 0.36 -0.3 20.81 20.81 0 0 0 0.06 -3.45Z" fill="#000000" fill-rule="evenodd" stroke-width="1"></path>
    <path d="m18.21 4.61 -4.34 0c-1.71 0 -3.43 0.05 -5.15 0.12 -2.37 0.08 -4.46 0.22 -6.84 0.29 -0.44 0.11 -0.41 0.69 0 0.69 2.39 0.1 4.48 0.13 6.87 0.11 1.72 0 3.44 -0.09 5.16 -0.15 1.43 -0.08 2.89 -0.12 4.34 -0.22 0.83 -0.06 1.66 -0.15 2.48 -0.28 0.12 -0.2 0.08 -0.59 -0.45 -0.57a17.83 17.83 0 0 1 -2.07 0.01Z" fill="#000000" fill-rule="evenodd" stroke-width="1"></path>
    <path d="M3.71 4a1 1 0 0 0 0.7 -1 0.87 0.87 0 0 0 -0.9 -0.8 1.28 1.28 0 0 0 -0.51 0.27 0.93 0.93 0 0 0 -0.3 0.35A0.88 0.88 0 0 0 3.71 4Z" fill="#000000" fill-rule="evenodd" stroke-width="1"></path>
    <path d="M3.6 3Z" fill="#000000" fill-rule="evenodd" stroke-width="1"></path>
    <path d="M6.57 3.7a0.85 0.85 0 0 0 0.51 -0.8 0.8 0.8 0 0 0 -0.43 -0.71C6.2 2 6.1 2 6 2.09a2 2 0 0 0 -0.38 0.2 0.77 0.77 0 0 0 -0.26 0.35 0.78 0.78 0 0 0 0.23 0.92 0.93 0.93 0 0 0 0.98 0.14Z" fill="#000000" fill-rule="evenodd" stroke-width="1"></path>
  </g>
</svg>