<svg xmlns="http://www.w3.org/2000/svg" viewBox="0 0 24 24" id="E-Learning-Global-Certificate--Streamline-Freehand">
  <desc>
    E Learning Global Certificate Streamline Icon: https://streamlinehq.com
  </desc>
  <g>
    <g>
      <path d="M19.06 6.64a5.1 5.1 0 0 0 -0.52 -1.34 14.45 14.45 0 0 0 -1.12 -1.8 6.65 6.65 0 0 0 -1 -1 8.57 8.57 0 0 0 -2 -1.27 10.77 10.77 0 0 0 -2.26 -0.75A15.13 15.13 0 0 0 9.67 0.17a11 11 0 0 0 -2.55 0.2A7.67 7.67 0 0 0 3 2.83 11.06 11.06 0 0 0 0.67 7a13.13 13.13 0 0 0 -0.39 6.3 7.91 7.91 0 0 0 3.49 5.22 8.46 8.46 0 0 0 1.23 0.65 14.41 14.41 0 0 0 1.92 0.64 7.87 7.87 0 0 0 1.57 0.29 10.08 10.08 0 0 0 5.39 -1.57c0.6 -0.22 0.46 -0.74 -0.06 -0.74C11.63 19 8.83 19.67 7.14 19c-0.49 -0.19 -1 -0.33 -1.51 -0.53a8.15 8.15 0 0 1 -1.37 -0.73 7.13 7.13 0 0 1 -3 -4.68 13 13 0 0 1 0.44 -5.75 10.62 10.62 0 0 1 2.05 -3.8 6.7 6.7 0 0 1 3.59 -2.15 12.44 12.44 0 0 1 4.66 0 9.33 9.33 0 0 1 2.08 0.59A7.91 7.91 0 0 1 15.94 3a5 5 0 0 1 0.93 0.91s1.05 1.6 1.13 1.71a4.54 4.54 0 0 1 0.49 1.16 5.82 5.82 0 0 1 0.15 1.27 0.29 0.29 0 1 0 0.57 0 5.9 5.9 0 0 0 -0.15 -1.41Z" fill="#000000" fill-rule="evenodd" stroke-width="1"></path>
      <path d="M12 4c-0.12 -0.21 -0.23 -0.42 -0.36 -0.62 -0.47 -0.76 -1.21 -1.21 -1.71 -1.95a0.86 0.86 0 0 0 -1.23 0 10.07 10.07 0 0 0 -2.2 3c-1.14 0.13 -2.1 0.3 -3.24 0.44 -0.59 0.1 -0.67 0.54 -0.38 0.69l3.23 -0.13c-0.08 0.21 -0.18 0.42 -0.25 0.65a13 13 0 0 0 -0.56 3.39v0.27c-1.32 0.06 -2.37 0.11 -3.71 0.08 -0.32 0.07 -0.3 0.57 0 0.61a36.89 36.89 0 0 0 3.77 0.33 13.67 13.67 0 0 0 0.31 2.13A7.83 7.83 0 0 0 6 14c0.11 0.29 0.23 0.57 0.35 0.86h-1c-1.09 0 -1.84 0.08 -2.92 0.13 -0.33 0.09 -0.22 0.55 0.34 0.68 0.8 0.09 1.29 0.19 2.11 0.24l1.39 0 0.55 0a17.09 17.09 0 0 0 1 2.08 5.12 5.12 0 0 0 0.68 1c0.29 0.31 0.81 0.21 0.73 -0.1a5.1 5.1 0 0 1 -0.76 -1.24 14.33 14.33 0 0 1 -0.73 -1.77c1.07 -0.07 2.13 -0.2 3.18 -0.35a0.31 0.31 0 0 0 0.29 -0.35 0.32 0.32 0 0 0 -0.35 -0.29l-3.29 0h-0.25c-0.15 -0.4 -0.29 -0.79 -0.42 -1.19a9.65 9.65 0 0 1 -0.26 -1 13.15 13.15 0 0 1 -0.22 -1.9c1 0 2 -0.06 3 -0.13s2.19 -0.19 3.28 -0.29a20.12 20.12 0 0 1 0.13 2 0.32 0.32 0 0 0 0.31 0.34 0.34 0.34 0 0 0 0.34 -0.31c0 -0.7 0.08 -1.42 0.07 -2.14l0.62 0a0.31 0.31 0 0 0 0.31 -0.33 0.32 0.32 0 0 0 -0.33 -0.32h-0.63a13.43 13.43 0 0 0 -0.13 -1.41 13.51 13.51 0 0 0 -0.72 -2.78c0 -0.12 -0.12 -0.23 -0.17 -0.35l4.31 -0.19c0.58 -0.13 0.14 -0.64 -0.36 -0.69ZM9.38 1.89c0.44 0.83 1 1.13 1.46 2a2 2 0 0 0 0.1 0.21c-1.07 0 -2.14 0.11 -3.21 0.21l-0.15 0a7.47 7.47 0 0 1 1.8 -2.42ZM12.54 9c0 0.2 0 0.39 0.07 0.58l-3.75 0 -2.46 0.12a1.21 1.21 0 0 1 0 -0.19 14 14 0 0 1 0.44 -3.15c0.09 -0.33 0.2 -0.65 0.31 -1l0.67 0 3.57 -0.27c0.1 0.23 0.19 0.45 0.28 0.68A15.59 15.59 0 0 1 12.54 9Z" fill="#000000" fill-rule="evenodd" stroke-width="1"></path>
    </g>
    <path d="M23.83 13.28a1.76 1.76 0 0 0 -0.48 -0.71 2.14 2.14 0 0 0 -0.67 -0.43c-0.06 0 -0.17 -0.1 -0.27 -0.14a2.33 2.33 0 0 0 -0.06 -0.25 2.09 2.09 0 0 0 -0.21 -0.54 1.42 1.42 0 0 0 -0.39 -0.48 1.57 1.57 0 0 0 -0.75 -0.33 1.81 1.81 0 0 0 -0.79 0.09l-0.41 0.17a2.8 2.8 0 0 0 -0.83 -0.68 1.09 1.09 0 0 0 -1 0.19l-0.39 0.32a1.37 1.37 0 0 0 -0.13 0.2 1.68 1.68 0 0 0 -1.48 0 1.83 1.83 0 0 0 -0.86 1.31 5.5 5.5 0 0 0 -0.1 0.85 4.27 4.27 0 0 0 -0.6 0.71 1.61 1.61 0 0 0 -0.22 0.74 1.84 1.84 0 0 0 0.18 1 3.34 3.34 0 0 0 0.71 0.82l-0.06 0.6a2.22 2.22 0 0 0 0.26 0.9 2 2 0 0 0 0.64 0.73 1.55 1.55 0 0 0 0.29 0.14c0.05 0.47 0.1 0.93 0.14 1.4s0.07 1.12 0.07 1.69l0 1.37 0 0.39c0.05 0.46 0.57 0.49 0.58 0.49a1.62 1.62 0 0 0 0.76 -0.3 6.72 6.72 0 0 0 1.05 -1l0.11 -0.18 0.06 0.05c0.34 0.27 0.69 0.64 1 0.85l0.39 0.29a0.61 0.61 0 0 0 0.67 0 1.22 1.22 0 0 0 0.36 -0.62 7.17 7.17 0 0 0 0.12 -1.1c0 -0.6 0.05 -1.21 0.05 -1.82l0 -1.78a1.75 1.75 0 0 0 0.8 -0.24 1.66 1.66 0 0 0 0.66 -0.82 1.26 1.26 0 0 0 0.13 -0.67c-0.12 -0.67 0 -1 0.29 -1.23a1.52 1.52 0 0 0 0.42 -0.94 2 2 0 0 0 -0.04 -1.04Zm-3.15 8.48c0 0.15 0 0.38 -0.09 0.61 -0.25 -0.22 -0.55 -0.55 -0.85 -0.8a2.2 2.2 0 0 0 -0.63 -0.37 0.61 0.61 0 0 0 -0.59 0.13c-0.13 0.11 -0.4 0.45 -0.43 0.47a8.43 8.43 0 0 1 -0.67 0.71l-0.12 -1c-0.05 -0.46 -0.11 -0.92 -0.19 -1.38s-0.18 -1 -0.27 -1.53h0.82a2.91 2.91 0 0 0 0.85 0.83 1.53 1.53 0 0 0 1.16 0.09 2.41 2.41 0 0 0 0.65 -0.3 3.87 3.87 0 0 0 0.61 -0.54c0 0.43 0 0.87 -0.07 1.31s-0.11 1.19 -0.18 1.77Zm2.25 -7.62a1.41 1.41 0 0 1 -0.26 0.52c-0.06 0.08 -0.25 0.18 -0.34 0.27a0.86 0.86 0 0 0 -0.21 0.36 5.44 5.44 0 0 0 0 1.21 0.88 0.88 0 0 1 -0.06 0.27 0.63 0.63 0 0 1 -0.31 0.36 2.33 2.33 0 0 1 -0.72 0.06 0.65 0.65 0 0 0 -0.41 0.16c-0.13 0.12 -0.36 0.45 -0.43 0.53a3 3 0 0 1 -0.4 0.39 1.14 1.14 0 0 1 -0.41 0.21 0.49 0.49 0 0 1 -0.47 -0.05 4.87 4.87 0 0 1 -0.57 -0.67 0.71 0.71 0 0 0 -0.36 -0.2 5.16 5.16 0 0 0 -0.59 0 3.57 3.57 0 0 1 -0.57 0 0.64 0.64 0 0 1 -0.36 -0.08 1.07 1.07 0 0 1 -0.33 -0.37 1.25 1.25 0 0 1 -0.17 -0.49l0 -0.33s0 -0.14 0.05 -0.19a0.51 0.51 0 0 0 -0.11 -0.47 3.93 3.93 0 0 1 -0.79 -0.79 1.13 1.13 0 0 1 0 -1.06 6.39 6.39 0 0 1 0.45 -0.53 0.71 0.71 0 0 0 0.16 -0.36c0.05 -0.26 0 -0.67 0.05 -0.82a1.13 1.13 0 0 1 0.43 -0.81 0.88 0.88 0 0 1 1.14 0.24 0.28 0.28 0 0 0 0.36 -0.18l0.24 -0.5 0.25 -0.18c0.2 -0.12 0.34 -0.15 0.46 -0.1 0.29 0.11 0.46 0.48 0.74 0.73a0.45 0.45 0 0 0 0.37 0.07 5.07 5.07 0 0 0 0.57 -0.2 1.12 1.12 0 0 1 0.48 0 0.75 0.75 0 0 1 0.37 0.18 1.14 1.14 0 0 1 0.18 0.25 1.26 1.26 0 0 1 0.1 0.33l0 0.43a0.48 0.48 0 0 0 0.14 0.29 0.89 0.89 0 0 0 0.21 0.16c0.14 0.06 0.33 0.1 0.44 0.15a1.42 1.42 0 0 1 0.39 0.29 0.84 0.84 0 0 1 0.22 0.36 1 1 0 0 1 0.07 0.56Z" fill="#000000" fill-rule="evenodd" stroke-width="1"></path>
    <path d="M20.35 12.56a2.2 2.2 0 0 0 -0.67 -0.33 2.29 2.29 0 0 0 -3.17 1.66 2.49 2.49 0 0 0 1.9 3.11 2.41 2.41 0 0 0 2.82 -1.48 2.46 2.46 0 0 0 -0.88 -2.96Zm0 2.58a1.43 1.43 0 0 1 -1.7 0.79 1.54 1.54 0 0 1 -1.24 -1.86 1.43 1.43 0 0 1 2.07 -1.18 1.5 1.5 0 0 1 0.43 0.26 1.67 1.67 0 0 1 0.43 1.99Z" fill="#000000" fill-rule="evenodd" stroke-width="1"></path>
  </g>
</svg>