<svg xmlns="http://www.w3.org/2000/svg" viewBox="0 0 24 24" id="E-Learning-Bubble-Video-Talk--Streamline-Freehand">
  <desc>
    E Learning Bubble Video Talk Streamline Icon: https://streamlinehq.com
  </desc>
  <g>
    <path d="m7.74 18.58 -0.08 0a3.93 3.93 0 0 0 0.88 -6.2 3.8 3.8 0 0 0 -2.08 -1c-4.88 -0.89 -5 3.29 -4.7 4.51a4.29 4.29 0 0 0 1.66 2.51 5 5 0 0 0 -1.09 0.53 4.87 4.87 0 0 0 -0.73 0.6 7 7 0 0 0 -0.85 1.07 4 4 0 0 0 -0.49 1.07A7.58 7.58 0 0 0 0 23.31a0.3 0.3 0 0 0 0.25 0.32 0.29 0.29 0 0 0 0.32 -0.25 8.4 8.4 0 0 1 0.27 -1.25 3.34 3.34 0 0 1 0.56 -1.05 6.68 6.68 0 0 1 0.68 -0.73 3.62 3.62 0 0 1 0.77 -0.56 4.76 4.76 0 0 1 2.2 -0.64 6.06 6.06 0 0 1 2.31 0.38 6.52 6.52 0 0 1 3.58 3.08 0.32 0.32 0 0 0 0.42 0.18 0.33 0.33 0 0 0 0.17 -0.43 7.18 7.18 0 0 0 -3.79 -3.78ZM6.31 12a3 3 0 0 1 1.61 1 2.91 2.91 0 0 1 0.73 1.48 6 6 0 0 1 -2 -0.11 8.84 8.84 0 0 1 -0.88 -0.25 8.89 8.89 0 0 1 -0.86 -0.32 9 9 0 0 1 -1.79 -0.95c0.88 -1.27 3 -0.85 3.19 -0.85Zm-3.67 3.61a3.53 3.53 0 0 1 0.14 -2.25 6.89 6.89 0 0 0 1.63 1.33 5 5 0 0 0 1 0.43 5.53 5.53 0 0 0 1.06 0.21 5.92 5.92 0 0 0 2.24 -0.21 3.62 3.62 0 0 1 -0.15 0.81 3 3 0 0 1 -2.24 2 3 3 0 0 1 -3.68 -2.32Z" fill="#000000" fill-rule="evenodd" stroke-width="1"></path>
    <path d="m23.9 10.09 0 -2.36c0 -0.65 -0.08 -1.34 -0.18 -2a15.89 15.89 0 0 0 -0.41 -2 3.42 3.42 0 0 0 -2.15 -2.31 17.17 17.17 0 0 0 -4.27 -0.74L15 0.48l-2.44 -0.1 -1.72 0a11.46 11.46 0 0 0 -1.17 0.06 8.88 8.88 0 0 0 -2.29 0.43A4 4 0 0 0 6 1.71a2.07 2.07 0 0 0 -0.58 1.18 12.6 12.6 0 0 0 -0.09 1.7L5.25 9a0.29 0.29 0 1 0 0.57 0L6 4.62A11.16 11.16 0 0 1 6.1 3a1.35 1.35 0 0 1 0.38 -0.76 3.31 3.31 0 0 1 1.16 -0.64 8.68 8.68 0 0 1 2.1 -0.34l1.11 0c0.56 0 1.12 0 1.69 0.05l2.36 0.16 1.85 0.24a16.34 16.34 0 0 1 4 0.67A2.43 2.43 0 0 1 22.22 4a13.61 13.61 0 0 1 0.39 1.86q0.13 1 0.18 1.92l0.05 2.32c0 0.49 0.13 1.21 0.14 1.87a2.27 2.27 0 0 1 -0.15 1 0.64 0.64 0 0 1 -0.43 0.29 4.79 4.79 0 0 1 -0.83 0.18 9.26 9.26 0 0 1 -1.18 0.13c-1 0.06 -2 0 -2.94 0.17a1.11 1.11 0 0 0 -0.54 0.26c-0.25 0.2 -0.52 0.5 -0.67 0.63l-1.89 1.84 -0.51 0.54a2.62 2.62 0 0 1 -0.14 -0.47 13.36 13.36 0 0 1 -0.16 -1.54s0 -0.69 0 -0.94a0.51 0.51 0 0 0 -0.2 -0.36 1.64 1.64 0 0 0 -0.5 -0.17 7.69 7.69 0 0 0 -1 -0.11 0.33 0.33 0 0 0 -0.36 0.29 0.33 0.33 0 0 0 0.29 0.36c0.25 0 0.55 0 0.84 0.08l0.28 0.08 0 0.82a10.36 10.36 0 0 0 0.21 1.92 1.64 1.64 0 0 0 0.5 0.89 0.49 0.49 0 0 0 0.58 -0.07c0.21 -0.18 0.7 -0.69 0.77 -0.76l1.89 -1.76 0.77 -0.66c1.09 -0.13 2.2 0 3.3 -0.12l0.87 -0.09a5.52 5.52 0 0 0 1.18 -0.27 1.53 1.53 0 0 0 0.8 -0.68 2.67 2.67 0 0 0 0.24 -1.14c0 -0.76 -0.09 -1.65 -0.1 -2.22Z" fill="#000000" fill-rule="evenodd" stroke-width="1"></path>
    <path d="M12.08 10c0 0.12 -0.08 0.32 -0.09 0.45a0.62 0.62 0 0 0 0.09 0.44 0.52 0.52 0 0 0 0.54 0.27 3.72 3.72 0 0 0 1.58 -0.54A22.26 22.26 0 0 0 17 8.48c1.26 -1.07 0.93 -0.56 1.24 -1a0.53 0.53 0 0 0 0 -0.59 1.72 1.72 0 0 0 -0.44 -0.54 8.58 8.58 0 0 0 -1 -0.65c-0.4 -0.23 -0.8 -0.44 -1.29 -0.7 -2.89 -1.38 -3 -1.43 -3.21 -1.31s-0.12 0.17 -0.18 4.78Zm3.05 -4.19c0.42 0.23 0.81 0.46 1.13 0.68s0.53 0.32 0.8 0.53l-0.81 0.63c-0.63 0.5 -1.43 1.21 -2.24 1.76a5.58 5.58 0 0 1 -1 0.54L13 8.5l-0.23 -4c0.72 0.42 1.59 0.85 2.36 1.27Z" fill="#000000" fill-rule="evenodd" stroke-width="1"></path>
  </g>
</svg>