<svg xmlns="http://www.w3.org/2000/svg" viewBox="0 0 24 24" id="Fishing-Not-Allowed--Streamline-Freehand">
  <desc>
    Fishing Not Allowed Streamline Icon: https://streamlinehq.com
  </desc>
  <title>fishing-not-allowed</title>
  <g>
    <path d="M23.67 16A8.78 8.78 0 0 0 22 14a9.92 9.92 0 0 0 -2.11 -1.43 13.15 13.15 0 0 0 -1.77 -0.73 12.7 12.7 0 0 0 -1.87 -0.45c-0.21 0 -0.42 0 -0.64 -0.05a2.35 2.35 0 0 0 -0.14 -0.52 1 1 0 0 0 -0.19 -0.34 1.07 1.07 0 0 0 -0.26 -0.26c-0.1 -0.07 -1 -0.63 -1.3 -0.36s0.34 1.32 0.35 1.34l0.11 0.13h-0.55c-0.32 0 -0.63 0.06 -0.94 0.11a5.75 5.75 0 0 0 -0.77 -0.94 4.25 4.25 0 0 0 -0.53 -0.42 3.84 3.84 0 0 0 -0.59 -0.33 11.48 11.48 0 0 0 -1.48 -0.46 0.38 0.38 0 0 0 -0.5 0.16A0.36 0.36 0 0 0 9 10c0.45 0.35 0.83 0.75 1.3 1.09 0.26 0.18 0.54 0.34 0.81 0.51l0.35 0.2a10.49 10.49 0 0 0 -1.47 0.59L9.7 12a1.59 1.59 0 0 0 -0.33 -0.25 1.17 1.17 0 0 0 -0.37 -0.13c-0.13 0 -1.27 -0.28 -1.43 0.07 0 0.11 -0.19 0.28 0.81 1.11a1.42 1.42 0 0 0 0.28 0.2l0.16 0.07a11.63 11.63 0 0 0 -1.77 1.46 19.92 19.92 0 0 0 -2.25 2.71l-0.73 -1a25.74 25.74 0 0 1 -1.83 -2.74 14.37 14.37 0 0 1 -1.29 -3 0.36 0.36 0 0 0 -0.46 -0.25 0.36 0.36 0 0 0 -0.25 0.45 16 16 0 0 0 1.28 3.2 24.53 24.53 0 0 0 1.81 2.9c0.3 0.43 0.59 0.86 0.9 1.29 -1.18 1.76 -2.23 3.64 -3.18 5.28a0.42 0.42 0 1 0 0.71 0.43c1 -1.52 2 -3.25 3.07 -4.9 0.19 0.24 0.39 0.48 0.59 0.7a10.74 10.74 0 0 0 1.91 1.64 17.13 17.13 0 0 0 2.14 1.26 11.9 11.9 0 0 0 4 1.3 7.81 7.81 0 0 0 4.26 -0.65 6.43 6.43 0 0 0 1.39 -0.89 15.07 15.07 0 0 0 1.66 -1.63 30.3 30.3 0 0 0 1.57 -1.86 16.37 16.37 0 0 0 1.35 -2.07 0.7 0.7 0 0 0 -0.03 -0.7Zm-2.45 1.92c-0.47 0.61 -1 1.19 -1.49 1.77a13.28 13.28 0 0 1 -1.5 1.5 5.15 5.15 0 0 1 -1.09 0.72 6.56 6.56 0 0 1 -3.54 0.61 10.74 10.74 0 0 1 -3.6 -1.07 17.7 17.7 0 0 1 -2 -1.12 10.26 10.26 0 0 1 -1.83 -1.43c-0.26 -0.27 -0.5 -0.55 -0.74 -0.84a19.84 19.84 0 0 1 2.38 -2.76 9 9 0 0 1 5.91 -2.7 13.64 13.64 0 0 1 1.43 0 5.75 5.75 0 0 1 0.92 0.1 9.92 9.92 0 0 1 1.64 0.43 11.09 11.09 0 0 1 1.57 0.68 8.21 8.21 0 0 1 1.81 1.25 7 7 0 0 1 1.16 1.33 14.61 14.61 0 0 1 -1.03 1.53Z" fill="#000000" fill-rule="evenodd" stroke-width="1"></path>
    <path d="M16.13 17.48c0 -0.31 0 -0.61 0.06 -0.92a6.45 6.45 0 0 1 0.65 -2.2 0.37 0.37 0 0 0 -0.61 -0.42 6.17 6.17 0 0 0 -1.35 2.35 4.07 4.07 0 0 0 -0.15 1.2 4.19 4.19 0 0 0 0.19 1.21 5.33 5.33 0 0 0 1.5 2.3 0.42 0.42 0 0 0 0.62 -0.56 4.62 4.62 0 0 1 -0.91 -2.96Z" fill="#000000" fill-rule="evenodd" stroke-width="1"></path>
    <path d="M16.12 1.56c0.6 0.77 1.13 1.59 1.7 2.38l0.18 0.26 -0.13 0.14c-0.92 1 -1.71 2.13 -2.56 3.21a0.37 0.37 0 0 0 0 0.52 0.39 0.39 0 0 0 0.52 0c1 -0.93 2.05 -1.8 3 -2.76l0.24 0.27c0.46 0.52 0.95 1 1.4 1.54s0.75 0.91 1.08 1.39a0.42 0.42 0 0 0 0.82 -0.51 21.7 21.7 0 0 0 -1.61 -2.62c-0.28 -0.4 -0.56 -0.79 -0.86 -1.16 0.28 -0.32 0.57 -0.64 0.86 -1l1.3 -1.55c0.15 -0.18 0.31 -0.4 0.5 -0.59a1.69 1.69 0 0 1 0.32 -0.28 0.41 0.41 0 0 0 -0.39 -0.73 2.57 2.57 0 0 0 -0.49 0.42c-0.22 0.18 -0.43 0.39 -0.62 0.56L19.84 2.4l-0.84 0.8 -0.12 -0.2c-0.59 -0.6 -1.15 -1.23 -1.75 -1.82A11.86 11.86 0 0 0 15.8 0.09a0.35 0.35 0 0 0 -0.51 0 0.37 0.37 0 0 0 0 0.52 8.68 8.68 0 0 1 0.83 0.95Z" fill="#000000" fill-rule="evenodd" stroke-width="1"></path>
    <path d="M18.45 16a0.63 0.63 0 1 0 0.62 0.62 0.63 0.63 0 0 0 -0.62 -0.62Z" fill="#000000" fill-rule="evenodd" stroke-width="1"></path>
  </g>
</svg>