<svg xmlns="http://www.w3.org/2000/svg" viewBox="0 0 24 24" id="Geometric-Religion-Woman-Christian-Sister-1--Streamline-Freehand">
  <desc>
    Geometric Religion Woman Christian Sister 1 Streamline Icon: https://streamlinehq.com
  </desc>
  <g>
    <path d="M8.37 9.64a2.2 2.2 0 0 1 0.76 -0.33 1.72 1.72 0 0 1 0.37 -0.07l0.25 0a1.25 1.25 0 0 1 0.62 0.18 0.34 0.34 0 0 0 0.48 0 0.34 0.34 0 0 0 0 -0.48 1.76 1.76 0 0 0 -1.23 -0.79 1.08 1.08 0 0 0 -0.4 0 1.31 1.31 0 0 0 -0.54 0.2 2.12 2.12 0 0 0 -0.77 0.94 0.3 0.3 0 1 0 0.47 0.37Z" fill="#000000" fill-rule="evenodd" stroke-width="1"></path>
    <path d="M13.37 9.6a1.63 1.63 0 0 1 0.72 -0.38l0.21 0a1 1 0 0 1 0.85 0.4 0.34 0.34 0 0 0 0.46 0.13 0.36 0.36 0 0 0 0.13 -0.47 1.8 1.8 0 0 0 -1 -1.13 1.3 1.3 0 0 0 -1.1 0.12 1.93 1.93 0 0 0 -0.76 1 0.3 0.3 0 0 0 0.09 0.41 0.29 0.29 0 0 0 0.4 -0.08Z" fill="#000000" fill-rule="evenodd" stroke-width="1"></path>
    <path d="M10.1 11a0.3 0.3 0 0 0 0 0.42 2.58 2.58 0 0 0 1.06 1 1.59 1.59 0 0 0 0.63 0.16 1.85 1.85 0 0 0 0.66 -0.06 2.64 2.64 0 0 0 1.22 -0.75 0.33 0.33 0 0 0 0.06 -0.47 0.34 0.34 0 0 0 -0.47 -0.07 2.1 2.1 0 0 1 -1.37 0.22c-0.13 0 -0.26 0 -0.38 -0.06a2.28 2.28 0 0 1 -1 -0.35 0.3 0.3 0 0 0 -0.41 -0.04Z" fill="#000000" fill-rule="evenodd" stroke-width="1"></path>
    <g>
      <path d="m15.07 17 -0.31 0.23 -0.89 0.71c-0.3 0.24 -0.58 0.48 -0.9 0.71 -1 0.72 -0.93 0.49 -1.33 0.32s-1 -0.6 -1.45 -0.91c-0.21 -0.13 -0.41 -0.26 -0.63 -0.38l-0.63 -0.35 -0.82 -0.4c-0.7 -0.09 -0.92 0.13 0 1.12l0.25 0.21a5.35 5.35 0 0 0 0.64 0.41 7.33 7.33 0 0 0 0.69 0.34 16.08 16.08 0 0 0 1.69 0.58 0.34 0.34 0 0 0 0.26 0 12.28 12.28 0 0 0 -0.28 1.2l-0.95 0a0.31 0.31 0 0 0 -0.38 0.18 0.3 0.3 0 0 0 0.18 0.38 4.87 4.87 0 0 0 1 0.54l0.1 0a1.34 1.34 0 0 1 0 0.2c0 0.45 0.11 0.89 0.16 1.34a0.34 0.34 0 1 0 0.67 0c0.09 -0.45 0.18 -0.89 0.24 -1.35a0.57 0.57 0 0 1 0 -0.13 6.35 6.35 0 0 0 0.86 -0.12 0.34 0.34 0 0 0 0.34 -0.34 0.34 0.34 0 0 0 -0.34 -0.34c-0.29 0 -0.56 -0.13 -0.83 -0.2 0 -0.37 -0.1 -0.72 -0.15 -1.08a8.94 8.94 0 0 0 2 -0.87 5.77 5.77 0 0 0 0.77 -0.52l0.05 0c1.25 -1.68 0.86 -1.8 -0.01 -1.48Z" fill="#000000" fill-rule="evenodd" stroke-width="1"></path>
      <path d="M24.19 23a25.35 25.35 0 0 0 -0.87 -2.92c-1.32 -3.72 -3.49 -9.32 -4.07 -11.25 -0.4 -1.32 -0.66 -2.72 -1.15 -4a7.66 7.66 0 0 0 -1.51 -2.52 7.35 7.35 0 0 0 -2 -1.46A7.91 7.91 0 0 0 12.2 0.07a6 6 0 0 0 -4 0.83A6.67 6.67 0 0 0 5.47 4a18.34 18.34 0 0 0 -0.71 2.13C4.47 7.19 4.24 8.25 4 9.32c-0.38 1.43 -2 6 -3.07 9.55A27 27 0 0 0 -0.2 23.1c0 0.3 -0.21 0.21 2.82 0.63a9.77 9.77 0 0 0 1.62 0.08 7 7 0 0 0 2.68 -0.66 0.33 0.33 0 0 0 0.22 -0.31s0 -0.07 0 -0.11c0 -0.89 0.27 -5.35 0.12 -8.38 0 -0.41 0 -0.82 -0.07 -1.23a5.93 5.93 0 0 0 2.35 1.78 6.93 6.93 0 0 0 3.69 0.44 5.19 5.19 0 0 0 1.6 -0.53 4 4 0 0 0 1.22 -1l0 0.63 0 1.54c0.22 4.31 0.66 6.41 0.55 6.87a0.29 0.29 0 0 0 0.23 0.36 17 17 0 0 0 2.37 0.65 8.86 8.86 0 0 0 1.05 0.13l1 0a10.61 10.61 0 0 0 2.49 -0.31c0.37 -0.04 0.52 -0.3 0.45 -0.68Zm-18.72 -0.29a10.3 10.3 0 0 1 -1.24 0l-1.26 0 -2.49 0c0.18 -0.83 0.58 -2.12 1.07 -3.58 1.2 -3.6 2.93 -8.13 3.35 -9.55 0.31 -1.05 0.56 -2.11 0.87 -3.15 0.08 -0.28 0.17 -0.55 0.27 -0.82l0 0.33C6 7.09 6 8.28 6 9.25a10.26 10.26 0 0 0 0.21 1.92 1.86 1.86 0 0 0 0.1 0.31c0 1 -0.09 1.92 -0.11 2.88l0 1.94c0 0.65 0 1.28 0.06 1.93 0.06 1.44 0.15 2.88 0.22 4.33a6 6 0 0 1 -1.01 0.15ZM6.71 6a19.87 19.87 0 0 1 0.09 -2.17 5.6 5.6 0 0 1 1.94 -2A5 5 0 0 1 12 1.19a7.41 7.41 0 0 1 2 0.68 6.51 6.51 0 0 1 1.73 1.22l0.29 0.34a0.36 0.36 0 0 0 0 0.11c0 0.85 0.06 1.89 0.12 3a7.19 7.19 0 0 0 -3.32 -1.15 8.9 8.9 0 0 0 -2.61 0.19 20.5 20.5 0 0 0 -3.48 1.24c-0.01 -0.29 -0.02 -0.58 -0.02 -0.82Zm9.5 3.56a6.66 6.66 0 0 1 -1 3.54 2.78 2.78 0 0 1 -0.95 0.77 4 4 0 0 1 -1.24 0.39 6 6 0 0 1 -3.02 -0.4 5.15 5.15 0 0 1 -2.38 -2 3.67 3.67 0 0 1 -0.44 -1 22.78 22.78 0 0 1 -0.4 -3.52s0.06 0 0.1 0a32.27 32.27 0 0 1 3.58 -0.76 12.44 12.44 0 0 1 2.35 -0.16 7.32 7.32 0 0 1 3.42 0.92c0.01 0.77 0.02 1.48 -0.02 2.17ZM22.38 23c-0.42 0 -0.87 -0.09 -1.33 -0.14l-1.35 -0.12c-0.88 -0.06 -1.71 -0.08 -2.39 -0.14a0.36 0.36 0 0 0 0 -0.11c0 -2.17 -0.06 -4.34 -0.12 -6.51 0 -0.72 -0.05 -1.44 -0.08 -2.16s-0.08 -1.44 -0.1 -2.16l0 -0.61c0 -0.21 0.05 -0.33 0.06 -0.51a37 37 0 0 0 -0.3 -6 7.09 7.09 0 0 1 0.32 0.69c0.5 1.25 0.79 2.6 1.2 3.9 0.62 1.91 3 7.49 4.33 11.23 0.4 1.11 0.72 2.05 0.87 2.68a8.48 8.48 0 0 1 -1.11 -0.04Z" fill="#000000" fill-rule="evenodd" stroke-width="1"></path>
    </g>
  </g>
</svg>