<svg xmlns="http://www.w3.org/2000/svg" viewBox="0 0 24 24" id="Geometric-Religion-Man-Christian--Streamline-Freehand">
  <desc>
    Geometric Religion Man Christian Streamline Icon: https://streamlinehq.com
  </desc>
  <g>
    <path d="M11.09 13.24a0.34 0.34 0 0 0 0.08 -0.47 4.71 4.71 0 0 0 -0.32 -0.58 1.76 1.76 0 0 0 -0.39 -0.38 1.4 1.4 0 0 0 -1.41 -0.07 1 1 0 0 0 -0.33 0.23 2.38 2.38 0 0 0 -0.65 1.23 0.28 0.28 0 0 0 0.15 0.38 0.31 0.31 0 0 0 0.39 -0.16 2.2 2.2 0 0 1 0.62 -0.54 1.4 1.4 0 0 1 0.42 -0.18 0.59 0.59 0 0 1 0.35 0 0.78 0.78 0 0 1 0.29 0.14c0.12 0.1 0.22 0.21 0.33 0.32a0.34 0.34 0 0 0 0.47 0.08Z" fill="#000000" stroke-width="1"></path>
    <path d="M12.87 13.09a4 4 0 0 1 0.41 -0.41 1.08 1.08 0 0 1 0.41 -0.17 0.39 0.39 0 0 1 0.3 0 1.54 1.54 0 0 1 0.32 0.15 1.79 1.79 0 0 1 0.51 0.52 0.34 0.34 0 0 0 0.62 -0.26 2.39 2.39 0 0 0 -0.88 -1.34 1.31 1.31 0 0 0 -1.34 -0.06 2.08 2.08 0 0 0 -0.5 0.48 3.57 3.57 0 0 0 -0.37 0.79 0.32 0.32 0 0 0 0.12 0.41 0.31 0.31 0 0 0 0.4 -0.11Z" fill="#000000" stroke-width="1"></path>
    <path d="M12.36 15.89a2.11 2.11 0 0 0 1.14 -1.17 0.34 0.34 0 0 0 -0.09 -0.46 0.34 0.34 0 0 0 -0.47 0.1 1.79 1.79 0 0 1 -0.71 0.44 2.23 2.23 0 0 1 -0.23 0 1 1 0 0 1 -0.3 0 1.27 1.27 0 0 1 -0.43 -0.12 1.32 1.32 0 0 1 -0.2 -0.12 1.14 1.14 0 0 1 -0.19 -0.19 0.3 0.3 0 0 0 -0.52 0.28 3.27 3.27 0 0 0 0.14 0.33 2.09 2.09 0 0 0 0.21 0.34 1.64 1.64 0 0 0 0.69 0.54 1.38 1.38 0 0 0 0.96 0.03Z" fill="#000000" stroke-width="1"></path>
    <path d="m10.66 5.53 0.65 0.1 0 0.57c0.05 0.54 0.15 1 0.21 1.59a0.33 0.33 0 1 0 0.66 0c0.08 -0.53 0.16 -1 0.19 -1.58l0 -0.61c0.3 -0.05 0.58 -0.12 0.87 -0.16a0.34 0.34 0 0 0 0.36 -0.31 0.34 0.34 0 0 0 -0.31 -0.36 8.17 8.17 0 0 0 -1 -0.22c-0.06 -0.41 -0.15 -0.82 -0.21 -1.23a0.29 0.29 0 0 0 -0.29 -0.3 0.29 0.29 0 0 0 -0.29 0.29c-0.07 0.45 -0.15 0.89 -0.19 1.34a8 8 0 0 0 -0.77 0.29 0.29 0.29 0 0 0 -0.25 0.33 0.29 0.29 0 0 0 0.37 0.26Z" fill="#000000" stroke-width="1"></path>
    <path d="M20.26 20a13.11 13.11 0 0 0 -4.46 -2.22q-0.57 -0.16 -1.14 -0.3a4.74 4.74 0 0 0 1.66 -1.3 5.7 5.7 0 0 0 1 -2.23c0.3 -1.34 0.18 -3.14 0.28 -3.13s0.37 0 0.45 -0.14A5.22 5.22 0 0 0 18 5.31a10.6 10.6 0 0 0 -2 -2.53A22.84 22.84 0 0 0 12.06 0.05a0.29 0.29 0 0 0 -0.41 0.08s-0.08 0 -0.11 0A36.84 36.84 0 0 0 7.7 3a9.92 9.92 0 0 0 -2.07 2.59A5.22 5.22 0 0 0 5.69 11a0.29 0.29 0 0 0 0.35 0.15 10.34 10.34 0 0 0 0.24 2.67 6 6 0 0 0 1.1 2.32 4.79 4.79 0 0 0 1.68 1.28 11.93 11.93 0 0 0 -4 1.77 8.52 8.52 0 0 0 -3.16 4.08 0.3 0.3 0 0 0 0.17 0.38 0.29 0.29 0 0 0 0.38 -0.16 7.85 7.85 0 0 1 3.13 -3.55c0.2 -0.13 0.43 -0.24 0.64 -0.36 0 0.36 -0.07 0.71 -0.08 1.07s0 0.48 0 0.71 0 0.47 0.08 0.7c0.09 0.55 0.21 1.07 0.29 1.62a0.34 0.34 0 1 0 0.67 0c0 -0.56 0.09 -1.1 0.1 -1.66l0 -0.71a5.35 5.35 0 0 0 -0.08 -0.7c-0.07 -0.46 -0.18 -0.9 -0.27 -1.34a11.74 11.74 0 0 1 1.58 -0.57c0.12 0.21 0.24 0.42 0.37 0.63s0.41 0.61 0.63 0.91l1.37 1.95c0.09 0.12 0.77 1 1 1.07a0.55 0.55 0 0 0 0.53 -0.21 4.21 4.21 0 0 0 0.35 -0.48c0.19 -0.34 0.32 -0.72 0.5 -1.05 0.32 -0.66 0.65 -1.36 1 -2a9.13 9.13 0 0 1 0.53 -0.84l0.71 0.16c0.45 0.13 0.89 0.26 1.3 0.4a7.39 7.39 0 0 0 -0.24 1.47 7.25 7.25 0 0 0 0.07 1.23c0.09 0.59 0.24 1.17 0.36 1.77a0.34 0.34 0 0 0 0.36 0.3 0.34 0.34 0 0 0 0.31 -0.36l0 -2c0 -0.39 0 -0.77 -0.05 -1.16l-0.09 -1a9.08 9.08 0 0 1 2.19 1.17A4.47 4.47 0 0 1 21.46 23a0.33 0.33 0 0 0 0.4 0.24 0.35 0.35 0 0 0 0.25 -0.41A5.19 5.19 0 0 0 20.26 20ZM6.58 6.14a13.07 13.07 0 0 1 1.88 -2.33c1.12 -1.14 2.37 -2.23 3.43 -3.15a29.11 29.11 0 0 1 3.29 2.9A12.79 12.79 0 0 1 17 5.86a4.66 4.66 0 0 1 0.68 3.9 23.47 23.47 0 0 0 -3 -0.16c-1 0 -2 0.07 -3 0.11 -0.54 0.06 -1.08 0.1 -1.62 0.14 -3.05 0.24 -3.71 0.19 -4 0.3 -0.06 0.03 -0.82 -1.76 0.52 -4.01Zm0.34 6.93a10.81 10.81 0 0 1 -0.23 -2.2l3.42 0c0.55 0 1.1 0 1.65 -0.06l1.66 -0.14c0.83 -0.09 1.65 -0.19 2.47 -0.24l1 0a14.39 14.39 0 0 1 -0.36 3.3 4.82 4.82 0 0 1 -1 1.83A4.71 4.71 0 0 1 11.86 17a5 5 0 0 1 -3.72 -1.43 5.59 5.59 0 0 1 -1.22 -2.5ZM13.58 19c-0.46 0.64 -0.86 1.32 -1.26 2 -0.14 0.22 -0.26 0.46 -0.39 0.7l-0.18 -0.22 -1.56 -1.79c-0.25 -0.26 -0.49 -0.52 -0.72 -0.8 -0.1 -0.12 -0.18 -0.24 -0.27 -0.36 0.29 -0.06 0.58 -0.13 0.89 -0.17a10.2 10.2 0 0 1 2.7 -0.07c0.41 0 0.82 0.1 1.22 0.18 -0.15 0.16 -0.3 0.36 -0.43 0.53Z" fill="#000000" stroke-width="1"></path>
  </g>
</svg>