<svg xmlns="http://www.w3.org/2000/svg" viewBox="0 0 24 24" id="Geometric-Religion-Man-Christian-1--Streamline-Freehand">
  <desc>
    Geometric Religion Man Christian 1 Streamline Icon: https://streamlinehq.com
  </desc>
  <g>
    <path d="M12.51 15.06a2.39 2.39 0 0 1 -0.77 0.13l-0.32 0a3.93 3.93 0 0 1 -0.48 -0.06 3.2 3.2 0 0 1 -0.94 -0.23 0.29 0.29 0 1 0 -0.35 0.47 2.87 2.87 0 0 0 1 0.77 1.57 1.57 0 0 0 0.55 0.13 1.54 1.54 0 0 0 0.57 0 2.7 2.7 0 0 0 1.11 -0.6 0.33 0.33 0 0 0 -0.35 -0.57Z" fill="#000000" fill-rule="evenodd" stroke-width="1"></path>
    <path d="M9.08 9.93a1 1 0 0 0 -0.42 0 1.08 1.08 0 0 0 -0.59 0.23 1.62 1.62 0 0 0 -0.55 1.06 0.29 0.29 0 0 0 0.54 0.22 0.86 0.86 0 0 1 0.72 -0.44 0.9 0.9 0 0 1 0.78 0.24 0.34 0.34 0 1 0 0.53 -0.41 1.77 1.77 0 0 0 -1.01 -0.9Z" fill="#000000" fill-rule="evenodd" stroke-width="1"></path>
    <path d="M14.37 10a1 1 0 0 0 -0.46 -0.1 1.3 1.3 0 0 0 -0.66 0.15 2.07 2.07 0 0 0 -0.83 1 0.29 0.29 0 0 0 0.06 0.41 0.3 0.3 0 0 0 0.41 -0.06 1.64 1.64 0 0 1 0.76 -0.36 0.93 0.93 0 0 1 0.23 0 1 1 0 0 1 0.87 0.48 0.33 0.33 0 0 0 0.45 0.13 0.34 0.34 0 0 0 0.14 -0.45 1.89 1.89 0 0 0 -0.97 -1.2Z" fill="#000000" fill-rule="evenodd" stroke-width="1"></path>
    <path d="M12.57 3.45a1.5 1.5 0 0 0 -0.69 -0.24 2.26 2.26 0 0 0 -1 0.15 0.25 0.25 0 0 0 -0.14 0.08l-0.24 0.13a1.58 1.58 0 0 0 -0.61 2.09 1.8 1.8 0 0 0 3.43 -0.44 1.78 1.78 0 0 0 -0.75 -1.77ZM12.36 5a0.84 0.84 0 0 1 -1.54 0.18 0.8 0.8 0 0 1 0.12 -1.08 0.74 0.74 0 0 1 0.22 -0.1l0.05 0a1.42 1.42 0 0 1 0.46 0 0.69 0.69 0 0 1 0.4 0.17 0.88 0.88 0 0 1 0.29 0.83Z" fill="#000000" fill-rule="evenodd" stroke-width="1"></path>
    <path d="M2.75 13.77c0.16 -0.87 0.32 -1.73 0.47 -2.61s0.3 -1.74 0.43 -2.61 0.23 -1.47 0.35 -2.2c0.32 -1.39 -0.45 -1.79 -0.7 -1 -0.3 1.28 -0.62 2.57 -0.87 3.88s-0.49 2.79 -0.7 4.2c-0.3 2.1 -0.55 4.21 -0.83 6.31a0.33 0.33 0 1 0 0.66 0.11c0.44 -2.02 0.81 -4.05 1.19 -6.08Z" fill="#000000" fill-rule="evenodd" stroke-width="1"></path>
    <path d="M22.26 14.83c-0.21 -1.3 -0.38 -2.63 -0.61 -3.93 -0.15 -0.89 -0.35 -1.77 -0.56 -2.63 -0.6 -1.91 -1 -3.2 -1.23 -4.11 -0.53 -1 -0.85 -0.1 -0.49 1.16l0.68 3.19L21.28 15l1.16 5.52a0.33 0.33 0 0 0 0.66 -0.1Z" fill="#000000" fill-rule="evenodd" stroke-width="1"></path>
    <g>
      <path d="M5.25 9.05c0.79 0.64 8.37 0.5 12.67 0.19 0.2 -0.89 0.38 -1.78 0.54 -2.68 0.2 -1.14 0.32 -2 0.68 -4.45a3 3 0 0 0 -1 -0.67 9.28 9.28 0 0 0 -1 -0.45c-0.51 -0.18 -1 -0.33 -1.54 -0.48A14.13 14.13 0 0 0 11.42 0a17.15 17.15 0 0 0 -4.13 0.6c-0.54 0.16 -1.12 0.3 -1.66 0.51a4.71 4.71 0 0 0 -1.11 0.59 1.43 1.43 0 0 0 -0.63 1.12c0 0.21 1 5 1.07 5.13 0.04 0.37 0.19 0.73 0.29 1.1Zm-0.18 -6.57A3.9 3.9 0 0 1 6 2.06c0.52 -0.18 1.08 -0.29 1.6 -0.42a17.13 17.13 0 0 1 3.87 -0.52 14.34 14.34 0 0 1 3.86 0.41c0.49 0.13 1 0.25 1.48 0.41a6.66 6.66 0 0 1 0.91 0.37s0.27 0.21 0.45 0.29c-0.13 1.29 -0.25 2.57 -0.44 3.85C17.31 9 17.3 8.86 17 8.78a2.84 2.84 0 0 0 -0.49 -0.1l-1.05 -0.12c-0.57 -0.08 -1.15 -0.16 -1.72 -0.21s-1.16 -0.09 -1.75 -0.12 -1 0 -1.59 0 -1.07 0 -1.61 0.07a15.36 15.36 0 0 0 -2.92 0.51c-0.12 -0.5 -0.23 -1 -0.32 -1.5 -0.17 -1 -0.31 -2.11 -0.49 -3.18a5.76 5.76 0 0 1 -0.26 -1.25 0.53 0.53 0 0 1 0.27 -0.4Z" fill="#000000" fill-rule="evenodd" stroke-width="1"></path>
      <path d="M21.63 23.55a12.58 12.58 0 0 0 -1.05 -2.62 5.9 5.9 0 0 0 -1.2 -1.54 4.61 4.61 0 0 0 -2.63 -1.17l0.16 -0.27a8.65 8.65 0 0 0 0.92 -3.42 30.81 30.81 0 0 0 -0.11 -4.62c-0.32 -0.67 -0.86 -0.46 -0.92 0a2.82 2.82 0 0 1 -0.15 0.7 6.22 6.22 0 0 1 -0.29 0.71c-0.08 0.15 -0.16 0.29 -0.25 0.43s-0.31 0.43 -0.47 0.64l-0.59 0.66 -0.53 0.39a0.83 0.83 0 0 1 -0.71 0.06 4 4 0 0 1 -0.94 -0.74 2.25 2.25 0 0 0 -1.61 -0.65 3 3 0 0 0 -1.53 0.66 4.48 4.48 0 0 1 -1 0.66 0.72 0.72 0 0 1 -0.68 0L7.51 13 7 12.42a2.85 2.85 0 0 1 -0.33 -0.42 3.16 3.16 0 0 1 -0.22 -0.5L6 9.91c-0.14 -0.54 -0.89 -0.45 -0.89 0a20.22 20.22 0 0 0 -0.19 2.19 21.53 21.53 0 0 0 0.15 3.1 13 13 0 0 0 0.38 2 5.67 5.67 0 0 0 0.36 0.92 4.46 4.46 0 0 0 -2.22 1.22 6.13 6.13 0 0 0 -1.09 1.51 17.56 17.56 0 0 0 -1 2.49 0.34 0.34 0 0 0 0.17 0.44 0.34 0.34 0 0 0 0.44 -0.17c0.39 -0.73 0.83 -1.49 1.31 -2.22a11.63 11.63 0 0 1 1 -1.3 4.56 4.56 0 0 1 1.77 -1.35 7.34 7.34 0 0 0 0.51 0.73 5 5 0 0 0 0.84 0.82 5.73 5.73 0 0 0 5.28 1.06 6.85 6.85 0 0 0 3.57 -2.61 4.71 4.71 0 0 1 2.24 1.41 9.63 9.63 0 0 1 1.06 1.31A17.6 17.6 0 0 1 21 23.79a0.34 0.34 0 0 0 0.43 0.19 0.34 0.34 0 0 0 0.2 -0.43Zm-5.58 -6.08a6 6 0 0 1 -3.55 2.84 5 5 0 0 1 -5 -1.5 7.36 7.36 0 0 1 -0.6 -0.81 4.92 4.92 0 0 1 -0.51 -1.09A12.09 12.09 0 0 1 6 15.07a19.91 19.91 0 0 1 -0.29 -3l0 -0.86 0.09 0.44a3.48 3.48 0 0 0 0.2 0.65 3.7 3.7 0 0 0 0.31 0.59l0.61 0.76 0.59 0.52a1.65 1.65 0 0 0 1.49 0.26 5.41 5.41 0 0 0 1.33 -0.75 2 2 0 0 1 0.94 -0.45c0.45 0 0.75 0.29 1.06 0.55a3.52 3.52 0 0 0 1.07 0.7 1.72 1.72 0 0 0 1.6 -0.19 2.57 2.57 0 0 0 0.32 -0.22 4.59 4.59 0 0 0 0.39 -0.37l0.64 -0.82c0.15 -0.23 0.31 -0.47 0.45 -0.71a5.44 5.44 0 0 0 0.27 -0.54l0 -0.08a21.42 21.42 0 0 1 -0.1 2.89 7.67 7.67 0 0 1 -0.92 3.03Z" fill="#000000" fill-rule="evenodd" stroke-width="1"></path>
    </g>
  </g>
</svg>