<svg xmlns="http://www.w3.org/2000/svg" viewBox="0 0 24 24" id="Geometric-Religion-Man-Muslim-3--Streamline-Freehand">
  <desc>
    Geometric Religion Man Muslim 3 Streamline Icon: https://streamlinehq.com
  </desc>
  <g>
    <path d="M12.15 13.63a2.32 2.32 0 0 0 1.15 -0.72 0.34 0.34 0 0 0 0 -0.48 0.35 0.35 0 0 0 -0.49 0 1.77 1.77 0 0 1 -1.21 0.15 1.88 1.88 0 0 1 -0.33 0 1.76 1.76 0 0 1 -0.84 -0.31 0.3 0.3 0 0 0 -0.43 -0.05 0.3 0.3 0 0 0 -0.05 0.42 2.06 2.06 0 0 0 0.95 1 1.53 1.53 0 0 0 0.59 0.16 1.57 1.57 0 0 0 0.66 -0.17Z" fill="#000000" fill-rule="evenodd" stroke-width="1"></path>
    <path d="M9.38 7.26A0.81 0.81 0 0 0 9 7.18a1 1 0 0 0 -0.59 0.07 1.43 1.43 0 0 0 -0.41 0.29l-0.47 0.58a0.31 0.31 0 0 0 0 0.43 0.3 0.3 0 0 0 0.43 0l0.54 -0.2a1.91 1.91 0 0 1 0.32 0 1.09 1.09 0 0 1 0.4 0 4 4 0 0 1 0.68 0.2 0.34 0.34 0 0 0 0.4 -0.56 2.83 2.83 0 0 0 -0.92 -0.73Z" fill="#000000" fill-rule="evenodd" stroke-width="1"></path>
    <path d="M15.3 7.39a1.3 1.3 0 0 0 -0.51 -0.18 1.07 1.07 0 0 0 -0.59 0 1.55 1.55 0 0 0 -0.86 0.84 0.31 0.31 0 0 0 0 0.43 0.3 0.3 0 0 0 0.43 0 1.36 1.36 0 0 1 0.57 -0.17l0.15 0 0.23 0a2.75 2.75 0 0 1 0.87 0.28 0.35 0.35 0 0 0 0.49 0 0.36 0.36 0 0 0 0 -0.49 2.69 2.69 0 0 0 -0.78 -0.71Z" fill="#000000" fill-rule="evenodd" stroke-width="1"></path>
    <path d="M15.28 20.34a0.93 0.93 0 0 0 -0.19 -0.11 0.88 0.88 0 0 0 -0.27 -0.06 0.33 0.33 0 0 0 -0.24 0 0.34 0.34 0 0 0 -0.27 0.1l-0.42 0.43 -0.18 0.34a0.78 0.78 0 0 0 0 0.63 0.84 0.84 0 0 0 0.94 0.42 1.3 1.3 0 0 0 0.47 -0.18 1 1 0 0 0 0.51 -1 0.83 0.83 0 0 0 -0.35 -0.57Z" fill="#000000" fill-rule="evenodd" stroke-width="1"></path>
    <path d="M3.45 6.89c0.28 0 5.43 -0.42 6 -0.41h2a39.7 39.7 0 0 1 9.64 0.52 0.33 0.33 0 0 0 0.37 -0.31 0.35 0.35 0 0 0 -0.31 -0.38c-0.28 0 -0.57 -0.08 -0.86 -0.14 -0.51 -0.09 -1 -0.22 -1.51 -0.33a8 8 0 0 0 -0.32 -2.07 4.4 4.4 0 0 0 -0.75 -1.44 3.84 3.84 0 0 0 -1 -0.92A8 8 0 0 0 15 0.58 10 10 0 0 0 11.24 0a6.61 6.61 0 0 0 -3.62 1.26A5.79 5.79 0 0 0 6 3.34a7.13 7.13 0 0 0 -0.64 2.52c-0.67 0.13 -1.33 0.27 -2 0.43a0.3 0.3 0 0 0 -0.24 0.36 0.3 0.3 0 0 0 0.33 0.24Zm3.2 -3.19a4.57 4.57 0 0 1 1.56 -1.63 5.69 5.69 0 0 1 3.08 -0.9 9.6 9.6 0 0 1 3.32 0.45 7.26 7.26 0 0 1 1.57 0.63 3.27 3.27 0 0 1 0.82 0.65 4.11 4.11 0 0 1 0.79 1.47 8.09 8.09 0 0 1 0.26 1.3c-0.44 -0.09 -0.87 -0.18 -1.31 -0.24a19.43 19.43 0 0 0 -2.53 -0.17c-1.24 0 -2.47 0.09 -3.72 0.12l-1.89 0a8.1 8.1 0 0 0 -0.86 0.06c-0.6 0.08 -1.2 0.18 -1.8 0.29a6.53 6.53 0 0 1 0.71 -2.03Z" fill="#000000" fill-rule="evenodd" stroke-width="1"></path>
    <g>
      <path d="M20.26 10.28a15.52 15.52 0 0 1 0.8 2.59q0.23 0.95 0.42 1.89c0.13 0.69 0.26 1.38 0.38 2.07 0.23 1.49 0.6 1.37 1 1 -0.13 -1.41 -0.22 -2.84 -0.47 -4.25a12.75 12.75 0 0 0 -1.21 -3.69 9.17 9.17 0 0 0 -0.85 -1.28c-0.32 -0.41 -0.59 -1 -0.94 -1.42s-0.47 -0.19 -0.39 0.35c0.11 0.1 1.22 2.64 1.26 2.74Z" fill="#000000" fill-rule="evenodd" stroke-width="1"></path>
      <path d="m2.26 17 0 -0.21c0.07 -0.41 0.14 -0.82 0.23 -1.23s0.2 -0.8 0.31 -1.21c0.26 -1 0.56 -1.91 0.84 -2.86a16.24 16.24 0 0 1 0.8 -2.39A9.64 9.64 0 0 1 5 7.79c0.23 -0.71 -0.46 -0.89 -1 -0.13a34.46 34.46 0 0 0 -1.4 3.47c-0.26 0.83 -0.55 1.65 -0.76 2.48a15.05 15.05 0 0 0 -0.35 1.75c-0.06 0.43 -0.1 0.86 -0.13 1.3s-0.05 0.82 -0.06 1.24c-0.13 0.77 0.44 0.62 0.96 -0.9Z" fill="#000000" fill-rule="evenodd" stroke-width="1"></path>
      <path d="M23.33 20.29A5.61 5.61 0 0 0 21 17.36a7.06 7.06 0 0 0 -1 -0.54 13 13 0 0 0 -3.31 -1 8.29 8.29 0 0 0 1.59 -3.26 18.11 18.11 0 0 0 0.56 -4.7c-0.23 -1.09 -0.57 -1.09 -0.73 -0.51a19 19 0 0 1 -0.2 2.71 0.31 0.31 0 0 0 -0.11 0.16 2.37 2.37 0 0 1 -1 1.24 1.17 1.17 0 0 1 -1.72 -0.22c-0.23 -0.27 -0.42 -0.58 -0.66 -0.85a3.78 3.78 0 0 0 -1.31 -0.91 3.63 3.63 0 0 0 -1.58 -0.25 3 3 0 0 0 -1.05 0.26 6.71 6.71 0 0 0 -1.27 0.85 3.6 3.6 0 0 1 -1.6 0.91 2.41 2.41 0 0 1 -1.28 -0.16 2.71 2.71 0 0 1 -0.33 -0.18 18.45 18.45 0 0 1 -0.12 -3.53c-0.08 -0.61 -0.58 -0.45 -0.55 0.29 -0.36 3.93 0.32 6.4 1 7.46a4.31 4.31 0 0 0 0.51 0.62l-0.18 0.05c-0.36 0.12 -0.71 0.29 -1.06 0.42a12.27 12.27 0 0 0 -2.81 1.51 6.53 6.53 0 0 0 -2 2.61 5.07 5.07 0 0 0 -0.29 1.08A12.15 12.15 0 0 0 0.37 23a0.3 0.3 0 0 0 0.27 0.33 0.3 0.3 0 0 0 0.36 -0.26 11.83 11.83 0 0 1 0.31 -1.46 4.65 4.65 0 0 1 0.37 -0.86 6.08 6.08 0 0 1 0.65 -0.92 9 9 0 0 1 1.19 -1.2A13.76 13.76 0 0 1 6 17c0.27 -0.14 0.54 -0.31 0.83 -0.46a3.49 3.49 0 0 1 0.53 -0.22l0.09 0a7 7 0 0 0 3.72 1.48h0.31a12 12 0 0 0 -0.31 2.16 12.54 12.54 0 0 0 0.06 1.5c0.07 0.75 0.2 1.47 0.27 2.22a0.34 0.34 0 0 0 0.34 0.34 0.35 0.35 0 0 0 0.35 -0.34c0.07 -0.83 0.14 -1.67 0.15 -2.51l0 -1.47c0 -0.47 -0.11 -1.26 -0.12 -1.88a6.71 6.71 0 0 0 4 -1.38 15.94 15.94 0 0 1 3.28 1.36c0.29 0.17 0.57 0.34 0.84 0.52a6.59 6.59 0 0 1 1.2 1 4.61 4.61 0 0 1 0.88 1.29 5 5 0 0 1 0.37 1.3 9.84 9.84 0 0 1 0.12 1.42 0.35 0.35 0 0 0 0.33 0.35 0.34 0.34 0 0 0 0.36 -0.33 11.32 11.32 0 0 0 0 -1.84 5.54 5.54 0 0 0 -0.27 -1.22Zm-7.66 -4.87a5.88 5.88 0 0 1 -4.43 1.19 5.5 5.5 0 0 1 -4.06 -2.08 7.25 7.25 0 0 1 -1 -2.71 3.17 3.17 0 0 0 1.61 0.34 3.13 3.13 0 0 0 1 -0.25 10.15 10.15 0 0 0 1.57 -1 2.57 2.57 0 0 1 1.31 -0.53 2.67 2.67 0 0 1 1.1 0.16 2.62 2.62 0 0 1 0.95 0.61c0.3 0.28 0.53 0.64 0.83 0.91a1.9 1.9 0 0 0 0.55 0.37 2.06 2.06 0 0 0 1.86 -0.07 3.83 3.83 0 0 0 0.63 -0.45c0 0.13 -0.07 0.26 -0.11 0.39a6.75 6.75 0 0 1 -1.81 3.12Z" fill="#000000" fill-rule="evenodd" stroke-width="1"></path>
    </g>
  </g>
</svg>