<svg xmlns="http://www.w3.org/2000/svg" viewBox="0 0 24 24" id="Greek-Gods-Female-Plant-Laurel--Streamline-Freehand">
  <desc>
    Greek Gods Female Plant Laurel Streamline Icon: https://streamlinehq.com
  </desc>
  <g>
    <path d="m4.5 3.21 1.69 0 2 1.62a0.35 0.35 0 0 0 0.53 -0.47c-0.28 -0.38 -0.57 -0.75 -0.88 -1.1l2.77 0.14 2 1.5a0.35 0.35 0 0 0 0.45 -0.54l-0.9 -1h1.14l2.2 -0.09 2 1.62a0.35 0.35 0 1 0 0.51 -0.49c-0.32 -0.41 -0.63 -0.81 -1 -1.2 0.67 0 1.33 -0.06 2 -0.07a0.36 0.36 0 0 0 0.36 -0.35 0.35 0.35 0 0 0 -0.35 -0.35l-2.25 -0.11c0.39 -0.54 0.74 -1.1 1.08 -1.67a0.31 0.31 0 0 0 -0.05 -0.43 0.31 0.31 0 0 0 -0.44 0c-0.49 0.49 -1 0.92 -1.51 1.4 -0.2 0.19 -0.38 0.4 -0.57 0.6l-1.23 0h-2c0.38 -0.56 0.67 -1.14 1 -1.74a0.32 0.32 0 0 0 -0.07 -0.43 0.31 0.31 0 0 0 -0.43 0.07c-0.53 0.57 -1.07 1.09 -1.59 1.66 -0.13 0.14 -0.25 0.3 -0.37 0.45 -1.06 0 -2.12 0 -3.17 0.09l0.14 -0.22a11.85 11.85 0 0 0 0.9 -1.64 0.3 0.3 0 0 0 -0.13 -0.41 0.31 0.31 0 0 0 -0.42 0.13l-1.8 2.24c-0.55 0.05 -1.11 0.1 -1.66 0.17a0.32 0.32 0 0 0 -0.28 0.34 0.32 0.32 0 0 0 0.33 0.28Z" fill="#000000" fill-rule="evenodd" stroke-width="1"></path>
    <path d="M11.82 5.66a0.3 0.3 0 1 0 -0.53 -0.3 4.37 4.37 0 0 1 -1.76 1.56 5.12 5.12 0 0 1 -2.26 0.6 0.48 0.48 0 0 0 -0.45 0.54 4.39 4.39 0 0 0 1.78 3.33 6 6 0 0 0 3.64 0.9A4.69 4.69 0 0 0 15.51 11a5 5 0 0 0 1.27 -3.22 0.46 0.46 0 0 0 -0.41 -0.49 3.79 3.79 0 0 1 -1.57 -0.43 5.68 5.68 0 0 1 -1.36 -1 0.35 0.35 0 0 0 -0.5 0.49 6.59 6.59 0 0 0 1.49 1.21 4.85 4.85 0 0 0 1.4 0.54 3.82 3.82 0 0 1 -1.06 2.14 3.63 3.63 0 0 1 -2.56 0.86 5 5 0 0 1 -3 -0.67 3.33 3.33 0 0 1 -1.38 -2 6.16 6.16 0 0 0 2.05 -0.8 5 5 0 0 0 1.94 -1.97Z" fill="#000000" fill-rule="evenodd" stroke-width="1"></path>
    <path d="M3.73 17.46A5.83 5.83 0 0 0 3.19 16a2 2 0 0 1 -0.27 -1.06 1.87 1.87 0 0 1 0.27 -0.77 2.11 2.11 0 0 1 0.6 -0.59 8 8 0 0 0 1.33 -0.87 1.66 1.66 0 0 0 0.45 -0.78 1.76 1.76 0 0 0 0 -0.94c-0.15 -0.51 -0.52 -1 -0.67 -1.47a3.12 3.12 0 0 1 -0.15 -1.17A5.27 5.27 0 0 1 5 7.1a0.32 0.32 0 0 0 -0.19 -0.4 0.3 0.3 0 0 0 -0.39 0.19A5.65 5.65 0 0 0 4 8.55a3.74 3.74 0 0 0 0.08 1.2c0.1 0.4 0.35 0.85 0.48 1.29a0.89 0.89 0 0 1 0 0.58 0.74 0.74 0 0 1 -0.33 0.37 11.37 11.37 0 0 1 -1.07 0.59 3.31 3.31 0 0 0 -1 0.94 3 3 0 0 0 -0.45 1.28 2.32 2.32 0 0 0 0.11 0.94 11.24 11.24 0 0 0 0.65 1.36 1.38 1.38 0 0 1 0.22 1c-0.11 0.38 -0.45 0.54 -0.8 0.7a4.53 4.53 0 0 0 -1.39 0.8 1.79 1.79 0 0 0 -0.48 0.79 0.35 0.35 0 0 0 0.22 0.44 0.35 0.35 0 0 0 0.44 -0.22 1.57 1.57 0 0 1 1.14 -0.86A4.85 4.85 0 0 0 3 19.22a1.64 1.64 0 0 0 0.62 -0.81 1.94 1.94 0 0 0 0.11 -0.95Z" fill="#000000" fill-rule="evenodd" stroke-width="1"></path>
    <path d="M23.54 19.14a3.49 3.49 0 0 0 -1 -0.94 6.6 6.6 0 0 1 -0.9 -0.59 0.72 0.72 0 0 1 -0.25 -0.39 1.78 1.78 0 0 1 0.18 -1.08 10.42 10.42 0 0 0 0.55 -1.4 2.78 2.78 0 0 0 0.07 -0.91 2.51 2.51 0 0 0 -0.54 -1.35 6.35 6.35 0 0 0 -1.08 -1 2.26 2.26 0 0 1 -0.73 -0.8 1.55 1.55 0 0 1 -0.14 -0.67c0 -0.45 0.07 -0.91 0.08 -1.34a4 4 0 0 0 -0.17 -1.3A3.78 3.78 0 0 0 19 6.22a0.29 0.29 0 0 0 -0.42 -0.08 0.31 0.31 0 0 0 -0.08 0.43 3.25 3.25 0 0 1 0.41 1 3.12 3.12 0 0 1 0 1.06 14.52 14.52 0 0 0 -0.22 1.63 2.4 2.4 0 0 0 0.15 0.84 3.13 3.13 0 0 0 0.95 1.27 6.3 6.3 0 0 1 0.88 0.83 1.45 1.45 0 0 1 0.33 0.8 2.33 2.33 0 0 1 -0.23 1.12 6.47 6.47 0 0 0 -0.46 1.5 2.23 2.23 0 0 0 0.08 0.92 1.56 1.56 0 0 0 0.43 0.69 5.4 5.4 0 0 0 1.26 0.77 2.63 2.63 0 0 1 0.82 0.66 1.66 1.66 0 0 1 0.39 0.91 0.35 0.35 0 0 0 0.37 0.33 0.35 0.35 0 0 0 0.33 -0.37 2.6 2.6 0 0 0 -0.45 -1.39Z" fill="#000000" fill-rule="evenodd" stroke-width="1"></path>
    <path d="M18.84 17.53A7.45 7.45 0 0 0 13.21 14a8.19 8.19 0 0 0 -6.45 1.72 8.37 8.37 0 0 0 -2.06 2.89 16.12 16.12 0 0 0 -1.11 5 0.31 0.31 0 0 0 0.27 0.35 0.3 0.3 0 0 0 0.34 -0.27 17.32 17.32 0 0 1 1 -4 7.86 7.86 0 0 1 2.29 -3.2 4.51 4.51 0 0 1 0.61 -0.44c0.34 0.36 0.67 0.74 1 1.1s0.57 0.53 0.87 0.79l0.86 0.72 -0.55 0.49a21.1 21.1 0 0 0 -1.8 2A24.62 24.62 0 0 0 7 23.37a0.36 0.36 0 0 0 0.08 0.49 0.35 0.35 0 0 0 0.49 -0.09 24 24 0 0 1 1.68 -2A22.43 22.43 0 0 1 11.08 20c0.5 -0.46 1 -0.9 1.54 -1.35s1 -0.9 1.54 -1.34 1.13 -0.89 1.72 -1.32A5.27 5.27 0 0 1 18 18a8.25 8.25 0 0 1 0.75 1.76c-0.4 0.32 -0.8 0.62 -1.19 0.95 -0.17 0.15 -0.35 0.31 -0.51 0.48a4.78 4.78 0 0 0 -0.47 0.54 11.71 11.71 0 0 0 -0.9 1.42 0.31 0.31 0 1 0 0.48 0.39c0.4 -0.37 0.83 -0.68 1.24 -1.05 0.18 -0.15 0.34 -0.32 0.5 -0.48s0.31 -0.35 0.46 -0.53 0.42 -0.55 0.62 -0.82a21.82 21.82 0 0 1 0.37 2.88 0.35 0.35 0 0 0 0.37 0.33 0.34 0.34 0 0 0 0.33 -0.36 20.22 20.22 0 0 0 -0.37 -3.63 9.2 9.2 0 0 0 -0.84 -2.35Zm-6.4 -0.15c-0.33 0.24 -0.64 0.49 -0.94 0.75 -0.22 -0.31 -0.45 -0.62 -0.7 -0.92s-0.35 -0.38 -0.54 -0.56a4.82 4.82 0 0 0 -0.6 -0.5 9.06 9.06 0 0 0 -0.77 -0.49 8.13 8.13 0 0 1 4.17 -0.5 8.81 8.81 0 0 1 2 0.52 25.19 25.19 0 0 0 -2.62 1.7Z" fill="#000000" fill-rule="evenodd" stroke-width="1"></path>
    <path d="M15.59 19.09a0.3 0.3 0 0 0 -0.43 0 13.7 13.7 0 0 0 -1.27 0.81 6.4 6.4 0 0 0 -0.49 0.42c-0.15 0.15 -0.29 0.31 -0.43 0.48 -0.32 0.39 -0.59 0.79 -0.88 1.21a0.35 0.35 0 0 0 0.51 0.48c0.38 -0.32 0.77 -0.6 1.16 -0.91 0.16 -0.13 0.31 -0.27 0.46 -0.41a6 6 0 0 0 0.43 -0.45c0.33 -0.38 0.6 -0.78 0.92 -1.17a0.3 0.3 0 0 0 0.02 -0.46Z" fill="#000000" fill-rule="evenodd" stroke-width="1"></path>
  </g>
</svg>