<svg xmlns="http://www.w3.org/2000/svg" viewBox="0 0 24 24" id="Greek-Gods-Male-Plant-Laurel--Streamline-Freehand">
  <desc>
    Greek Gods Male Plant Laurel Streamline Icon: https://streamlinehq.com
  </desc>
  <g>
    <path d="m4.67 3.2 1.69 0 2 1.62a0.35 0.35 0 1 0 0.52 -0.46A13.39 13.39 0 0 0 8 3.26l2.77 0.14 2 1.5a0.35 0.35 0 1 0 0.46 -0.53l-0.9 -1h1.14l2.2 -0.09 2 1.62a0.35 0.35 0 1 0 0.5 -0.48c-0.32 -0.42 -0.63 -0.82 -1 -1.2 0.67 0 1.34 -0.07 2 -0.08a0.35 0.35 0 0 0 0 -0.7l-2.26 -0.11c0.39 -0.54 0.74 -1.1 1.08 -1.67a0.32 0.32 0 0 0 -0.05 -0.44 0.31 0.31 0 0 0 -0.43 0.06c-0.5 0.49 -1 0.91 -1.52 1.4 -0.2 0.19 -0.38 0.4 -0.57 0.6l-1.23 0h-2c0.37 -0.56 0.67 -1.14 1 -1.74a0.31 0.31 0 0 0 -0.5 -0.36c-0.52 0.57 -1.07 1.09 -1.58 1.66 -0.13 0.14 -0.25 0.3 -0.38 0.45l-3.17 0.1c0 -0.08 0.1 -0.15 0.14 -0.23A10.8 10.8 0 0 0 8.63 0.45 0.3 0.3 0 0 0 8.5 0a0.31 0.31 0 0 0 -0.42 0.12l-1.8 2.29c-0.55 0 -1.11 0.1 -1.66 0.18a0.31 0.31 0 1 0 0 0.61Z" fill="#000000" fill-rule="evenodd" stroke-width="1"></path>
    <path d="M21.31 19.84a8.4 8.4 0 0 0 -1 -2.33c-1.26 -2 -3.92 -3.22 -6.77 -3.52a10.91 10.91 0 0 0 -7.48 1.71 8.75 8.75 0 0 0 -2.81 3.6 15.44 15.44 0 0 0 -1 4.35 0.32 0.32 0 0 0 0.26 0.35 0.31 0.31 0 0 0 0.35 -0.26A15 15 0 0 1 4 19.64a7.85 7.85 0 0 1 2.68 -3.09 7.61 7.61 0 0 1 2.51 -1.1 12.31 12.31 0 0 1 3.65 -0.33c-0.66 1.2 -1.35 2.43 -2.14 3.6a19.59 19.59 0 0 1 -1.22 1.62 7.86 7.86 0 0 1 -3 2.32l0 -1.07a0.34 0.34 0 0 0 -0.33 -0.36 0.35 0.35 0 0 0 -0.36 0.33l-0.2 1.67a0.42 0.42 0 0 0 0.16 0.35 0.41 0.41 0 0 0 0.37 0.09 8 8 0 0 0 4.24 -2.55 12.16 12.16 0 0 0 1.29 -1.79 33.64 33.64 0 0 0 1.92 -4.15 11.38 11.38 0 0 1 3.2 0.8c-0.09 0.77 -0.18 1.55 -0.24 2.33s-0.07 1.28 -0.05 1.92a28.22 28.22 0 0 0 0.36 3.2 0.31 0.31 0 1 0 0.62 0c0 -0.92 0.11 -1.83 0.16 -2.76l0 -1.18 0 -1.19c0 -0.63 -0.05 -1.27 -0.09 -1.9a5.57 5.57 0 0 1 1.98 1.6 7.45 7.45 0 0 1 1 2 15.94 15.94 0 0 1 0.59 3.48 0.35 0.35 0 0 0 0.7 0 17.76 17.76 0 0 0 -0.49 -3.64Z" fill="#000000" fill-rule="evenodd" stroke-width="1"></path>
    <path d="M14.2 18.44c-0.33 0.39 -0.67 0.75 -1 1.16a6.32 6.32 0 0 0 -0.33 0.56c-0.09 0.19 -0.18 0.38 -0.26 0.58 -0.18 0.48 -0.31 1 -0.46 1.44a0.35 0.35 0 0 0 0.17 0.46 0.36 0.36 0 0 0 0.47 -0.17c0.26 -0.42 0.55 -0.81 0.81 -1.23 0.11 -0.17 0.22 -0.35 0.32 -0.53a5.94 5.94 0 0 0 0.27 -0.57c0.19 -0.46 0.32 -0.92 0.5 -1.39a0.3 0.3 0 0 0 -0.11 -0.42 0.3 0.3 0 0 0 -0.38 0.11Z" fill="#000000" fill-rule="evenodd" stroke-width="1"></path>
    <path d="M9.68 6.55a5.59 5.59 0 0 1 2.64 -0.41 0.31 0.31 0 0 0 0.37 -0.24 0.3 0.3 0 0 0 -0.23 -0.36A6.88 6.88 0 0 0 8.85 6a4.93 4.93 0 0 0 -1.54 0.9 1.33 1.33 0 0 0 -0.47 0.92A4.7 4.7 0 0 0 6.91 9a4.61 4.61 0 0 0 0.44 1.11 5.06 5.06 0 0 0 4.16 2.49 5.88 5.88 0 0 0 4.54 -1.6 4.68 4.68 0 0 0 1.08 -1.81 6.81 6.81 0 0 0 0.33 -2 0.43 0.43 0 0 0 -0.36 -0.44 2.88 2.88 0 0 1 -1.18 -0.31 1.67 1.67 0 0 1 -0.75 -0.86 0.35 0.35 0 0 0 -0.45 -0.19 0.35 0.35 0 0 0 -0.2 0.45 2.37 2.37 0 0 0 1 1.25 3.23 3.23 0 0 0 1.07 0.42 5.79 5.79 0 0 1 -0.35 1.36 3.68 3.68 0 0 1 -0.92 1.39 4.85 4.85 0 0 1 -3.73 1.14 4 4 0 0 1 -3.27 -1.83 3.62 3.62 0 0 1 -0.4 -0.83 3.37 3.37 0 0 1 -0.1 -0.91c0 -0.13 0.11 -0.24 0.25 -0.37a5.28 5.28 0 0 1 1.61 -0.91Z" fill="#000000" fill-rule="evenodd" stroke-width="1"></path>
  </g>
</svg>