<svg xmlns="http://www.w3.org/2000/svg" viewBox="0 0 24 24" id="Landmark-Bassilica-Vatican--Streamline-Freehand">
  <desc>
    Landmark Bassilica Vatican Streamline Icon: https://streamlinehq.com
  </desc>
  <title>landmark-bassilica-vatican</title>
  <path d="M16.24 18c0 -0.84 -0.14 -3.53 -0.23 -3.53S13 12.06 12 11.27a0.59 0.59 0 0 0 -0.68 0l-1.46 0.95a28.19 28.19 0 0 0 -2.67 2.29s0 2 -0.07 2.47l0 0.84 0 1.23 0 2 0 0.81a1.88 1.88 0 0 0 0.09 0.71 0.46 0.46 0 0 0 0.64 0c0.13 -0.17 0.07 -0.81 0.08 -1s0 -0.65 0 -1l0 -2.36 0 -2.67 1 0 2.28 0c-0.08 0.76 -0.15 1.51 -0.18 2.27l0 1.21c0 0.59 0.06 1.17 0.13 1.76 0 0.27 0.07 0.54 0.1 0.81a2.61 2.61 0 0 0 0.21 1.11 0.37 0.37 0 0 0 0.21 0.16 0.37 0.37 0 0 0 0.35 -0.19A2.64 2.64 0 0 0 12 22c0 -0.62 0.06 -1.24 0.07 -1.86l0 -1.2c0 -0.41 0 -0.79 -0.05 -1.19 -0.06 -0.75 -0.14 -1.5 -0.21 -2.25h0.94l2.65 0a25.07 25.07 0 0 0 -0.24 2.86c0 0.65 0 1.31 0.08 2s0.14 1.57 0.2 2.19a0.65 0.65 0 0 0 0.08 0.31 0.35 0.35 0 0 0 0.33 0.15c0.29 0 0.38 -0.33 0.4 -0.58s0 -1.07 0 -1.43c-0.01 -1 0.06 -2.06 -0.01 -3ZM12 14.39c-1.1 0 -2.19 0 -3.29 0.06l-0.58 0s2.87 -2.56 3.47 -2.62 3.59 2.58 3.59 2.58c-1.11 0 -2.19 -0.02 -3.19 -0.02Z" fill="#000000" fill-rule="evenodd" stroke-width="1"></path>
  <path d="M23.58 18.81c0 -0.67 -0.08 -1.34 -0.1 -2 0 -1 0 -2 -0.05 -3l-0.08 -2.35a3.37 3.37 0 0 0 0 -0.54 0.78 0.78 0 0 0 -0.17 -0.26 0.31 0.31 0 0 0 0 -0.25A5.66 5.66 0 0 0 22.81 9a2.6 2.6 0 0 0 -0.62 -0.87 1.83 1.83 0 0 0 -2.08 -0.3 3 3 0 0 0 -1.29 2.32l-2 -0.1a8 8 0 0 0 -2.12 -3.2 5.38 5.38 0 0 0 -1.63 -1 9.16 9.16 0 0 0 0.14 -1.48 2.72 2.72 0 0 0 -0.2 -0.93 1.8 1.8 0 0 0 -1.34 -1 2.62 2.62 0 0 0 0.11 -0.57 0.57 0.57 0 0 0 0 -0.13c0.22 0 0.44 -0.07 0.67 -0.09a0.33 0.33 0 0 0 0.36 -0.31 0.33 0.33 0 0 0 -0.3 -0.36C12.23 1 12 0.87 11.68 0.8c0 -0.14 0 -0.28 -0.07 -0.43A0.33 0.33 0 1 0 11 0.3a3.39 3.39 0 0 0 -0.11 0.43A7.54 7.54 0 0 0 9.86 1a0.3 0.3 0 0 0 0 0.59c0.28 0.08 0.54 0.17 0.82 0.24a1.51 1.51 0 0 0 0 0.3c0 0.15 0.07 0.3 0.11 0.44a2.23 2.23 0 0 0 -1.16 0.65 2.21 2.21 0 0 0 -0.48 1.26 9.53 9.53 0 0 0 0.12 1.44 6.4 6.4 0 0 0 -0.68 0.27 5 5 0 0 0 -1 0.65 5.25 5.25 0 0 0 -0.8 0.83 5.71 5.71 0 0 0 -0.66 1.15 10.5 10.5 0 0 0 -0.44 1.34l-1 0a0.33 0.33 0 0 0 0 -0.22c-0.06 -0.21 -0.22 -0.69 -0.37 -1.07A2.83 2.83 0 0 0 4 8.33a1.64 1.64 0 0 0 -0.31 -0.28 1.9 1.9 0 0 0 -0.34 -0.2 1.83 1.83 0 0 0 -1.8 0.15 3 3 0 0 0 -0.91 2.19 0.29 0.29 0 0 0 0 0.2l-0.24 0a0.29 0.29 0 0 0 -0.27 0.31 0.3 0.3 0 0 0 0.37 0.3h0.12a19.14 19.14 0 0 0 -0.23 2.39c-0.08 2 0.06 4.11 0 6.14l-0.08 2.2c0 0.12 -0.07 0.49 -0.07 0.73a0.84 0.84 0 0 0 0.12 0.45 1.39 1.39 0 0 0 0.53 0.41 6.8 6.8 0 0 0 0.91 0.3 10.08 10.08 0 0 0 1.85 0.38c0.9 0.07 1.82 0.05 2.7 0l16.18 -0.06a0.34 0.34 0 0 0 0 -0.67c-1 0 -2 0 -3 -0.06 0 -1.47 0 -2.92 0.07 -4.39l0 -3 0 -0.46 1.43 0a12.82 12.82 0 0 1 1.53 0.1c0 0.48 0 1 0.07 1.44 0 0.69 0.1 1.37 0.18 2.05s0.25 1.74 0.31 2.64a6.87 6.87 0 0 1 -0.06 1.7 0.34 0.34 0 0 0 0.66 0.12 8.13 8.13 0 0 0 0.12 -1.86c-0.06 -0.97 -0.19 -1.9 -0.26 -2.74Zm-22.35 -8.5A2.82 2.82 0 0 1 2 9.05a0.9 0.9 0 0 1 1 -0.17l0.31 0.12a1.61 1.61 0 0 1 0.3 0.37c0.18 0.3 0.37 0.63 0.45 0.79 -1 0.05 -1.92 0.12 -2.88 0.2 0.01 0 0.04 -0.02 0.05 -0.05Zm-0.15 3.11A19.53 19.53 0 0 1 1.22 11c0.89 0 1.78 -0.07 2.66 -0.08 0 1.21 -0.09 2.42 -0.13 3.64l-2.64 0c-0.01 -0.39 -0.03 -0.76 -0.03 -1.14Zm2.65 9.4a8 8 0 0 1 -1.63 -0.26c-0.65 -0.17 -0.75 0.17 -0.75 -0.8v-2.2c0 -1.46 -0.15 -2.94 -0.22 -4.42 0.87 0.08 1.74 0.13 2.6 0.19l0 1.85c0 0.63 0 1.26 0.07 1.9 0.07 1.25 0.16 2.5 0.25 3.76ZM20.35 9a0.91 0.91 0 0 1 1.19 0 1.91 1.91 0 0 1 0.59 0.64 4.66 4.66 0 0 1 0.35 0.71l-0.16 0 -1.24 0 -1.62 -0.08A2.59 2.59 0 0 1 20.35 9Zm-6.27 -1.39A7.18 7.18 0 0 1 16 10l-2.4 0a9.08 9.08 0 0 0 -0.21 -1.34 3.68 3.68 0 0 0 -0.23 -0.66 3.6 3.6 0 0 0 -0.33 -0.61 4 4 0 0 0 -0.53 -0.63 4.37 4.37 0 0 1 1.78 0.85ZM9.81 10c0.09 -0.32 0.2 -0.63 0.3 -0.94s0.2 -0.57 0.28 -0.86c0.14 -0.5 0.22 -1 0.4 -1.51a4 4 0 0 1 0.49 0 4.64 4.64 0 0 1 0.38 0.69 6.25 6.25 0 0 1 0.24 0.6c0.09 0.19 0.17 0.39 0.26 0.59 0.24 0.48 0.47 1 0.66 1.45h-3ZM10 4.55a1.13 1.13 0 0 1 0.37 -0.65 1.31 1.31 0 0 1 0.94 -0.31 0.86 0.86 0 0 1 0.77 0.35 1.73 1.73 0 0 1 0.23 0.77 7.69 7.69 0 0 1 0 1 6 6 0 0 0 -1.91 -0.09c-0.18 0 -0.35 0.08 -0.53 0.12A5.6 5.6 0 0 1 10 4.55ZM6.85 9.1a4.51 4.51 0 0 1 0.65 -0.92 4.22 4.22 0 0 1 0.72 -0.62 4.15 4.15 0 0 1 0.83 -0.45 4.22 4.22 0 0 1 0.76 -0.25l0.15 0a6 6 0 0 0 -0.52 0.82 3.32 3.32 0 0 0 -0.24 0.59 4.42 4.42 0 0 0 -0.14 0.63A7.29 7.29 0 0 0 9 10h-0.59l-2 0.07a9.49 9.49 0 0 1 0.44 -0.97Zm-0.51 13.77H4.8c0 -1.27 0.07 -2.54 0.08 -3.81l0 -1.9c0 -0.64 0 -1.16 -0.06 -1.75l1.62 0c0.71 0 0.9 -0.83 0.28 -0.91s-1.2 0 -2 0c-0.08 -1.21 -0.18 -2.42 -0.27 -3.64h2.38c0.1 0 5.37 -0.16 8.93 0.15l3 0.24c-0.06 1.06 -0.13 2.12 -0.18 3.18l-1.49 0h-0.39c-0.69 0 -0.53 1.17 0.05 1H17c0.59 0 0.83 0 1.46 -0.08l0 1.68c0 0.56 0 1.27 0.05 1.9a85 85 0 0 0 0.3 4.23c-3.95 -0.1 -8.09 -0.28 -12.47 -0.29ZM21 14.54l-1.49 0c-0.05 -1.06 -0.11 -2.12 -0.17 -3.18l1.63 0.07 1.23 0h0.07v0.05l0.15 2.34 0 0.9a13.87 13.87 0 0 0 -1.42 -0.18Z" fill="#000000" fill-rule="evenodd" stroke-width="1"></path>
</svg>