<svg xmlns="http://www.w3.org/2000/svg" viewBox="0 0 24 24" id="Landmark-Cologne-Cathedral--Streamline-Freehand">
  <desc>
    Landmark Cologne Cathedral Streamline Icon: https://streamlinehq.com
  </desc>
  <title>landmark-cologne-cathedral</title>
  <g>
    <path d="M5.6 13.05Z" fill="none" stroke-width="1"></path>
    <path d="M4.52 0.4a0.27 0.27 0 0 1 -0.23 0 0.23 0.23 0 0 0 0.23 0Z" fill="none" stroke-width="1"></path>
    <path d="M2 10.06a0.76 0.76 0 0 1 0.09 0.09 0.25 0.25 0 0 0 -0.09 -0.09Z" fill="none" stroke-width="1"></path>
    <path d="M1.56 22.58a0.29 0.29 0 0 0 -0.41 0.07 0.34 0.34 0 0 1 0.41 -0.07Z" fill="none" stroke-width="1"></path>
    <path d="m6.46 23.02 0.01 -0.01 0 0.01 -0.01 0z" fill="none" stroke-width="1"></path>
    <path d="m6.37 22.61 0 -1.2 0 -1.38c0 -0.7 0 -1.41 -0.07 -2.11 0 -0.52 -0.07 -1.15 0 -1.73a5.15 5.15 0 0 1 0.09 -0.81l0 -0.52a0.69 0.69 0 0 1 0.19 -0.41l0.69 -0.73A13.62 13.62 0 0 1 7 12.16a4.33 4.33 0 0 1 0 -0.62c0 -0.14 0.06 -0.27 0.09 -0.41a4.18 4.18 0 0 1 0.13 -0.81l-0.1 0 -3.37 0.34 -0.59 0 -0.83 -0.11H2s0.13 0 0.1 -0.08a0.29 0.29 0 0 0 -0.22 -0.09l0 0.07a2.52 2.52 0 0 1 0.13 0.79c0 0.53 -0.05 1.11 0 1.58a17.72 17.72 0 0 1 0.15 2.53c0 0.75 -0.08 1.49 -0.13 2.23 0 0.48 -0.08 1 -0.1 1.44l-0.12 2.58 -0.06 0.9s0.05 0.28 0 0.31a0.35 0.35 0 0 1 -0.08 0.32l0.63 0a1.51 1.51 0 0 0 0.45 -0.08 1.57 1.57 0 0 1 0.56 -0.05c0.35 0 0.73 0.07 1.05 0.06h2.05c-0.02 -0.2 -0.04 -0.41 -0.04 -0.45ZM5.1 20.42c0 0.15 -0.07 0.28 -0.09 0.41s-0.12 0.49 -0.15 0.64c-0.26 0.3 -0.5 0.34 -0.73 0 0 -0.15 -0.13 -0.56 -0.15 -0.64a2.71 2.71 0 0 1 0 -0.76 9.59 9.59 0 0 0 0.24 -1 0.32 0.32 0 0 1 0.21 -0.39 0.31 0.31 0 0 1 0.38 0.22 2.28 2.28 0 0 1 0.33 1 1.84 1.84 0 0 1 -0.04 0.52Zm0.32 -5.31h-0.07l-0.35 0.14c-0.09 0 -0.14 0.08 -0.23 0.11a1.09 1.09 0 0 1 -0.26 0.05 1.48 1.48 0 0 1 -0.42 -0.07l-0.43 -0.2c-0.6 0.17 -0.85 -0.08 -0.5 -0.35 -0.3 -0.33 0 -0.54 0.56 -0.27l0.37 -0.15a0.91 0.91 0 0 1 0.14 -0.07 0.74 0.74 0 0 1 0.25 0 2.34 2.34 0 0 1 0.52 0l0.32 0.12h0.07a0.3 0.3 0 0 1 0.17 0.34 0.28 0.28 0 0 1 -0.14 0.35Zm0.42 -2a0.38 0.38 0 0 1 -0.21 -0.07c-0.13 0 -0.49 0.22 -0.74 0.25a2.22 2.22 0 0 1 -0.7 0l-0.43 -0.21 -0.21 0c-0.32 -0.11 -0.36 -0.33 -0.31 -0.42s0 -0.18 0.2 -0.21a0.23 0.23 0 0 1 0.14 0s0.15 -0.06 0.18 -0.07l0.54 -0.09s0.09 0 0.18 -0.06a1.73 1.73 0 0 1 0.4 0 3.51 3.51 0 0 1 0.73 0.14c0.46 0.14 0.66 0.37 0.62 0.54a0.35 0.35 0 0 1 -0.39 0.24Z" fill="none" stroke-width="1"></path>
    <path d="m6.47 23 0.02 -0.02 -0.01 0.01 -0.01 0.01z" fill="none" stroke-width="1"></path>
    <path d="M17.11 16.17H17l0.11 0Z" fill="none" stroke-width="1"></path>
    <path d="M17.11 16.17z" fill="none" stroke-width="1"></path>
    <path d="M7.36 15c-0.07 0 -0.09 0.05 -0.08 0.15s0.15 -0.15 0.08 -0.15Z" fill="none" stroke-width="1"></path>
    <path d="M17.17 16.21a0.34 0.34 0 0 1 0.11 0.17 0.23 0.23 0 0 0 -0.11 -0.17Z" fill="none" stroke-width="1"></path>
    <path d="M0.39 23.75a0.43 0.43 0 0 0 0.12 -0.05c-0.07 -0.01 -0.12 0.01 -0.12 0.05Z" fill="none" stroke-width="1"></path>
    <path d="m2.36 9.77 1.26 -0.23 0.61 -0.08A3.57 3.57 0 0 1 4 8.89a2.57 2.57 0 0 1 0 -0.48c0 -0.08 0.15 -0.43 0.21 -0.59 0.17 -0.42 0.57 -0.3 0.58 -0.24a0.28 0.28 0 0 1 0.07 0.21 5.48 5.48 0 0 0 0.23 0.51 2.31 2.31 0 0 1 0.05 0.46 2.15 2.15 0 0 1 -0.14 0.66 15.62 15.62 0 0 1 1.81 0.18c-0.16 -0.26 -0.31 -0.54 -0.43 -0.76L4.9 6.11l-0.33 -0.56a3.38 3.38 0 0 0 -0.34 0.65c-0.13 0.29 -0.28 0.58 -0.44 0.88S3.28 7.91 3 8.3s-0.42 0.63 -0.61 1 -0.21 0.38 -0.3 0.57Z" fill="none" stroke-width="1"></path>
    <path d="m16.66 22.64 -0.06 -0.74a3.75 3.75 0 0 1 -0.17 -0.86c-0.05 -0.6 0 -1.26 -0.08 -1.82l-0.34 -3c0 -0.14 -0.24 -0.74 -0.08 -0.86 -0.52 -0.54 -1.1 -1.25 -1.75 -1.87a4.45 4.45 0 0 0 -1.31 -0.92 2.07 2.07 0 0 1 -0.45 -0.27 9.12 9.12 0 0 0 -1.07 -0.93l-0.09 -0.07 -4 3.83a3.05 3.05 0 0 1 0 0.45 4.46 4.46 0 0 0 -0.12 0.86l0 1.44c0 0.7 0 1.41 -0.05 2.12 0 0.48 0 1 -0.1 1.44l0 1.13 0 0.32H7s0.09 0.05 0.09 0.07h2.22s0 -0.06 -0.05 -0.11 0 -0.45 0 -0.5c0 -0.34 -0.07 -0.68 -0.09 -1a3.84 3.84 0 0 1 0 -0.76 1.38 1.38 0 0 1 1 -1.07 3.87 3.87 0 0 1 1.72 0 1.37 1.37 0 0 1 1.08 0.82 4.62 4.62 0 0 1 0.15 1.49l0 0.78 0 0.17v0.08a0.42 0.42 0 0 1 0 0.18 2.25 2.25 0 0 0 0.26 0c0.73 0 1.45 0 2.17 -0.08l1.17 0a1.16 1.16 0 0 1 -0.06 -0.32ZM9.79 18.2c0 0.05 -0.06 0.4 -0.11 0.39l0 0.18c0 0.16 -0.17 0.17 -0.23 0.21s-0.23 0 -0.41 -0.17a1.34 1.34 0 0 0 0 -0.14c0 -0.06 -0.15 -0.42 -0.17 -0.49a2.16 2.16 0 0 1 -0.1 -0.44 1.74 1.74 0 0 1 0.08 -0.5 2.17 2.17 0 0 1 0.15 -0.56c0.15 -0.14 0.24 -0.25 0.37 -0.18s0.1 0 0.14 0.07a0.31 0.31 0 0 1 0.1 0.37c0.11 0 0.14 0.29 0.15 0.32a3.54 3.54 0 0 1 0.11 0.44 1.69 1.69 0 0 1 -0.08 0.5Zm2.21 -0.69c0 0.1 -0.07 0.65 -0.08 0.86a0.28 0.28 0 0 1 0 0.09c0.07 0.64 -0.65 0.31 -0.7 0.21s-0.21 -1 -0.24 -1.09a11.16 11.16 0 0 1 -0.16 -1.14 3.75 3.75 0 0 1 0 -0.58 3.88 3.88 0 0 1 0.09 -0.58l0.08 -0.63 0 -0.25v-0.09c0 -0.24 0.23 -0.25 0.27 -0.26a0.33 0.33 0 0 1 0.34 0.27s0 0 0 0.06l0 0.27 0.14 0.63c0 0.19 0.07 0.37 0.1 0.56s0 0.36 0.05 0.55c0.11 0.37 0.11 0.74 0.11 1.12Zm2.07 0a4.87 4.87 0 0 1 -0.12 0.52s0 0.29 -0.08 0.29a0.37 0.37 0 0 1 0 0.15 0.35 0.35 0 0 1 -0.35 0.35c-0.13 0 -0.24 -0.07 -0.36 -0.24a2.35 2.35 0 0 1 -0.16 -0.55 4.87 4.87 0 0 1 -0.12 -0.52 2 2 0 0 1 0 -0.35c0 -0.08 0 -1 0.48 -1.23 0.11 0 0.26 0 0.46 0.24l0 0.09A4.62 4.62 0 0 1 14 17a1.22 1.22 0 0 1 0 0.26l0 0.3Z" fill="none" stroke-width="1"></path>
    <path d="M19.19 19.78a0.38 0.38 0 0 1 -0.13 0.06 0.15 0.15 0 0 0 0.13 -0.06Z" fill="none" stroke-width="1"></path>
    <path d="m6.49 22.98 0.01 -0.03 0 0.01 -0.01 0.02z" fill="none" stroke-width="1"></path>
    <path d="M9.47 17.09a0.28 0.28 0 0 1 -0.13 0 0.12 0.12 0 0 0 0.13 0Z" fill="none" stroke-width="1"></path>
    <path d="m21.72 22.79 -0.15 -1c-0.11 -0.52 -0.12 -1.07 -0.19 -1.6a3.38 3.38 0 0 0 -0.11 -0.57 1.44 1.44 0 0 1 -0.1 -0.37l-0.51 -0.25 -2.32 -1.4 -1 -0.64 -0.26 -0.17 0.16 2.35 0 1.86a3.59 3.59 0 0 0 0.1 0.68 1.49 1.49 0 0 1 0.06 0.34l0 0.63c0 0.15 0.07 0.22 0 0.25l0.32 0a2.16 2.16 0 0 1 0.58 -0.05c0.37 0 0.77 0.07 1.09 0.08l2.33 0.13a2 2 0 0 1 0 -0.27Zm-2.27 -0.88a0.35 0.35 0 0 1 -0.7 0c-0.08 -0.33 -0.23 -0.62 -0.29 -1a1.53 1.53 0 0 1 0 -0.43 1.5 1.5 0 0 1 0.06 -0.29 5.32 5.32 0 0 1 0.17 -0.65c0.12 -0.34 0.34 -0.39 0.43 -0.34a0.32 0.32 0 0 1 0.21 0.39c0.17 0 0.21 0.55 0.22 0.6s0 0.16 0.07 0.24a1.7 1.7 0 0 1 0 0.39 5.33 5.33 0 0 1 -0.17 1.09Z" fill="none" stroke-width="1"></path>
    <path d="M12.48 23a0.57 0.57 0 0 1 -0.06 -0.15 2.7 2.7 0 0 1 0 -0.28l-0.09 -0.68a7.37 7.37 0 0 0 -0.2 -1c-0.05 -0.15 -0.17 -0.22 -0.38 -0.25a3.51 3.51 0 0 0 -1 0 1 1 0 0 0 -0.36 0.1c-0.07 0 -0.14 0.05 -0.16 0.12a2.64 2.64 0 0 0 -0.14 0.57c0 0.32 -0.07 0.65 -0.1 1 0 0 0.06 0.38 0 0.4a0.27 0.27 0 0 1 0 0.2Z" fill="none" stroke-width="1"></path>
    <path d="M7 23Z" fill="none" stroke-width="1"></path>
    <path d="M5.61 13.06Z" fill="#000000" stroke-width="1"></path>
    <path d="M5.57 12.26a3.51 3.51 0 0 0 -0.73 -0.14 1.73 1.73 0 0 0 -0.4 0c-0.09 0 -0.14 0.06 -0.18 0.06l-0.54 0.09s-0.17 0 -0.18 0.07a0.23 0.23 0 0 0 -0.14 0c-0.17 0 -0.17 0.18 -0.2 0.21s0 0.31 0.31 0.42l0.21 0 0.43 0.21a2.22 2.22 0 0 0 0.7 0c0.25 0 0.61 -0.27 0.74 -0.25a0.38 0.38 0 0 0 0.21 0.07 0.35 0.35 0 0 0 0.35 -0.35c0.08 -0.02 -0.15 -0.25 -0.58 -0.39Z" fill="#000000" stroke-width="1"></path>
    <path d="M5.42 14.44h-0.07L5 14.3a2.34 2.34 0 0 0 -0.52 -0.08 0.74 0.74 0 0 0 -0.25 0 0.91 0.91 0 0 0 -0.14 0.07l-0.37 0.15c-0.58 -0.27 -0.86 -0.06 -0.56 0.27 -0.35 0.27 -0.1 0.52 0.5 0.35l0.43 0.2a1.48 1.48 0 0 0 0.42 0.07 1.09 1.09 0 0 0 0.26 -0.05c0.09 0 0.14 -0.08 0.23 -0.11l0.32 -0.11h0.08a0.28 0.28 0 0 0 0.17 -0.33 0.3 0.3 0 0 0 -0.15 -0.29Z" fill="#000000" stroke-width="1"></path>
    <path d="M17.09 16.16s-0.06 -0.06 -0.07 0h0.05Z" fill="#000000" stroke-width="1"></path>
    <path d="M19.53 20.22s-0.05 -0.63 -0.22 -0.6a0.32 0.32 0 0 0 -0.21 -0.39c-0.09 -0.05 -0.31 0 -0.43 0.34a5.32 5.32 0 0 0 -0.17 0.65 1.5 1.5 0 0 0 -0.06 0.29 1.53 1.53 0 0 0 0 0.43c0.06 0.35 0.21 0.64 0.29 1a0.35 0.35 0 0 0 0.7 0 5.33 5.33 0 0 0 0.17 -1.06 1.7 1.7 0 0 0 0 -0.39c-0.02 -0.11 -0.05 -0.19 -0.07 -0.27Zm-0.47 -0.38a0.38 0.38 0 0 0 0.13 -0.06 0.15 0.15 0 0 1 -0.13 0.06Z" fill="#000000" stroke-width="1"></path>
    <path d="M9.61 16.94a0.31 0.31 0 0 0 -0.1 -0.37c0 -0.06 -0.1 -0.05 -0.14 -0.07s-0.22 0 -0.37 0.18a2.17 2.17 0 0 0 -0.23 0.58 1.74 1.74 0 0 0 -0.08 0.5 2.16 2.16 0 0 0 0.1 0.44c0 0.07 0.14 0.43 0.17 0.49a1.34 1.34 0 0 1 0 0.14c0.18 0.18 0.31 0.23 0.41 0.17s0.21 -0.05 0.23 -0.21l0 -0.18c0.05 0 0.1 -0.34 0.11 -0.39a1.69 1.69 0 0 0 0.08 -0.5 3.54 3.54 0 0 0 -0.11 -0.44s0.04 -0.36 -0.07 -0.34Zm-0.27 0.18a0.28 0.28 0 0 0 0.13 0 0.12 0.12 0 0 1 -0.13 0Z" fill="#000000" stroke-width="1"></path>
    <path d="m11.82 15.28 -0.14 -0.63 0 -0.27 0 -0.06a0.33 0.33 0 0 0 -0.34 -0.27s-0.27 0 -0.27 0.26v0.09c-0.07 0 0 0.21 0 0.25l-0.08 0.63a3.88 3.88 0 0 0 -0.09 0.58 3.75 3.75 0 0 0 0 0.58 11.16 11.16 0 0 0 0.16 1.14c0 0.14 0.21 1 0.24 1.09s0.77 0.43 0.7 -0.21a0.28 0.28 0 0 0 0 -0.09c0 -0.21 0.07 -0.76 0.08 -0.86l0 -1.12c0 -0.19 0 -0.37 -0.05 -0.55s-0.18 -0.37 -0.21 -0.56Z" fill="#000000" stroke-width="1"></path>
    <path d="m13.81 16.35 0 -0.09c-0.2 -0.28 -0.35 -0.28 -0.46 -0.24 -0.46 0.2 -0.48 1.15 -0.48 1.23a2 2 0 0 0 0 0.35 4.87 4.87 0 0 0 0.12 0.52 2.35 2.35 0 0 0 0.16 0.55c0.12 0.17 0.23 0.26 0.36 0.24a0.35 0.35 0 0 0 0.35 -0.35 0.37 0.37 0 0 0 0 -0.15c0.1 0 0.07 -0.25 0.08 -0.29a4.87 4.87 0 0 0 0.12 -0.52l0 -0.35A1.22 1.22 0 0 0 14 17a4.62 4.62 0 0 0 -0.19 -0.65Z" fill="#000000" stroke-width="1"></path>
    <path d="M4.4 18.72a0.32 0.32 0 0 0 -0.21 0.39 9.59 9.59 0 0 1 -0.24 1 2.71 2.71 0 0 0 0 0.76c0 0.08 0.12 0.49 0.15 0.64 0.23 0.34 0.47 0.3 0.73 0 0 -0.15 0.13 -0.56 0.15 -0.64s0.07 -0.26 0.09 -0.41a1.84 1.84 0 0 0 0 -0.47 2.28 2.28 0 0 0 -0.33 -1 0.31 0.31 0 0 0 -0.34 -0.27Z" fill="#000000" stroke-width="1"></path>
    <path d="m23.65 23.12 -1.16 -0.07 0 -0.26 0 -1.1c-0.05 -0.5 0 -1 0 -1.53a4 4 0 0 0 -0.06 -0.7c0.14 0 0 -0.41 0 -0.53a0.71 0.71 0 0 0 -0.17 -0.35 1.69 1.69 0 0 0 -0.36 -0.27c-0.18 -0.11 -0.4 -0.19 -0.57 -0.29 -0.34 -0.2 -0.66 -0.39 -1 -0.56 -0.51 -0.25 -1 -0.45 -1.58 -0.66l-1 -0.43 -0.47 -0.21h-0.1l-0.07 0H17l0 -0.85a0.77 0.77 0 0 0 -0.2 -0.48c-0.63 -0.68 -1.32 -1.66 -2.15 -2.41a5.28 5.28 0 0 0 -1.28 -0.85c-0.39 -0.17 -0.68 -0.61 -1 -0.9a2.6 2.6 0 0 0 -0.36 -0.25c0.07 -0.09 -0.3 -0.25 -0.4 -0.31a0.63 0.63 0 0 0 -0.79 0.07C9.94 11 9 11.93 8.08 12.84c0 -0.22 0.08 -0.44 0.1 -0.66a4.42 4.42 0 0 0 0 -0.63 2.84 2.84 0 0 0 -0.08 -0.42c0 -0.08 0 -0.68 -0.2 -0.68a0.33 0.33 0 0 0 0 -0.24 0.25 0.25 0 0 0 0 -0.07 0.34 0.34 0 0 0 0 -0.46 1.84 1.84 0 0 1 -0.28 -0.41c-0.13 -0.26 -0.25 -0.56 -0.35 -0.79 -0.25 -0.59 -0.49 -1.18 -0.74 -1.76 -0.18 -0.39 -0.37 -0.78 -0.56 -1.17l-0.5 -1a3.47 3.47 0 0 0 -0.23 -0.37 0.65 0.65 0 0 0 -0.24 -0.1l0 -0.28c0 -0.43 0.11 -0.85 0.13 -1.28l0 -0.53 0.71 -0.16a0.35 0.35 0 0 0 0.35 -0.35 0.34 0.34 0 0 0 -0.35 -0.35C5.49 1.06 5.21 1 4.92 1l-0.1 -0.47c0 -0.06 0 -0.37 -0.06 -0.38a0.38 0.38 0 0 0 0 -0.15c-0.07 -0.35 -0.38 -0.21 -0.47 -0.17a0.42 0.42 0 0 0 -0.15 0.26c0 0.1 -0.06 0.38 -0.07 0.44l0 0.4H4c-0.33 0.06 -0.62 0.16 -1 0.24a0.31 0.31 0 1 0 0 0.61 7.32 7.32 0 0 0 0.9 0.22l0 0.51c0 0.42 0.12 0.83 0.16 1.25 0 0.09 0 0.3 0.06 0.5a2 2 0 0 0 -0.41 0.41 4.53 4.53 0 0 0 -0.56 1.06l-0.9 2.12c-0.18 0.36 -0.35 0.71 -0.51 1.06s-0.2 0.49 -0.29 0.75c0 0 -0.12 0.33 -0.17 0.45a0.2 0.2 0 0 1 0 0.05c-0.14 -0.05 -0.1 0 0 0.14a1.28 1.28 0 0 0 -0.05 0.49l0 2.13c0 0.8 -0.06 1.59 -0.12 2.4S1 17 1 17.78l0 1.26 0 2.56 0 0.9 0 0.41a0.47 0.47 0 0 0 0.09 0.2H0.94l-0.59 0 -0.13 0a0.29 0.29 0 0 0 -0.21 0.35 0.31 0.31 0 0 0 0.36 0.25s0 -0.06 0.12 -0.06a3.15 3.15 0 0 1 0.43 0.07c0.38 0 0.89 0.11 1.35 0.12A2.15 2.15 0 0 0 3 23.8a0.85 0.85 0 0 1 0.32 0c0.35 0 0.73 0.12 1.06 0.13l3.82 0.22c1.47 0 3 0.11 4.44 0.1a27.65 27.65 0 0 0 3 -0.17c0.49 -0.07 1.05 0 1.58 -0.11a3.78 3.78 0 0 0 0.76 -0.14 1.82 1.82 0 0 1 0.48 0l0.94 0 4.25 0a0.35 0.35 0 0 0 0.35 -0.35 0.35 0.35 0 0 0 -0.35 -0.36Zm-6.37 -6.74a0.34 0.34 0 0 0 -0.11 -0.17 0.23 0.23 0 0 1 0.11 0.17ZM7.36 15c0.07 0 0 0.11 -0.08 0.15s0.01 -0.15 0.08 -0.15ZM4.52 0.4a0.23 0.23 0 0 1 -0.23 0 0.27 0.27 0 0 0 0.23 0Zm-2.1 8.86c0.19 -0.33 0.4 -0.64 0.61 -1s0.52 -0.8 0.76 -1.22 0.31 -0.59 0.44 -0.88a3.38 3.38 0 0 1 0.34 -0.65l0.33 0.56 1.54 2.77c0.12 0.22 0.27 0.5 0.43 0.76a15.62 15.62 0 0 0 -1.81 -0.18H5a2.15 2.15 0 0 0 0.14 -0.62 2.31 2.31 0 0 0 -0.05 -0.46 5.48 5.48 0 0 1 -0.23 -0.51 0.28 0.28 0 0 0 -0.07 -0.21c0 -0.06 -0.41 -0.18 -0.58 0.24 -0.07 0.14 -0.21 0.47 -0.21 0.55a2.57 2.57 0 0 0 0 0.48 3.57 3.57 0 0 0 0.23 0.57l-0.61 0.08 -1.26 0.23 -0.24 0.06q0.14 -0.28 0.3 -0.57Zm-0.42 0.8a0.25 0.25 0 0 1 0.09 0.09 0.76 0.76 0 0 0 -0.09 -0.09Zm-0.44 12.52a0.34 0.34 0 0 0 -0.41 0.07 0.29 0.29 0 0 1 0.41 -0.07Zm1.75 0.4a1.57 1.57 0 0 0 -0.58 0.09 1.51 1.51 0 0 1 -0.45 0.08l-0.63 0a0.35 0.35 0 0 0 0.08 -0.32c0.06 0 0 -0.27 0 -0.31l0.06 -0.9L2 19c0 -0.48 0.07 -1 0.1 -1.44 0.05 -0.74 0.11 -1.48 0.13 -2.23a17.72 17.72 0 0 0 -0.15 -2.53c-0.08 -0.47 0 -1.05 0 -1.58a2.52 2.52 0 0 0 -0.08 -0.75l0 -0.07a0.29 0.29 0 0 1 0.22 0.09s-0.07 0.07 -0.1 0.08h0.33l0.83 0.11 0.59 0 3.37 -0.34 0.1 0a4.18 4.18 0 0 0 -0.13 0.81c0 0.14 -0.07 0.27 -0.09 0.41a4.33 4.33 0 0 0 0 0.62 13.62 13.62 0 0 0 0.22 1.56l-0.69 0.73a0.69 0.69 0 0 0 -0.19 0.41l0 0.52a5.15 5.15 0 0 0 -0.09 0.81l0 1.73c0 0.7 0.06 1.41 0.07 2.11l0 1.38 0 1.2 0 0.42h-2c-0.44 0 -0.78 -0.05 -1.13 -0.05Zm3.15 0Zm0 0Zm0 0Zm3.4 -0.15c0.09 0 0 -0.36 0 -0.4 0 -0.33 0.05 -0.66 0.1 -1a2.64 2.64 0 0 1 0.14 -0.57c0 -0.07 0.09 -0.09 0.16 -0.12a1 1 0 0 1 0.36 -0.1 3.51 3.51 0 0 1 1 0c0.21 0 0.33 0.1 0.38 0.25a7.37 7.37 0 0 1 0.2 1l0.09 0.68a2.7 2.7 0 0 0 0 0.28 0.57 0.57 0 0 0 0.06 0.15H9.87a0.27 0.27 0 0 0 0.02 -0.17Zm5.63 0.13c-0.72 0.06 -1.44 0.07 -2.17 0.08a2.25 2.25 0 0 1 -0.26 0 0.42 0.42 0 0 0 0 -0.18v-0.08l0 -0.17 0 -0.78a4.62 4.62 0 0 0 -0.06 -1.49 1.37 1.37 0 0 0 -1.08 -0.82 3.87 3.87 0 0 0 -1.72 0 1.38 1.38 0 0 0 -1 1.07 3.84 3.84 0 0 0 0 0.76c0 0.35 0.06 0.69 0.09 1l0 0.5c0 0.12 0 0.07 0.05 0.11H7.1l-0.09 -0.07L7 23a0.15 0.15 0 0 1 0 -0.08l0 -0.32 0 -1.13c0 -0.48 0.08 -1 0.1 -1.44 0 -0.71 0 -1.42 0.05 -2.12l0 -1.44a4.46 4.46 0 0 1 0.12 -0.86 3.05 3.05 0 0 0 0 -0.45l4 -3.83 0.09 0.07a9.12 9.12 0 0 1 1.07 0.93 2.07 2.07 0 0 0 0.45 0.27 4.45 4.45 0 0 1 1.31 0.92c0.65 0.62 1.23 1.33 1.75 1.87 -0.16 0.12 0.06 0.72 0.08 0.86l0.34 3c0.07 0.56 0 1.22 0.08 1.82a3.75 3.75 0 0 0 0.17 0.86l0.06 0.74 0 0.29a4.42 4.42 0 0 0 -1.15 0.04Zm2.79 -0.16a2.16 2.16 0 0 0 -0.58 0.05l-0.32 0 0 -0.25 0 -0.63a1.49 1.49 0 0 0 -0.06 -0.34 3.59 3.59 0 0 1 -0.1 -0.68l0 -1.86 -0.22 -2.31 0.26 0.17 1 0.64 2.4 1.41 0.51 0.27a1.44 1.44 0 0 0 0.1 0.37 3.38 3.38 0 0 1 0.11 0.57c0.07 0.53 0.08 1.08 0.19 1.6l0.15 1a2 2 0 0 0 0 0.22l-2.33 -0.13c-0.31 -0.03 -0.71 -0.1 -1.08 -0.1Z" fill="#000000" stroke-width="1"></path>
    <path d="M0.39 23.76c0 0.12 0.06 0 0.12 -0.06a0.43 0.43 0 0 1 -0.12 0.05Z" fill="#000000" stroke-width="1"></path>
  </g>
</svg>