<svg xmlns="http://www.w3.org/2000/svg" viewBox="0 0 24 24" id="Landmark-Cathedral-Of-Havana-Cuba--Streamline-Freehand">
  <desc>
    Landmark Cathedral Of Havana Cuba Streamline Icon: https://streamlinehq.com
  </desc>
  <title>landmark-cathedral-of-havana-cuba</title>
  <g>
    <path d="M23.88 7.18a0.33 0.33 0 0 0 0.05 -0.46 18.13 18.13 0 0 1 -1 -2.44 2.81 2.81 0 0 0 -0.45 -0.67 0.89 0.89 0 0 0 -0.56 -0.22 6.6 6.6 0 0 0 -0.83 0 2.29 2.29 0 0 0 0.08 -0.28 1.06 1.06 0 0 0 0 -0.31 1.76 1.76 0 0 0 0 -0.31c-0.05 -0.25 -0.13 -0.46 -0.19 -0.71a0.34 0.34 0 0 0 -0.33 -0.34 0.35 0.35 0 0 0 -0.34 0.33 6.17 6.17 0 0 0 -0.19 0.74 1.55 1.55 0 0 0 0 0.31 1.63 1.63 0 0 0 0 0.31 2.29 2.29 0 0 0 0.12 0.37h-0.07a1.81 1.81 0 0 0 -0.67 0.32 0.8 0.8 0 0 0 -0.23 0.33c0 0.16 -0.06 0.42 -0.09 0.52a7.32 7.32 0 0 1 -0.23 0.8c-0.09 0.26 -0.18 0.51 -0.29 0.77a0.28 0.28 0 0 0 0 0.29c-0.26 1.92 -0.41 3.87 -0.49 5.83a3.68 3.68 0 0 1 -1 -0.83 10.78 10.78 0 0 1 -1.44 -2.55 1.18 1.18 0 0 0 -0.4 -0.41c-0.34 -0.24 -0.94 -0.47 -1.16 -0.61s-0.51 -0.29 -0.77 -0.43l-1.15 -0.56c-0.1 0 -0.36 -0.22 -0.54 -0.29 0.06 -0.27 0.12 -0.54 0.16 -0.83s0 -0.35 0 -0.53l0.17 0c0.45 -0.06 0.87 -0.15 1.3 -0.25a0.32 0.32 0 0 0 0.31 -0.35 0.33 0.33 0 0 0 -0.35 -0.31c-0.45 0 -0.87 -0.12 -1.32 -0.15h-0.13c0 -0.35 0 -0.7 -0.06 -1.06a0.34 0.34 0 0 0 -0.29 -0.37 0.33 0.33 0 0 0 -0.37 0.3c-0.1 0.4 -0.19 0.79 -0.26 1.19a6.54 6.54 0 0 0 -1.28 0.4 0.29 0.29 0 0 0 -0.23 0.34 0.3 0.3 0 0 0 0.35 0.23c0.36 0 0.69 0 1 0.06l0 0.49c0 0.31 0.07 0.62 0.12 0.92l-0.21 0.09c-0.33 0.17 -0.68 0.43 -0.94 0.57 -0.49 0.29 -1 0.54 -1.51 0.83a7.57 7.57 0 0 0 -0.66 0.44 1 1 0 0 0 -0.3 0.36c-0.15 0.29 -0.26 0.75 -0.41 1a8.23 8.23 0 0 1 -0.95 1.17c-0.16 0.16 -0.35 0.3 -0.53 0.45l0 -1.06 0 -2.67a11.43 11.43 0 0 0 -0.11 -1.19 0.52 0.52 0 0 0 -0.52 -0.37l-0.83 0.07 -3 0.13c0.17 -0.23 0.35 -0.45 0.5 -0.69 1 -1.51 0.73 -1.42 1 -1.38a4.09 4.09 0 0 0 1 0c0.2 0 0.18 -0.08 0.49 0.34a13.08 13.08 0 0 0 1 1.37 0.34 0.34 0 0 0 0.47 0 0.33 0.33 0 0 0 0 -0.47C5 5.31 4.8 4.59 4.49 4.09A1.85 1.85 0 0 0 4 3.71a1 1 0 0 0 -0.45 -0.14 3.92 3.92 0 0 0 -0.49 0 2.19 2.19 0 0 0 0 -0.36 1.51 1.51 0 0 0 0 -0.37c0 -0.29 -0.09 -0.56 -0.14 -0.85a0.33 0.33 0 1 0 -0.66 -0.05c-0.09 0.29 -0.19 0.56 -0.25 0.85C2 2.89 2 3 2 3.14a2.29 2.29 0 0 0 0 0.37h-0.17a0.7 0.7 0 0 0 -0.57 0.33c-0.26 0.7 -0.51 1.35 -0.81 2 -0.12 0.27 -0.24 0.54 -0.39 0.81a0.29 0.29 0 0 0 0.08 0.41l0 1.74c0 1 -0.1 2 -0.14 3l0 2c0 0.66 0 1.59 0.07 2.38 0.08 1.82 0.23 3.7 0.32 5.55a0.32 0.32 0 0 0 0.17 0.27 0.33 0.33 0 0 0 0.29 0.21l1.87 0a7.23 7.23 0 0 0 1.28 -0.1c0.18 0 0.51 0 0.77 -0.08l0.17 -0.03s2.58 0.19 4.46 0.27c1.07 0 2.15 0 3.23 0.1s2.42 0.15 3.65 0.16a12.1 12.1 0 0 0 2.18 -0.18 1.62 1.62 0 0 0 0.4 0.05c0.34 0 0.76 -0.08 1 -0.09l1.15 0 1.77 0.06a0.34 0.34 0 0 0 0.36 -0.31 0.33 0.33 0 0 0 0.12 -0.27c-0.07 -1.59 0 -3.26 0 -4.93s0.21 -3.32 0.43 -4.9a13.12 13.12 0 0 0 0.05 -2c0 -0.93 -0.14 -1.87 -0.19 -2.68a0.31 0.31 0 0 0 0.33 -0.1Zm-1.21 2.6c-0.41 -0.06 -0.82 -0.13 -1.23 -0.17l-0.62 0 -0.61 0c-0.37 0.05 -0.72 0.12 -1.08 0.2V9q0 -1 0.09 -2l2.78 0.32a5.81 5.81 0 0 0 0.66 0.16c0 0.71 0.01 1.52 0.01 2.3Zm-3.49 3.84c0 -1 0 -2.07 -0.05 -3.1 0.37 0.07 0.72 0.13 1.09 0.17l0.61 0 0.61 0 1.22 -0.17a12.17 12.17 0 0 1 -0.08 1.27c-0.07 0.69 -0.12 1.39 -0.17 2.09 -0.35 0 -0.71 -0.08 -1.07 -0.1s-0.42 0 -0.62 0a6.18 6.18 0 0 0 -0.62 0.07 8.85 8.85 0 0 0 -0.92 0.24ZM20 5c0.16 -0.34 0.07 -0.38 0.49 -0.42l0.61 0c0.7 -0.06 0.65 -0.18 0.94 0.22s0.59 1.2 0.96 1.72l-0.92 0 -2.78 -0.18ZM1.12 13.46l0 -1.37c0 -0.46 0 -1.16 -0.07 -1.74a9 9 0 0 0 1.27 0.3 4.08 4.08 0 0 0 0.61 0 6 6 0 0 0 0.61 0c0.23 0 0.46 -0.08 0.68 -0.12v0.15l0 2.76 -1.07 -0.07 -0.94 0c-0.31 0 -0.73 0.05 -1.09 0.09ZM3.76 7.3l0.54 0 0 0.73c0 0.55 0 1.1 -0.07 1.64l-0.75 -0.06 -0.58 0 -0.58 0c-0.45 0 -0.87 0.11 -1.32 0.14l0 -0.21C1 8.76 0.9 8 0.83 7.26Zm0.09 14a7.73 7.73 0 0 1 -1.16 0.17c-0.54 0 -1.08 0 -1.63 0.05 0 -1.79 0.08 -3.58 0.08 -5.37l0 -1.92a6 6 0 0 0 0.84 0.18 4.44 4.44 0 0 0 0.63 0l0.62 0c0.2 0 0.67 -0.12 1 -0.2v0.1c0 1.22 0.09 2.43 0.16 3.65l0.12 2.65 0 0.57Zm6.47 -2.54a3.39 3.39 0 0 1 0.4 -1.49 0.8 0.8 0 0 1 0.75 -0.4 0.77 0.77 0 0 1 0.68 0.47 4 4 0 0 1 0.27 1.17c0.08 0.89 0 1.84 0 2.71 -0.73 0 -1.45 0 -2.18 -0.06 0.05 -0.69 0 -1.56 0.08 -2.38Zm6.59 2.91c-0.36 0 -0.72 0 -1.08 -0.08 0.07 -0.87 0.12 -1.74 0.14 -2.61l0 -1.25c0 -0.42 0 -0.83 -0.08 -1.24 -0.09 -1 -0.23 -1.91 -0.31 -2.87a0.3 0.3 0 1 0 -0.59 0c-0.09 1.11 -0.18 2.21 -0.17 3.33 0 0.66 0 1.32 0.09 2 0.07 0.86 0.15 1.71 0.21 2.58l-1.94 -0.24c0.05 -0.89 0.22 -1.87 0.22 -2.8a5 5 0 0 0 -0.23 -1.49 1.81 1.81 0 0 0 -1.65 -1.21 1.86 1.86 0 0 0 -1.76 1 4.17 4.17 0 0 0 -0.34 1.48 20.35 20.35 0 0 0 0.25 2.91h-0.26l-1.31 0.05c0.05 -0.75 0.08 -1.49 0.1 -2.25l0 -1.25c0 -0.42 0 -0.83 -0.08 -1.25 -0.09 -1 -0.25 -1.93 -0.38 -2.9a0.3 0.3 0 0 0 -0.31 -0.28 0.29 0.29 0 0 0 -0.28 0.31c0 1 -0.09 1.94 -0.1 2.92l0 1.25c0 0.42 0.05 0.83 0.08 1.24 0.06 0.75 0.13 1.49 0.2 2.24l-1.89 0.07 0 -0.73v-2.66l-0.1 -5.42a10.1 10.1 0 0 0 1 -0.73 9.88 9.88 0 0 0 1.1 -1.19L8 9.54l0.61 -0.34c0.51 -0.25 1.05 -0.47 1.55 -0.73 1.63 -0.87 0.36 -0.94 3.38 0.53l1.23 0.54a11.72 11.72 0 0 0 1.75 2.65 4.86 4.86 0 0 0 1.59 1c0 0.52 0 1 -0.05 1.56l0 3.48L18 21l0 0.64a9.89 9.89 0 0 1 -1.09 0.05Zm2.91 -0.24 -0.8 0 0 -0.43 0.15 -2.78 0 -3.45c0.33 0 0.66 0.05 1 0.06s0.4 0 0.61 0l0.59 -0.07 1 -0.16c0 0.71 -0.06 1.42 -0.06 2.14a48.17 48.17 0 0 0 0.24 4.85c-0.51 0 -1 -0.1 -1.52 -0.13s-0.81 0 -1.21 -0.01Z" fill="#000000" fill-rule="evenodd" stroke-width="1"></path>
    <path d="M11 9.82a0.33 0.33 0 0 0 -0.35 0.31 2 2 0 0 0 -1.08 1.58 1.66 1.66 0 0 0 1.93 1.82 1.62 1.62 0 0 0 1.67 -1.61A2.18 2.18 0 0 0 11 9.82Zm0.42 2.59c-0.59 0.07 -0.91 -0.26 -0.92 -0.67a1.2 1.2 0 0 1 0.8 -1.17 1.42 1.42 0 0 1 0.86 1c0.05 0.43 -0.16 0.82 -0.78 0.84Z" fill="#000000" fill-rule="evenodd" stroke-width="1"></path>
  </g>
</svg>