<svg xmlns="http://www.w3.org/2000/svg" viewBox="0 0 24 24" id="Learning-Light-Idea--Streamline-Freehand">
  <desc>
    Learning Light Idea Streamline Icon: https://streamlinehq.com
  </desc>
  <g>
    <path d="M7.18 15.16a5.13 5.13 0 0 1 -0.51 0.53 1.55 1.55 0 0 1 -0.55 0.3 0.84 0.84 0 0 1 -0.45 0 3.05 3.05 0 0 1 -0.41 0.01 1.41 1.41 0 0 1 -0.62 -0.32 0.28 0.28 0 0 0 -0.48 0.3A2.07 2.07 0 0 0 5.36 17a1.65 1.65 0 0 0 1.22 0 2.27 2.27 0 0 0 0.62 -0.53 3.81 3.81 0 0 0 0.53 -1 0.31 0.31 0 0 0 -0.12 -0.47 0.3 0.3 0 0 0 -0.43 0.16Z" fill="#000000" fill-rule="evenodd" stroke-width="1"></path>
    <path d="M6.67 13.6c0.15 0 0.42 -0.6 0.42 -0.62s-0.3 -0.57 -0.42 -0.61 -0.25 -0.07 -0.63 0.46A0.25 0.25 0 0 0 6 13a0.22 0.22 0 0 0 0 0.13c0.35 0.45 0.49 0.52 0.67 0.47Z" fill="#000000" fill-rule="evenodd" stroke-width="1"></path>
    <path d="M4.54 13.48a0.21 0.21 0 0 0 -0.06 -0.1C4 12.9 3.87 13 3.86 13c-0.21 0.05 -0.36 0.66 -0.36 0.68a0.17 0.17 0 0 0 0 0.12 0.33 0.33 0 0 0 0.06 0.1c0.46 0.48 0.53 0.45 0.66 0.41 0.3 -0.08 0.32 -0.82 0.32 -0.83Z" fill="#000000" fill-rule="evenodd" stroke-width="1"></path>
    <path d="M16.12 15.89a1.64 1.64 0 0 0 -1.51 0.29 4.27 4.27 0 0 0 -0.95 1.1 9.64 9.64 0 0 1 -0.66 1 1.86 1.86 0 0 1 -1.93 0.64 5 5 0 0 1 -2 -1.08 4.1 4.1 0 0 0 0.51 -0.64 5.68 5.68 0 0 0 0.78 -2.2 4.12 4.12 0 0 0 -0.36 -2.4 4 4 0 0 0 -2.6 -2.19C4.31 9.61 2 12.36 1.61 14a4.42 4.42 0 0 0 1 4.14 4.37 4.37 0 0 0 0.56 0.49 4.84 4.84 0 0 0 -1.79 2.21 10.54 10.54 0 0 0 -0.33 1 10 10 0 0 0 -0.24 1 3.19 3.19 0 0 0 -0.08 0.75A0.32 0.32 0 0 0 1 24a0.32 0.32 0 0 0 0.34 -0.3 3 3 0 0 1 0.16 -0.59c0.12 -0.31 0.27 -0.6 0.41 -0.91s0.34 -0.74 0.51 -1.1a8.48 8.48 0 0 1 0.53 -1 5.7 5.7 0 0 1 0.78 -1 4 4 0 0 0 3.06 0.17 6.27 6.27 0 0 0 1.52 -0.73 3.11 3.11 0 0 0 0.28 -0.23 5.24 5.24 0 0 0 2.84 1.57 2.67 2.67 0 0 0 2.29 -0.88c0.38 -0.39 0.8 -1.2 1.32 -1.73a0.77 0.77 0 0 1 0.77 -0.31 0.67 0.67 0 0 1 0.45 0.51 2.39 2.39 0 0 1 0 1 6.27 6.27 0 0 1 -0.82 2.27 4.07 4.07 0 0 1 -1.72 1.59 0.32 0.32 0 0 0 -0.17 0.42 0.32 0.32 0 0 0 0.42 0.17 4.69 4.69 0 0 0 2.14 -1.74 7.32 7.32 0 0 0 1.1 -2.51 3.16 3.16 0 0 0 -0.06 -1.8 1.62 1.62 0 0 0 -1.03 -0.98Zm-8.38 1.67a5 5 0 0 1 -1.26 0.6 3 3 0 0 1 -3.17 -0.69 3.63 3.63 0 0 1 -1 -3.29 4.34 4.34 0 0 1 1 -2 4.29 4.29 0 0 1 3.79 -1.07A3.18 3.18 0 0 1 9.2 13a3.43 3.43 0 0 1 0.19 1.85 4.82 4.82 0 0 1 -0.71 1.8 3.09 3.09 0 0 1 -0.94 0.91Z" fill="#000000" fill-rule="evenodd" stroke-width="1"></path>
    <path d="M17 3.76a3.75 3.75 0 0 0 -3.83 2.17 2.38 2.38 0 0 0 0 1.89c0.46 1.1 1.67 2.07 2 3.14a2.19 2.19 0 0 0 0.43 1.95 1.45 1.45 0 0 0 1.66 0.19 1.59 1.59 0 0 0 0.63 -0.6 2.94 2.94 0 0 0 0.33 -1c0.7 -2.65 0.81 -1.57 1.6 -3a2.72 2.72 0 0 0 0.33 -1.61A3.34 3.34 0 0 0 17 3.76Zm0.26 8.15a0.71 0.71 0 0 1 -0.41 0.26 0.65 0.65 0 0 1 -0.41 0 0.63 0.63 0 0 1 -0.32 -0.19 1.28 1.28 0 0 1 -0.33 -0.88 4 4 0 0 0 0.69 0.12 1.93 1.93 0 0 0 0.34 0 2 2 0 0 0 0.33 -0.08l0.3 -0.1a0.28 0.28 0 0 0 0.14 0.24 3 3 0 0 1 -0.38 0.63ZM19 8.05c-0.35 0.77 -1 1.4 -1.38 2.18 -0.21 0 -0.42 -0.07 -0.64 -0.08h-0.34l-0.33 0.06c-0.27 0.08 -0.48 0.21 -0.74 0.31 -0.34 -1 -1.3 -2 -1.64 -3A1.45 1.45 0 0 1 14 6.33a2.81 2.81 0 0 1 2.86 -1.5 2.41 2.41 0 0 1 2.31 2.09A1.91 1.91 0 0 1 19 8.05Z" fill="#000000" fill-rule="evenodd" stroke-width="1"></path>
    <path d="M9.68 4.67a2.71 2.71 0 0 0 0.51 0.38 0.68 0.68 0 0 0 0.24 0.08 1 1 0 0 0 0.25 0 3.19 3.19 0 0 0 0.61 -0.08 0.31 0.31 0 0 0 0.36 -0.26 0.32 0.32 0 0 0 -0.26 -0.37c-0.18 -0.09 -0.32 -0.19 -0.51 -0.28l-0.22 -0.08a0.85 0.85 0 0 0 -0.23 0c-0.22 0 -0.37 0.06 -0.59 0.08a0.28 0.28 0 0 0 -0.16 0.54Z" fill="#000000" fill-rule="evenodd" stroke-width="1"></path>
    <path d="M12.56 1.69a1.33 1.33 0 0 0 0.14 0.19 1.06 1.06 0 0 0 0.2 0.17 2.92 2.92 0 0 0 0.57 0.33 0.33 0.33 0 0 0 0.45 0 0.32 0.32 0 0 0 0 -0.45c-0.1 -0.19 -0.15 -0.37 -0.26 -0.55a1.26 1.26 0 0 0 -0.25 -0.31 2.12 2.12 0 0 0 -0.71 -0.36 0.28 0.28 0 0 0 -0.4 0 0.29 0.29 0 0 0 0 0.4c0.13 0.22 0.16 0.39 0.26 0.58Z" fill="#000000" fill-rule="evenodd" stroke-width="1"></path>
    <path d="M18.63 2.39a0.32 0.32 0 0 0 0.37 -0.22c0.13 -0.2 0.26 -0.36 0.37 -0.56s0.09 -0.17 0.13 -0.25a2.29 2.29 0 0 0 0.07 -0.28l0 -0.7a0.29 0.29 0 0 0 -0.14 -0.38 0.27 0.27 0 0 0 -0.36 0.17 5.85 5.85 0 0 0 -0.45 0.54 1.23 1.23 0 0 0 -0.12 0.29 1.5 1.5 0 0 0 -0.06 0.29 3.35 3.35 0 0 0 0 0.71 0.32 0.32 0 0 0 0.19 0.39Z" fill="#000000" fill-rule="evenodd" stroke-width="1"></path>
    <path d="M23.19 2.57a0.28 0.28 0 0 0 -0.4 0 5.58 5.58 0 0 0 -0.66 0.3 1.37 1.37 0 0 0 -0.23 0.13l-0.2 0.21c-0.15 0.18 -0.25 0.36 -0.42 0.53a0.33 0.33 0 0 0 -0.09 0.45 0.32 0.32 0 0 0 0.44 0.09 3.65 3.65 0 0 0 0.71 -0.28 1.59 1.59 0 0 0 0.27 -0.18 1.47 1.47 0 0 0 0.21 -0.22 6.77 6.77 0 0 0 0.36 -0.6 0.28 0.28 0 0 0 0.01 -0.43Z" fill="#000000" fill-rule="evenodd" stroke-width="1"></path>
  </g>
</svg>