<svg xmlns="http://www.w3.org/2000/svg" viewBox="0 0 24 24" id="Light-Mode-Flash-Auto--Streamline-Freehand">
  <desc>
    Light Mode Flash Auto Streamline Icon: https://streamlinehq.com
  </desc>
  <g>
    <path d="M7.18 15.21c0.45 -1.38 1.54 -3.18 1.25 -4.8 -0.23 -1.26 -2.31 -0.57 -2.95 -0.62C3.6 9.66 3.58 8.22 4 6.36A50.13 50.13 0 0 1 5.66 0.82a0.28 0.28 0 0 0 -0.53 -0.2c-1.64 4.32 -4.29 9.79 0.26 10.24 0.25 0 1.77 -0.18 2 -0.17 0.17 1.17 -0.77 3 -1.14 4.22 -0.79 2.71 -1.2 5.43 -1.78 8.2a0.32 0.32 0 0 0 0.63 0.14c0.67 -2.7 1.19 -5.42 2.08 -8.04Z" fill="#000000" stroke-width="1"></path>
    <path d="M13.73 2.45c-0.37 1.09 -1.15 2.26 -0.68 2.7 1.16 1.09 4.4 0.49 4.82 1.3a2.16 2.16 0 0 1 0 1.49c-0.49 1.89 -1.49 2.51 -1 2.83a0.33 0.33 0 0 0 0.45 -0.1c1.29 -2 2.45 -4.66 0.2 -5.43 -0.94 -0.32 -2.87 -0.39 -3.52 -0.7 0.47 -1.22 1.56 -3.2 0.51 -4.14 -0.76 -0.68 -2 -0.32 -3.19 -0.32a23 23 0 0 0 -5 0.36 0.29 0.29 0 0 0 0.2 0.56 20.67 20.67 0 0 1 4.83 0c2.06 0.08 3.06 -0.51 2.38 1.45Z" fill="#000000" stroke-width="1"></path>
    <path d="M10.51 18.56a20.64 20.64 0 0 0 -2.71 2.26c-0.79 0.8 -1.48 1.66 -2.3 2.64a0.32 0.32 0 1 0 0.46 0.45A30.63 30.63 0 0 0 10.88 19a0.28 0.28 0 0 0 -0.37 -0.44Z" fill="#000000" stroke-width="1"></path>
    <path d="M21.05 17.24c-0.34 -3.11 -1.89 -5.77 -4.91 -5.12 -2.17 0.46 -3.92 2.37 -4 6.14a22.38 22.38 0 0 0 0.65 5.34 0.28 0.28 0 0 0 0.33 0.23c0.65 -0.12 -0.33 -1.45 -0.15 -5.15a33.41 33.41 0 0 0 5.45 -0.33 0.33 0.33 0 0 0 0 -0.65A12.4 12.4 0 0 0 13 18c0.24 -2.23 1.16 -4.33 3.36 -4.8s3.46 1.82 3.82 4.17a36.94 36.94 0 0 1 0.19 5.21 0.33 0.33 0 0 0 0.65 0 37.85 37.85 0 0 0 0.03 -5.34Z" fill="#000000" stroke-width="1"></path>
  </g>
</svg>