<svg xmlns="http://www.w3.org/2000/svg" viewBox="0 0 24 24" id="Magic-Pentagram--Streamline-Freehand">
  <desc>
    Magic Pentagram Streamline Icon: https://streamlinehq.com
  </desc>
  <path d="m23.42 17.06 -2.23 -4.44c-0.28 -0.5 -0.58 -1 -0.87 -1.5 0.2 -0.36 0.41 -0.72 0.62 -1.08l2 -3.65a4.27 4.27 0 0 0 0.46 -1.22 1 1 0 0 0 -0.12 -0.66 0.66 0.66 0 0 0 -0.43 -0.25 4.73 4.73 0 0 0 -0.6 0L20 4.1a23.16 23.16 0 0 0 -2.63 0.07c-0.65 0 -1.3 0.13 -2 0.21L15.06 4c-0.68 -0.72 -1.37 -1.58 -2.11 -2.3C11.68 0.44 11.77 0.31 11.51 0.52a4.12 4.12 0 0 0 -0.75 0.8c-0.31 0.43 -0.57 0.9 -0.84 1.31C9.4 3.41 8.9 4.2 8.4 5c-0.05 0.07 -0.09 0.15 -0.14 0.23l-6.21 0.67a0.28 0.28 0 0 0 -0.25 0.32 0.29 0.29 0 0 0 0.31 0.25c1.24 -0.13 2.49 -0.23 3.73 -0.33l2 -0.13c-0.29 0.46 -0.58 0.93 -0.85 1.4l-2 3.47c-0.69 -1 -1.35 -2.12 -2.09 -3.11a10.33 10.33 0 0 0 -1.28 -1.34 0.28 0.28 0 1 0 -0.4 0.4 9.8 9.8 0 0 1 1 1.33c0.73 1.12 1.34 2.4 2 3.5l0.1 0.15 -2.11 3.67L1 17.41a7.47 7.47 0 0 0 -0.43 0.59 0.66 0.66 0 0 0 0.17 0.71 1.58 1.58 0 0 0 0.79 0.43 5.5 5.5 0 0 0 1.61 0L6.82 19l2.36 -0.1c0.49 0.81 1 1.63 1.49 2.43s0.84 1.3 1.3 1.92 0.86 1.28 4 -4.76l2.42 -0.24 2.85 0a8.94 8.94 0 0 0 1.27 -0.11 0.32 0.32 0 0 0 0.27 -0.37 0.32 0.32 0 0 0 -0.37 -0.27 9.23 9.23 0 0 1 -1.18 0.07c-1 0 -1.92 -0.1 -2.88 -0.07l-1.85 0.13 0.23 -0.37q1.53 -2.55 3 -5.15c0.2 0.33 0.42 0.66 0.62 1l2.48 4.32a0.32 0.32 0 0 0 0.44 0.11 0.33 0.33 0 0 0 0.15 -0.48ZM16.59 5.27A27.2 27.2 0 0 1 20 5.18l2.32 0.19c-0.11 0.21 -0.27 0.43 -0.3 0.5L20 9.53c-0.09 0.19 -0.2 0.37 -0.29 0.55 -0.42 -0.67 -0.84 -1.34 -1.29 -2S17.37 6.65 16.82 6c-0.19 -0.23 -0.39 -0.44 -0.58 -0.66ZM10.46 3c0.25 -0.41 0.5 -0.88 0.79 -1.3 0.1 -0.14 0.21 -0.28 0.32 -0.41a7.87 7.87 0 0 1 1.19 1.19c0.57 0.67 1.09 1.41 1.61 2.06 -1 0.14 -2 0.28 -3 0.38l-2.2 0.24C9.6 4.4 10 3.68 10.46 3ZM6.77 18l-3.69 0.21a7.32 7.32 0 0 1 -1 0l-0.31 0A0.9 0.9 0 0 0 2 18l1.15 -2c0.46 -0.81 0.93 -1.63 1.38 -2.45l0.47 -0.79c0.94 1.35 2 2.62 2.86 4 0.26 0.36 0.48 0.75 0.72 1.12Zm5.72 4.91c-0.42 -0.62 -0.79 -1.27 -1.16 -1.92s-0.75 -1.39 -1.12 -2.08l3.58 -0.15 1.2 -0.12c-0.82 1.36 -1.66 2.78 -2.5 4.19Zm3.53 -6 -0.51 0.88 -1.76 0.13 -4.07 0.06c-0.31 -0.56 -0.61 -1.13 -0.94 -1.68s-0.69 -1.06 -1.07 -1.57c-0.7 -1 -1.44 -1.91 -2.14 -2.87 0.71 -1.42 1.47 -2.74 2.13 -4.04 0.34 -0.63 0.7 -1.26 1.05 -1.88l2.75 -0.19c1.19 -0.09 2.4 -0.21 3.61 -0.33 0.31 0.39 0.62 0.78 0.92 1.19 0.52 0.69 1 1.4 1.53 2.11s1.1 1.59 1.63 2.4Q17.62 14 16 16.8Z" fill="#000000" fill-rule="evenodd" stroke-width="1"></path>
</svg>