<svg xmlns="http://www.w3.org/2000/svg" viewBox="0 0 24 24" id="Mediaval-Fantasy-Cross-Holy-Altar--Streamline-Freehand">
  <desc>
    Mediaval Fantasy Cross Holy Altar Streamline Icon: https://streamlinehq.com
  </desc>
  <title>mediaval-fantasy-cross-holy-altar</title>
  <g>
    <path d="M14.46 14.77c-0.55 -0.06 -1.09 -0.15 -1.64 -0.19a4.1 4.1 0 0 0 -0.5 0c-0.07 -0.44 -0.14 -0.89 -0.2 -1.33a0.3 0.3 0 0 0 -0.31 -0.29 0.29 0.29 0 0 0 -0.29 0.31l-0.09 1.34a15.4 15.4 0 0 0 -1.64 0.34 0.29 0.29 0 0 0 -0.27 0.32 0.3 0.3 0 0 0 0.32 0.28c0.53 0 1 0.11 1.55 0.15l0 1c0 0.31 0.06 0.69 0.1 1 0.09 0.8 0.22 1.6 0.32 2.41a0.33 0.33 0 0 0 0.35 0.32 0.33 0.33 0 0 0 0.33 -0.35c0 -0.82 0.07 -1.63 0.07 -2.44l0 -1c0 -0.3 0 -0.66 -0.08 -1l0.35 0c0.55 -0.05 1.08 -0.13 1.63 -0.2a0.34 0.34 0 0 0 0.34 -0.34 0.34 0.34 0 0 0 -0.34 -0.33Z" fill="#000000" fill-rule="evenodd" stroke-width="1"></path>
    <path d="M16.3 11.92c-0.14 -0.44 -0.43 -0.42 -0.64 0 0 0.41 -0.05 0.52 -0.06 0.93 0 2.44 0 4.88 -0.08 7.33l-3.14 1.94 -2 -1.13c-0.68 -0.38 -1.37 -0.75 -2.06 -1.12 -0.07 -1.11 -0.13 -2.22 -0.18 -3.34 -0.07 -1.63 -0.2 -3.08 -0.26 -4.71 -0.13 -0.36 -0.48 -0.29 -0.58 0.08s0 5.13 0 5.56l0 2.76a0.54 0.54 0 0 0 0.27 0.44l4.5 2.63a0.6 0.6 0 0 0 0.58 0c0.51 -0.3 1 -0.6 1.5 -0.92 0.73 -0.47 1.44 -1 2.16 -1.44a0.52 0.52 0 0 0 0.24 -0.43c0.04 -1.43 -0.25 -8.19 -0.25 -8.58Z" fill="#000000" fill-rule="evenodd" stroke-width="1"></path>
    <path d="m23.66 22 -0.83 -0.07 0.17 -3.65c0.05 -3.54 0.07 -3.38 0.07 -3.75a3.74 3.74 0 0 0 -0.05 -0.72 3.29 3.29 0 0 0 -1.4 -2.25 8.55 8.55 0 0 0 -3.57 -1.07c-0.45 -0.06 -3.13 -0.14 -6 -0.15 0 -1 0.06 -2 0.06 -3l0 -1.49c0 -0.49 -0.11 -0.85 -0.11 -1.32h0.3c1.12 0 2.23 -0.1 3.35 -0.14a0.34 0.34 0 0 0 0.35 -0.34 0.33 0.33 0 0 0 -0.33 -0.34c-1 -0.09 -2 -0.22 -3 -0.28l-0.77 0 -0.39 -2.54a0.3 0.3 0 1 0 -0.6 0l0 2.47h-0.29a23.76 23.76 0 0 0 -3.37 0.47 0.3 0.3 0 0 0 -0.25 0.37 0.29 0.29 0 0 0 0.33 0.26c1 0 2 0 3 0.06l0.6 0 0 1.4c0 0.47 0.06 1 0.1 1.49 0.08 1 0.19 1.95 0.28 2.92h-0.11c-2.92 0 -5.87 0.09 -6.83 0.22a7.51 7.51 0 0 0 -1.68 0.38 2.9 2.9 0 0 0 -1.09 0.71A3.18 3.18 0 0 0 0.93 13a9.9 9.9 0 0 0 -0.24 2l0 2.3 0 5 -0.38 0.05a0.3 0.3 0 0 0 0 0.6c0.94 0.05 1.69 0.14 2.41 0.17l1 0 1 0c0.73 -0.05 1.49 -0.14 2.42 -0.25a0.35 0.35 0 0 0 0.33 -0.36 0.34 0.34 0 0 0 -0.35 -0.32c-1 -0.05 -1.74 -0.13 -2.47 -0.15a15.34 15.34 0 0 0 -1.66 0 17.63 17.63 0 0 0 -1.78 0.2c0.06 -1.63 0.08 -3.28 0.14 -4.91 0 -0.32 0 -0.63 0.06 -0.94 0.65 0.06 1.3 0.12 2 0.15h1c0.34 0 0.68 0 1 -0.06 0.5 0 1 -0.11 1.49 -0.18s0.36 -0.81 0 -0.83l-1.52 -0.07h-1c-0.34 0 -0.68 0 -1 0.06 -0.64 0.05 -1.27 0.15 -1.9 0.24l0 -0.62a12.74 12.74 0 0 1 0.17 -1.27 17.13 17.13 0 0 0 2.12 0.17 14.52 14.52 0 0 0 1.48 -0.11c0.57 -0.06 1.14 -0.15 1.73 -0.23a0.48 0.48 0 0 0 0 -0.77c-0.6 0 -1.19 -0.08 -1.77 -0.08l-0.93 0c-0.31 0 -0.61 0 -0.91 0.07 -0.52 0.06 -1 0.15 -1.57 0.22a1.88 1.88 0 0 1 0.41 -0.7 1.76 1.76 0 0 1 0.79 -0.5 6.48 6.48 0 0 1 1.5 -0.28c0.27 0 0.7 -0.09 5.35 -0.11 0.08 0 7.3 0 8 0.06a7.5 7.5 0 0 1 3.18 0.82 3 3 0 0 1 0.4 0.33c-0.41 0 -0.82 -0.09 -1.24 -0.11s-0.63 0 -0.95 0l-0.94 0c-0.59 0.05 -1.16 0.12 -1.75 0.18 -0.24 0.2 -0.22 0.44 0 0.71a20.57 20.57 0 0 0 2.06 0.22c0.5 0 1 0 1.51 -0.05s1.2 -0.09 1.81 -0.13a2.66 2.66 0 0 1 0.13 0.45 2.79 2.79 0 0 1 0.05 0.55l0 0.68 -1.75 -0.07h-1c-0.34 0 -0.67 0 -1 0.07 -0.58 0 -1.15 0.15 -1.72 0.24a0.48 0.48 0 0 0 0 0.73c0.57 0 1.14 0.1 1.72 0.12l1 0c0.34 0 0.66 0 1 -0.07 0.58 -0.06 1.14 -0.14 1.71 -0.23l0 2.23 -0.07 3.61 -0.91 -0.06 -1 0 -1 0c-0.72 0.05 -1.48 0.16 -2.42 0.25a0.31 0.31 0 0 0 -0.3 0.3 0.3 0.3 0 0 0 0.3 0.3c0.94 0.1 1.7 0.2 2.42 0.25l1 0 1 0c0.72 0 1.48 -0.14 2.41 -0.22a0.35 0.35 0 0 0 0.34 -0.35 0.34 0.34 0 0 0 -0.18 -0.3Z" fill="#000000" fill-rule="evenodd" stroke-width="1"></path>
  </g>
</svg>