<svg xmlns="http://www.w3.org/2000/svg" viewBox="0 0 24 24" id="Read-Book-Light-Idea--Streamline-Freehand">
  <desc>
    Read Book Light Idea Streamline Icon: https://streamlinehq.com
  </desc>
  <g>
    <path d="M6.86 10.73a7.83 7.83 0 0 0 1.22 2c0.32 0.42 0.75 0.78 1.07 1.19a2.7 2.7 0 0 1 0.25 0.4 0.26 0.26 0 0 0 -0.2 0.26 12.88 12.88 0 0 0 -0.08 1.91 2.53 2.53 0 0 0 0.29 0.94 2.28 2.28 0 0 0 1.89 1 2.36 2.36 0 0 0 1.92 -0.91 2.65 2.65 0 0 0 0.41 -1 9.49 9.49 0 0 0 0.09 -1.4c0.13 -1.41 1.58 -1.53 2.73 -2.72a3.4 3.4 0 0 0 0.61 -0.87 2.77 2.77 0 0 0 0.19 -0.62 4.4 4.4 0 0 0 0.07 -0.89 8.09 8.09 0 0 0 -0.68 -3.41A5.62 5.62 0 0 0 14.21 4a3.52 3.52 0 0 0 -0.86 -0.31 6.76 6.76 0 0 0 -1.24 -0.15 5.5 5.5 0 0 0 -3.79 1.24A5 5 0 0 0 6.51 8.3a5.27 5.27 0 0 0 0.35 2.43Zm0.54 -2.34A4.13 4.13 0 0 1 9 5.6a4.56 4.56 0 0 1 3.08 -0.93c0.28 0 0.59 0 0.89 0.09a2.77 2.77 0 0 1 0.77 0.24 4.65 4.65 0 0 1 2 2.1 7.1 7.1 0 0 1 0.71 3 4.26 4.26 0 0 1 0 0.62 2.12 2.12 0 0 1 -0.14 0.55 2.59 2.59 0 0 1 -0.73 1c-0.84 0.75 -1.94 1.28 -2.51 2.24 -0.14 0.24 0.06 0.13 0 0.65a8 8 0 0 1 -0.24 1.26 1.66 1.66 0 0 1 -0.35 0.62 1.43 1.43 0 0 1 -1.16 0.41 1.33 1.33 0 0 1 -1.1 -0.49 1.85 1.85 0 0 1 -0.32 -0.77c-0.05 -0.3 -0.08 -0.62 -0.1 -0.92a0.24 0.24 0 0 0 0.16 0c0.37 0.05 0.73 0.15 1.13 0.17a4.87 4.87 0 0 0 0.66 0c0.34 0 0.51 -0.14 0.83 -0.16a0.32 0.32 0 1 0 0.08 -0.63 3.73 3.73 0 0 0 -0.4 -0.14l-0.06 -2.73 0 -1a1.48 1.48 0 0 0 0 -0.19 2.58 2.58 0 0 0 0.36 -0.31 0.85 0.85 0 0 0 0.14 -0.19 2.14 2.14 0 0 0 0.1 -0.22c0.07 -0.2 0.09 -0.38 0.16 -0.57a0.32 0.32 0 1 0 -0.52 -0.38 5 5 0 0 0 -0.5 0.41 0.83 0.83 0 0 0 -0.16 0.21 0.91 0.91 0 0 0 -0.11 0.22l-0.08 -0.05 -0.93 -0.76a0.28 0.28 0 0 0 -0.4 0 0.26 0.26 0 0 0 0 0.39l0.77 1s0.18 0.15 0.21 0.24 -0.09 1.27 -0.09 1.27c0 0.28 0.06 0.57 0.11 0.85 0.1 0.58 0.24 1.15 0.36 1.72l-0.26 0a3.29 3.29 0 0 0 -0.44 0.05 6.39 6.39 0 0 0 -0.81 0.25 2.31 2.31 0 0 0 -0.3 -0.82c-0.31 -0.53 -0.8 -1 -1.17 -1.47a7.38 7.38 0 0 1 -1 -1.91 4.57 4.57 0 0 1 -0.24 -2.13Z" fill="#000000" fill-rule="evenodd" stroke-width="1"></path>
    <path d="M3 6.08a1.59 1.59 0 0 0 0.27 0.18 1.63 1.63 0 0 0 0.31 0.11 4.64 4.64 0 0 0 0.76 0.13 0.32 0.32 0 0 0 0.42 -0.18 0.31 0.31 0 0 0 -0.19 -0.41c-0.2 -0.15 -0.35 -0.3 -0.55 -0.45l-0.23 -0.16 -0.27 -0.12c-0.25 -0.07 -0.47 -0.09 -0.73 -0.15a0.28 0.28 0 0 0 -0.38 0.09 0.29 0.29 0 0 0 0.09 0.39 4 4 0 0 0 0.5 0.57Z" fill="#000000" fill-rule="evenodd" stroke-width="1"></path>
    <path d="M6.34 1.22a2 2 0 0 0 0.12 0.31 2.75 2.75 0 0 0 0.19 0.28 5.12 5.12 0 0 0 0.58 0.56 0.31 0.31 0 0 0 0.45 0.07 0.32 0.32 0 0 0 0.07 -0.44c-0.09 -0.23 -0.13 -0.45 -0.22 -0.69s-0.06 -0.19 -0.1 -0.28a2.26 2.26 0 0 0 -0.16 -0.26C7.1 0.56 6.93 0.4 6.76 0.21a0.29 0.29 0 0 0 -0.38 -0.15 0.27 0.27 0 0 0 -0.14 0.37 5.33 5.33 0 0 0 0.1 0.79Z" fill="#000000" fill-rule="evenodd" stroke-width="1"></path>
    <path d="M15.54 2.31a0.28 0.28 0 0 0 0.37 -0.16c0.16 -0.18 0.33 -0.3 0.49 -0.49l0.16 -0.23c0 -0.09 0.08 -0.17 0.11 -0.26s0.13 -0.45 0.2 -0.68a0.32 0.32 0 0 0 -0.09 -0.44 0.33 0.33 0 0 0 -0.45 0.1c-0.18 0.16 -0.36 0.31 -0.53 0.49a1.44 1.44 0 0 0 -0.18 0.25 1.08 1.08 0 0 0 -0.13 0.29 2.78 2.78 0 0 0 -0.1 0.76 0.29 0.29 0 0 0 0.15 0.37Z" fill="#000000" fill-rule="evenodd" stroke-width="1"></path>
    <path d="M19 5.57a4.38 4.38 0 0 0 0.71 -0.19l0.29 -0.14 0.23 -0.2c0.17 -0.17 0.3 -0.35 0.46 -0.53a0.31 0.31 0 0 0 0.09 -0.44 0.32 0.32 0 0 0 -0.44 -0.1c-0.24 0.08 -0.46 0.14 -0.68 0.23a1.71 1.71 0 0 0 -0.27 0.14 2.11 2.11 0 0 0 -0.23 0.19c-0.17 0.18 -0.28 0.37 -0.44 0.57a0.29 0.29 0 0 0 -0.08 0.39 0.28 0.28 0 0 0 0.36 0.08Z" fill="#000000" fill-rule="evenodd" stroke-width="1"></path>
    <path d="M22.36 11.26a1.43 1.43 0 0 0 -0.09 -0.42 0.54 0.54 0 0 0 -0.33 -0.33 2.75 2.75 0 0 0 -0.82 0c-0.51 0.07 -1 0.16 -1.52 0.28a7.73 7.73 0 0 0 -1 0.29 0.28 0.28 0 0 0 -0.19 0.35 0.28 0.28 0 0 0 0.35 0.19 6.1 6.1 0 0 1 0.95 -0.17 14.69 14.69 0 0 1 1.48 -0.09l0.21 0 0 0.08c0 0.19 -0.05 0.39 -0.07 0.58l-0.14 1.87 0 2.23c0 1.09 0 1.33 0.14 2.41a0.36 0.36 0 0 0 -0.23 -0.08 17.79 17.79 0 0 0 -6.31 2c-0.81 0.39 -1.89 1.21 -2.64 1.68l0 -0.49 0 -0.47a3.71 3.71 0 0 0 0 -0.47 10.56 10.56 0 0 1 -0.12 -1.1 0.29 0.29 0 0 0 -0.56 -0.11 5.12 5.12 0 0 0 -0.35 1.19 2.9 2.9 0 0 0 0 0.51 2.94 2.94 0 0 0 0 0.51c0 0.16 0.07 0.32 0.1 0.48a15.4 15.4 0 0 0 -2.73 -1.58A14.25 14.25 0 0 0 3 18.93a3.43 3.43 0 0 0 -0.64 0l0.06 -0.36c0 -0.39 0.09 -0.78 0.12 -1.19l0.18 -1 -0.08 -3.13c0 -0.31 -0.06 -0.59 -0.07 -0.84a0.68 0.68 0 0 1 0 -0.32c0 -0.12 0.17 -0.19 0.41 -0.26l0.65 -0.09a3.08 3.08 0 0 1 0.53 0 1.35 1.35 0 0 1 0.46 0.14 0.32 0.32 0 0 0 0.38 -0.53 2.3 2.3 0 0 0 -0.64 -0.25 3.29 3.29 0 0 0 -0.66 -0.1l-0.85 0a1.31 1.31 0 0 0 -1.07 0.67 4.75 4.75 0 0 0 -0.15 1.53l0 1.29c0 0.63 0.09 1.26 0.12 1.89l0 1 0 1.15 0 0.56c0 0.51 0.93 0.49 1 0.5s0 0 0 0.06c-0.06 0.37 0 1.39 -0.06 1.76a3.76 3.76 0 0 0 -0.1 0.64 0.49 0.49 0 0 0 0.13 0.3 0.75 0.75 0 0 0 0.46 0.24 3.61 3.61 0 0 0 0.68 0.06l2.13 0a6.93 6.93 0 0 1 1.14 0.09c0.6 0.09 1.19 0.23 1.8 0.36a12.22 12.22 0 0 1 1.44 0.38 3.74 3.74 0 0 1 0.85 0.42 0.33 0.33 0 0 0 0.45 -0.07 0.32 0.32 0 0 0 -0.07 -0.45 5.06 5.06 0 0 0 -0.94 -0.58 11.79 11.79 0 0 0 -1.5 -0.56 19.06 19.06 0 0 0 -1.84 -0.54A6.45 6.45 0 0 0 6 21.61l-2.14 0.12a2.92 2.92 0 0 0 -0.46 0c0 -0.09 0.05 -0.17 0.05 -0.19 0 -0.37 -0.09 -1.39 -0.07 -1.76a25 25 0 0 1 5.25 1.69 23.18 23.18 0 0 1 2.56 1.5c0.77 0.45 0.89 0.05 0.9 0 1 -0.43 1.84 -1 2.79 -1.48a24 24 0 0 1 6.28 -2.38 0.31 0.31 0 0 0 0.3 -0.3 0.35 0.35 0 0 0 0.25 0.12 0.32 0.32 0 0 0 0.3 -0.34c0 -0.73 0.2 -3.54 0.29 -4.63l0.1 -1.86a5.08 5.08 0 0 0 -0.04 -0.84Z" fill="#000000" fill-rule="evenodd" stroke-width="1"></path>
    <path d="M20.84 20.29a0.31 0.31 0 0 0 -0.28 0.35 5.37 5.37 0 0 1 0 0.57c0 0.19 -0.05 0.38 -0.08 0.57l0 0.06a3.12 3.12 0 0 0 -0.59 -0.08 14 14 0 0 0 -1.45 -0.19 8.51 8.51 0 0 0 -1 0 12.38 12.38 0 0 0 -2.16 0.45 22.53 22.53 0 0 0 -3 1.24 0.28 0.28 0 1 0 0.2 0.52c0.83 -0.26 1.68 -0.51 2.54 -0.71l1 -0.2c0.5 -0.09 1 -0.18 1.5 -0.22a8.09 8.09 0 0 1 1.1 0c0.38 0 0.76 0 1.14 0.05 0.11 0 0.47 0.11 0.7 0.12a0.77 0.77 0 0 0 0.4 -0.06 0.57 0.57 0 0 0 0.25 -0.26 1.87 1.87 0 0 0 0.12 -0.59l0 -0.65a4.91 4.91 0 0 0 -0.06 -0.66 0.32 0.32 0 0 0 -0.33 -0.31Z" fill="#000000" fill-rule="evenodd" stroke-width="1"></path>
  </g>
</svg>