<svg xmlns="http://www.w3.org/2000/svg" viewBox="0 0 24 24" id="Religion-Cross-Necklace--Streamline-Freehand">
  <desc>
    Religion Cross Necklace Streamline Icon: https://streamlinehq.com
  </desc>
  <g>
    <path d="M17 12.06a3.21 3.21 0 0 0 -1.31 0c-0.43 0.08 -0.88 0.21 -1.3 0.26a15.46 15.46 0 0 0 -0.18 -2.23A3.1 3.1 0 0 0 13.78 9a1.08 1.08 0 0 0 -0.68 -0.4 0.34 0.34 0 0 0 0.14 -0.21c0 -0.23 0.08 -0.45 0.11 -0.68a3.46 3.46 0 0 0 -0.62 -2.47A1.35 1.35 0 0 0 11 5.08 2.39 2.39 0 0 0 10 7a2.77 2.77 0 0 0 0.36 1.24 3.54 3.54 0 0 0 0.35 0.51A2.47 2.47 0 0 0 10 9a1.35 1.35 0 0 0 -0.55 0.51 0.88 0.88 0 0 0 -0.11 0.45 5.06 5.06 0 0 0 0.1 0.53l0.35 2.1c-0.32 0 -0.81 -0.06 -1 -0.09a1.75 1.75 0 0 0 -0.32 0 1.55 1.55 0 0 0 -0.31 0c-0.26 0.05 -0.62 0.17 -0.87 0.23 0 0 -0.44 -0.16 -0.54 1.55l0 0.87a8.38 8.38 0 0 0 0 1.08 1.7 1.7 0 0 0 0.22 0.6 1.63 1.63 0 0 0 1.2 0.68 7.48 7.48 0 0 0 1.9 -0.1l0.08 2.13c0 0.52 -0.08 1.08 -0.1 1.63a3.86 3.86 0 0 0 0.33 1.83 1.76 1.76 0 0 0 1.55 1l1 0c0.39 -0.05 0.77 -0.17 1.16 -0.22a2.13 2.13 0 0 1 0.44 0c0.29 0 0.46 0 0.41 -2.85l0 -1c0 -0.34 -0.06 -0.66 -0.1 -1 -0.09 -0.65 -0.22 -1.29 -0.32 -1.94a8.09 8.09 0 0 0 0.83 0.16 2.68 2.68 0 0 0 0.49 0 2.81 2.81 0 0 0 0.5 0 9.18 9.18 0 0 0 1.16 -0.24 0.33 0.33 0 0 0 0.29 -0.35 0.32 0.32 0 0 0 -0.35 -0.29c-0.39 0 -0.76 -0.1 -1.15 -0.13a5.08 5.08 0 0 0 -0.78 0 9.79 9.79 0 0 0 -1.31 0.26 0.25 0.25 0 0 0 -0.2 0.09 0.26 0.26 0 0 0 -0.1 0.22c-0.05 0.89 -0.11 1.77 -0.08 2.66 0 0.53 0.08 1.06 0.15 1.58 0.08 0.74 0.21 1.46 0.31 2.19h-0.21c-0.39 0 -0.78 0.07 -1.17 0.08l-0.9 -0.14a0.93 0.93 0 0 1 -0.82 -0.85 6.57 6.57 0 0 1 -0.08 -1.29c0 -0.48 0 -1 -0.07 -1.45l-0.38 -2.19c-0.2 -0.79 -2 -0.71 -2 -0.72 -0.33 0 -0.64 -0.1 -0.76 -0.32a1.4 1.4 0 0 1 -0.11 -0.36c-0.07 -0.32 -0.11 -0.66 -0.16 -0.87s-0.15 -0.64 -0.2 -1 0 -0.42 -0.06 -0.64l0 -0.11a4.31 4.31 0 0 0 0.91 0.22 2.18 2.18 0 0 0 0.51 0c0.25 0 0.94 -0.2 1.2 -0.24s0.42 -0.63 0.42 -0.64l-0.08 -2.21c0 -0.31 -0.27 -0.38 0.23 -0.53a2.6 2.6 0 0 1 0.45 -0.09l0.73 -0.13c0.18 0 0.54 -0.08 0.88 -0.09s0.48 -0.25 0.8 1c0.16 0.67 0.22 1.39 0.32 2a0.28 0.28 0 0 0 0.25 0.28 9 9 0 0 0 1.74 0.08 3.36 3.36 0 0 1 0.93 0.1c0.36 0.11 0.6 0.37 0.7 1l0.36 1.59a0.32 0.32 0 0 0 0.38 0.24 0.33 0.33 0 0 0 0.24 -0.39L18.3 14c-0.09 -1.23 -0.63 -1.75 -1.3 -1.94Zm-5.35 -3.47 -0.3 0.06A2.86 2.86 0 0 1 11 8a2 2 0 0 1 -0.1 -0.9 1.63 1.63 0 0 1 0.54 -0.95c0.19 -0.17 0.42 -0.31 0.65 -0.12a1.07 1.07 0 0 1 0.31 0.42 3.48 3.48 0 0 1 0.19 0.66 4 4 0 0 1 0.07 0.59l0 0.6a0.31 0.31 0 0 0 0.08 0.26 8.19 8.19 0 0 0 -1.09 0.03Z" fill="#000000" fill-rule="evenodd" stroke-width="1"></path>
    <path d="M16.41 5.33A6.43 6.43 0 0 0 18.3 4a3.88 3.88 0 0 0 1 -3.72 0.33 0.33 0 0 0 -0.38 -0.28 0.32 0.32 0 0 0 -0.27 0.37 3.27 3.27 0 0 1 -1.09 2.88 8.66 8.66 0 0 1 -1.63 1.17 24 24 0 0 1 -2.5 1.28c-0.36 0.12 -0.15 0.61 0.23 0.58a15.16 15.16 0 0 0 2.75 -0.95Z" fill="#000000" fill-rule="evenodd" stroke-width="1"></path>
    <path d="M10 5.56a12.75 12.75 0 0 1 -2.36 -1.33 8.63 8.63 0 0 1 -1.28 -1.12A5.24 5.24 0 0 1 5 0.63a0.28 0.28 0 0 0 -0.29 -0.24 0.27 0.27 0 0 0 -0.24 0.31 5.29 5.29 0 0 0 0.84 2.76 5 5 0 0 0 0.83 0.94 6.6 6.6 0 0 0 1 0.72 11.77 11.77 0 0 0 2.6 1h0.07c0.3 -0.09 0.38 -0.27 0.22 -0.54 -0.03 0.02 -0.03 -0.01 -0.03 -0.02Z" fill="#000000" fill-rule="evenodd" stroke-width="1"></path>
  </g>
</svg>