<svg xmlns="http://www.w3.org/2000/svg" viewBox="0 0 24 24" id="Religion-Buddhism-Wheel--Streamline-Freehand">
  <desc>
    Religion Buddhism Wheel Streamline Icon: https://streamlinehq.com
  </desc>
  <path d="M23.81 9.28a16.23 16.23 0 0 0 -0.45 -2.11 7.28 7.28 0 0 0 -0.57 -1.38 10.24 10.24 0 0 0 -2.21 -2.58 13.32 13.32 0 0 0 -2.77 -1.9 7 7 0 0 0 -2 -0.61 14.93 14.93 0 0 0 -3 -0.08 23.56 23.56 0 0 0 -5.08 0.68c-2.66 0.72 -3.19 0.6 -5 3A14.21 14.21 0 0 0 0.57 8.88a15.14 15.14 0 0 0 -0.54 5 9.86 9.86 0 0 0 1.43 4.35 10.13 10.13 0 0 0 3.17 3.33 12.66 12.66 0 0 0 4.27 1.59 14.43 14.43 0 0 0 4.51 0.16A10.92 10.92 0 0 0 17.09 22a18.73 18.73 0 0 0 3.16 -2.17A10.18 10.18 0 0 0 23.47 15a12.23 12.23 0 0 0 0.34 -5.72Zm-1.33 5.43A9.73 9.73 0 0 1 19.56 19a17.88 17.88 0 0 1 -3 2 10.28 10.28 0 0 1 -3.33 1.17 13.8 13.8 0 0 1 -4.18 -0.12 11.49 11.49 0 0 1 -3.93 -1.36 9.2 9.2 0 0 1 -2.92 -3 9.21 9.21 0 0 1 -1.36 -3.82 15.08 15.08 0 0 1 0.43 -4.8 13.79 13.79 0 0 1 2 -4.38c0.32 -0.45 0.92 -1.78 4.64 -2.73a21 21 0 0 1 4.92 -0.59 14.32 14.32 0 0 1 2.85 0.12 6.26 6.26 0 0 1 1.73 0.56A13 13 0 0 1 20 3.86a9.53 9.53 0 0 1 2 2.38 6 6 0 0 1 0.47 1.2 15.93 15.93 0 0 1 0.4 2 11.7 11.7 0 0 1 -0.39 5.27Z" fill="#000000" fill-rule="evenodd" stroke-width="1"></path>
  <path d="m13.9 11.46 4.79 -0.23 3.86 -0.39a0.31 0.31 0 0 0 0.3 -0.33 0.31 0.31 0 0 0 -0.34 -0.3l-3.88 0.19h-4.77l-0.94 0c0.27 -0.26 0.54 -0.52 0.8 -0.79 1.3 -1.42 2.55 -2.9 3.89 -4.3 0.91 -1 1.75 -1.7 1.77 -1.72 -0.28 -0.52 -0.28 -0.81 -2.91 1.77 -1.18 1.21 -2.32 2.42 -3.47 3.58l-0.76 0.73 0 -1c0 -0.9 -0.28 -5.31 -0.22 -6.21s-0.58 -1.1 -0.56 0c0 1.29 -0.18 5 -0.26 6.29 0 0.35 0 0.69 -0.05 1L10.46 9c-0.89 -0.89 -1.8 -1.77 -2.77 -2.58A15.82 15.82 0 0 0 4.14 4.1a0.28 0.28 0 0 0 -0.38 0.12 0.28 0.28 0 0 0 0.13 0.38 15.55 15.55 0 0 1 3.26 2.45C8 7.9 8.87 8.83 9.72 9.74c0.26 0.29 0.54 0.56 0.81 0.84l-1.33 0.08c-1.56 0.13 -3.12 0.32 -4.64 0.5 -0.9 0.11 -1.84 0.11 -2.75 0.18 -1.08 0.09 -1.3 0.66 0 0.63l2.79 0 5.48 -0.3c-0.48 0.44 -1 0.88 -1.43 1.33s-0.71 0.7 -1.06 1.06c-0.93 1 -3.53 2.88 -4.28 4 -0.39 0.59 0 0.8 0.47 0.45a50.78 50.78 0 0 0 4.52 -3.77c0.9 -0.86 1.83 -1.68 2.75 -2.52l0 0.38c0 0.9 0 1.8 0.07 2.69 0.12 2.06 0.35 4.11 0.42 6.18a0.32 0.32 0 0 0 0.64 0c0 -2.07 -0.07 -4.13 -0.09 -6.2l0 -2.62 0 -0.5c0.61 0.57 1.22 1.14 1.86 1.69l5.4 4.42c0.31 0.25 0.8 0 0.39 -0.5 -0.7 -0.89 -2.88 -2.63 -6.76 -6.24Z" fill="#000000" fill-rule="evenodd" stroke-width="1"></path>
</svg>