<svg xmlns="http://www.w3.org/2000/svg" viewBox="0 0 24 24" id="Religion-Islamics-Male-Learning-Reading-2--Streamline-Freehand">
  <desc>
    Religion Islamics Male Learning Reading 2 Streamline Icon: https://streamlinehq.com
  </desc>
  <g>
    <path d="M7.82 6.17a3.6 3.6 0 0 0 0.63 1.65 3.89 3.89 0 0 0 1.39 1.06c-0.16 0.08 -0.33 0.14 -0.48 0.23a6.48 6.48 0 0 0 -1.54 1.27 0.3 0.3 0 0 0 0 0.41 0.3 0.3 0 0 0 0.42 0 6.28 6.28 0 0 1 1.52 -0.9 4.92 4.92 0 0 1 1.67 -0.39 0.82 0.82 0 0 1 0.22 0 1.56 1.56 0 0 0 -0.2 0.41 1.37 1.37 0 0 0 0 0.28 1.43 1.43 0 0 0 0 0.29c0.18 1 0.41 1 0.52 1s0.3 0 0.52 -0.94a1.19 1.19 0 0 0 0 -0.26 1 1 0 0 0 0 -0.25 4.54 4.54 0 0 0 -0.12 -0.53 5.68 5.68 0 0 1 1.23 0.23 6 6 0 0 1 2 1.06 0.32 0.32 0 0 0 0.46 0 0.33 0.33 0 0 0 0 -0.47 6.07 6.07 0 0 0 -1.94 -1.4 2.76 2.76 0 0 0 0.88 -0.71 3.38 3.38 0 0 0 0.72 -1.76 7.79 7.79 0 0 0 -0.84 -4.74 6.24 6.24 0 0 0 -1 -1.48 1.06 1.06 0 0 0 -0.73 -0.23 10.35 10.35 0 0 0 -1.3 0.11l-1.43 0.14c-0.21 0 -0.42 0.06 -0.63 0.1a0.73 0.73 0 0 0 -0.39 0.2 5.05 5.05 0 0 0 -0.4 0.54 5.83 5.83 0 0 0 -0.74 1.23 8.38 8.38 0 0 0 -0.44 3.85Zm7 0.14a2.54 2.54 0 0 1 -0.62 1.26 3 3 0 0 1 -2.53 0.68 3.79 3.79 0 0 1 -2.52 -1A2.67 2.67 0 0 1 8.61 6a9.24 9.24 0 0 1 -0.15 -2l2.17 0 1.33 0 1.33 0c0.44 0 0.9 0 1.35 0.05a0.51 0.51 0 0 0 0.17 0s0 0 0 0.05a6.68 6.68 0 0 1 0.06 2.21Zm-6 -3.66a4.47 4.47 0 0 1 0.76 -0.95c0.47 -0.48 -0.41 -0.32 2.28 -0.45 0.75 -0.08 1.55 -0.24 2.35 1.26 0.14 0.24 0.26 0.49 0.38 0.75a15 15 0 0 0 -2.35 -0.4 9 9 0 0 0 -1 0 9.11 9.11 0 0 0 -1 0.06c-0.54 0.07 -1.06 0.18 -1.58 0.3 0.08 -0.22 0.14 -0.4 0.24 -0.57Z" fill="#000000" stroke-width="1"></path>
    <path d="M20.89 13.22a3.76 3.76 0 0 0 -0.31 -1.14 0.56 0.56 0 0 0 -0.31 -0.26 2.82 2.82 0 0 0 -0.61 -0.1 8 8 0 0 0 -1 0c-0.32 0 -0.64 0.07 -0.95 0.12a13.16 13.16 0 0 0 -2.23 0.62 13.66 13.66 0 0 0 -2.07 1c-0.4 0.24 -0.87 0.68 -1.34 1l-0.18 0.13 -0.19 -0.14a6.92 6.92 0 0 0 -0.78 -0.63 5.13 5.13 0 0 0 -0.87 -0.52 14.31 14.31 0 0 0 -3.21 -1C5.27 12 3 11.8 3 12.32l0 6.15v1.43a4.91 4.91 0 0 0 0 0.61 0.55 0.55 0 0 0 0.16 0.37 2.23 2.23 0 0 0 1.07 0.52c0.72 0.18 1.66 0.24 2.13 0.36a18.16 18.16 0 0 1 2.36 0.79c1.7 0.66 2 1.36 2.61 1.46a13.61 13.61 0 0 0 2.13 -0.83 15.53 15.53 0 0 1 2.16 -0.69 15.31 15.31 0 0 1 1.88 -0.39c1 -0.16 2 -0.28 2.95 -0.44a0.31 0.31 0 0 0 0.29 -0.34s0 0 0 -0.05a16.7 16.7 0 0 0 0.2 -1.87l0 -2.1 0.06 -2.49a12.72 12.72 0 0 0 -0.11 -1.59ZM20 21.07c-1.08 0 -2.17 0 -3.24 0.15a13.44 13.44 0 0 0 -1.54 0.28 12.12 12.12 0 0 0 -1.83 0.69A15.37 15.37 0 0 0 12 23a2.22 2.22 0 0 1 -0.68 0.34A10.22 10.22 0 0 0 9 21.86a15.54 15.54 0 0 0 -2.44 -1c-0.47 -0.14 -1.4 -0.26 -2.12 -0.46a1.7 1.7 0 0 1 -0.5 -0.18c0 -0.15 0.08 -0.33 0.08 -0.35l0 -1.44 -0.37 -5.89A14.58 14.58 0 0 1 6.7 13a12.71 12.71 0 0 1 3 1.1 6.84 6.84 0 0 1 0.72 0.47 7.12 7.12 0 0 1 0.64 0.58c0.44 0.48 0.73 0.68 1.68 0.18 0.48 -0.26 0.92 -0.73 1.3 -0.95a12.42 12.42 0 0 1 1.91 -0.91 13.09 13.09 0 0 1 2 -0.59q0.41 -0.08 0.84 -0.12a7.68 7.68 0 0 1 0.83 0l0.19 0.06a3.77 3.77 0 0 1 0.16 0.6 14.28 14.28 0 0 1 0.13 1.5l0.05 2.41c0 0.69 0.05 1.39 0 2.09 0.02 0.36 -0.05 1.18 -0.15 1.65Z" fill="#000000" fill-rule="evenodd" stroke-width="1"></path>
    <path d="M12 18.08c0 -0.77 -0.18 -1.29 -0.18 -2.06 -0.08 -0.58 -0.48 -0.41 -0.58 0a13.43 13.43 0 0 0 -0.24 2.39c0 0.66 0 1.32 0.08 2 0.13 1.87 0.24 2.24 0.25 2.52s0.44 0.25 0.54 -0.13c0.08 -0.92 0.24 -1.84 0.23 -2.75 -0.01 -0.67 -0.03 -1.32 -0.1 -1.97Z" fill="#000000" fill-rule="evenodd" stroke-width="1"></path>
  </g>
</svg>