<svg xmlns="http://www.w3.org/2000/svg" viewBox="0 0 24 24" id="Religion-Person-Pray--Streamline-Freehand">
  <desc>
    Religion Person Pray Streamline Icon: https://streamlinehq.com
  </desc>
  <path d="M19.16 20a1.7 1.7 0 0 0 -0.29 -0.46 3.06 3.06 0 0 0 -0.36 -0.36 3.47 3.47 0 0 0 -0.57 -0.4 4.34 4.34 0 0 0 -0.62 -0.28h-0.05a3.37 3.37 0 0 0 1 -0.65 4.13 4.13 0 0 0 1.08 -3.68 8.94 8.94 0 0 0 -0.66 -2.17 29.57 29.57 0 0 0 -1.51 -2.85 15.73 15.73 0 0 0 -0.85 -1.46 3.73 3.73 0 0 0 -0.45 -0.52 5.8 5.8 0 0 0 1 -1.37 3.88 3.88 0 0 0 -0.23 -4.4A3.85 3.85 0 0 0 14.82 0.26c-0.37 -0.11 -3 -1.17 -5.3 2a4.57 4.57 0 0 0 -0.8 2 3.75 3.75 0 0 0 -2.26 -0.93c-0.69 0 -1.3 0.44 -1.66 1.53a5.66 5.66 0 0 0 -0.15 0.59 4.53 4.53 0 0 0 -0.07 0.55A6.68 6.68 0 0 0 5 8.27a14.53 14.53 0 0 0 1.56 3c0.18 0.24 0.34 0.61 0.54 0.9a1.79 1.79 0 0 0 0.41 0.45 4.16 4.16 0 0 0 2.34 0.73 18.26 18.26 0 0 0 3.37 -0.35 0.32 0.32 0 0 0 -0.08 -0.63 16.82 16.82 0 0 1 -3.24 0.15 3.12 3.12 0 0 1 -1.79 -0.65 0.84 0.84 0 0 1 -0.18 -0.23c-0.19 -0.31 -0.34 -0.69 -0.51 -1A14.15 14.15 0 0 1 6 7.91 6 6 0 0 1 5.56 6a2.53 2.53 0 0 1 0 -0.47A2.65 2.65 0 0 1 5.68 5c0.15 -0.65 0.44 -1 0.85 -1a3.33 3.33 0 0 1 2.14 0.87l0 0.32a4 4 0 0 0 1.65 2.69 3.88 3.88 0 0 0 3.12 0.73 4.75 4.75 0 0 0 2 -1 2.81 2.81 0 0 1 0.35 0.48 11.91 11.91 0 0 1 0.69 1.45c0.38 0.83 0.85 1.84 1.24 2.89a9.67 9.67 0 0 1 0.54 1.92 3.28 3.28 0 0 1 -0.69 2.88 3 3 0 0 1 -1.3 0.79 14.11 14.11 0 0 1 -2.54 0.44 0.31 0.31 0 0 0 -0.29 0.34 0.32 0.32 0 0 0 0.35 0.29 14.4 14.4 0 0 0 2.7 -0.3 3.81 3.81 0 0 0 0.45 -0.13 0.32 0.32 0 0 0 0.17 0.42 3.6 3.6 0 0 1 0.52 0.26 3 3 0 0 1 0.46 0.35 1.73 1.73 0 0 1 0.26 0.28 1.09 1.09 0 0 1 0.18 0.31 1.16 1.16 0 0 1 -0.31 1.51 7.12 7.12 0 0 1 -2.89 0.93 16.47 16.47 0 0 1 -2.3 0.24 15.08 15.08 0 0 1 -2.32 -0.11 9.3 9.3 0 0 1 -1.58 -0.26 2.62 2.62 0 0 1 -0.87 -0.39c-1.32 -0.9 -1.26 -2.41 -0.68 -3.79a6.66 6.66 0 0 1 3 -3.36 0.29 0.29 0 0 0 0.14 -0.37 0.28 0.28 0 0 0 -0.36 -0.15A7.53 7.53 0 0 0 6.46 19a3.48 3.48 0 0 0 1.16 4 3.9 3.9 0 0 0 1.18 0.57 11.56 11.56 0 0 0 1.76 0.3A15.86 15.86 0 0 0 13 24a14.73 14.73 0 0 0 2.45 -0.34 8 8 0 0 0 3.22 -1.24 1.85 1.85 0 0 0 0.49 -2.42Zm-6 -12.41A2.94 2.94 0 0 1 10.91 7a3.13 3.13 0 0 1 -1.38 -2 3.61 3.61 0 0 1 0.57 -2.45 3.9 3.9 0 0 1 4.05 -1.7A3.35 3.35 0 0 1 16 1.92a3 3 0 0 1 0 3.38 4.57 4.57 0 0 1 -2.8 2.26Z" fill="#000000" fill-rule="evenodd" stroke-width="1"></path>
</svg>