<svg xmlns="http://www.w3.org/2000/svg" viewBox="0 0 24 24" id="Religion-Christianity-Fish--Streamline-Freehand">
  <desc>
    Religion Christianity Fish Streamline Icon: https://streamlinehq.com
  </desc>
  <path d="M24 16.64a25.89 25.89 0 0 0 -3.12 -4.9c0.14 -0.17 0.29 -0.35 0.42 -0.53a18 18 0 0 0 2 -3.46 0.32 0.32 0 1 0 -0.59 -0.27 17.06 17.06 0 0 1 -2 3.25l-0.34 0.39a16 16 0 0 0 -4.7 -3.57 11.27 11.27 0 0 0 -5.46 -1.12 11.77 11.77 0 0 0 -3.71 0.77A11.21 11.21 0 0 0 0 13.44c-0.22 0.5 3.68 2.77 4.1 3a11.27 11.27 0 0 0 4.54 1.17 9.81 9.81 0 0 0 2.57 -0.3A20.38 20.38 0 0 0 14.77 16c0.73 -0.34 1.48 -0.68 2.21 -1.06a14.8 14.8 0 0 0 1.43 -0.88 11.93 11.93 0 0 0 1.87 -1.67 24.82 24.82 0 0 1 3.11 4.55 0.32 0.32 0 0 0 0.43 0.13 0.33 0.33 0 0 0 0.18 -0.43Zm-6.09 -3.37a12 12 0 0 1 -1.35 0.76c-0.73 0.36 -1.47 0.67 -2.19 1A20.12 20.12 0 0 1 11 16.24a9.89 9.89 0 0 1 -2.29 0.33 10.56 10.56 0 0 1 -4.22 -0.87 15.32 15.32 0 0 1 -3.8 -2.33 10.57 10.57 0 0 1 6.14 -5.26 11.87 11.87 0 0 1 3.35 -0.61 10.5 10.5 0 0 1 5 1 15.18 15.18 0 0 1 4.57 3.26 11.14 11.14 0 0 1 -1.88 1.51Z" fill="#000000" fill-rule="evenodd" stroke-width="1"></path>
</svg>