<svg xmlns="http://www.w3.org/2000/svg" viewBox="0 0 24 24" id="Religion-Bible-Cross-1--Streamline-Freehand">
  <desc>
    Religion Bible Cross 1 Streamline Icon: https://streamlinehq.com
  </desc>
  <g>
    <path d="M14.52 8A1.87 1.87 0 0 1 15 8a0.32 0.32 0 0 0 0.07 -0.63 4 4 0 0 0 -0.6 0c-0.42 0 -0.83 0.06 -1.24 0.07l-0.63 0c-0.1 -0.79 -0.2 -1.58 -0.25 -2.37a0.26 0.26 0 0 0 -0.27 -0.28 0.27 0.27 0 0 0 -0.28 0.27c-0.07 0.81 -0.1 1.61 -0.11 2.41h-0.09c-0.82 0.06 -1.62 0.19 -2.44 0.24a0.28 0.28 0 0 0 -0.29 0.29 0.29 0.29 0 0 0 0.27 0.29 16.15 16.15 0 0 0 2.08 0.24l0.46 0v0.12c0 0.7 0.11 1.41 0.19 2.11 0.11 1 0.27 2.08 0.34 3.13a0.31 0.31 0 0 0 0.32 0.31 0.32 0.32 0 0 0 0.31 -0.32c0.05 -1.19 0.07 -2.37 0 -3.55 0 -0.62 -0.09 -1.24 -0.15 -1.86l0.6 -0.09c0.42 -0.13 0.82 -0.27 1.23 -0.38Z" fill="#000000" fill-rule="evenodd" stroke-width="1"></path>
    <path d="M21 1.91a3.39 3.39 0 0 0 -0.51 -1.48 1 1 0 0 0 -0.63 -0.38 4.71 4.71 0 0 0 -0.95 0l-1.75 0c-0.58 0 -1.16 0.05 -1.76 0.11l-2.49 0.3A34.59 34.59 0 0 0 9.14 1a15.63 15.63 0 0 0 -2.47 0.73c-0.34 0.15 -0.67 0.27 -1.07 0.43a3.5 3.5 0 0 0 -0.72 0.45A4.09 4.09 0 0 0 4 3.88a4.44 4.44 0 0 0 -0.32 0.83s-0.07 0.32 -0.1 0.48l0 0.11a16.59 16.59 0 0 0 -0.37 1.8C3.08 8.27 3 9.45 3 10.62c0 1.33 -0.07 2.66 -0.07 4 0 0.89 0 1.78 0.06 2.68a19.7 19.7 0 0 0 0.24 3.33 3.78 3.78 0 0 0 1.2 2.16 5.2 5.2 0 0 0 2.19 1A15.83 15.83 0 0 0 10 24c0.76 0 2.93 -0.09 5.11 -0.18s4.36 -0.2 5.11 -0.26a0.31 0.31 0 0 0 0.29 -0.33 0.31 0.31 0 0 0 -0.33 -0.3l-1.13 0c0 -0.51 0.08 -1 0.1 -1.52l0 -0.64 0 -0.65c-0.07 -0.51 -0.18 -1 -0.26 -1.5a0.25 0.25 0 0 0 -0.08 -0.18l0.68 0a0.31 0.31 0 0 0 0.29 -0.34 0.33 0.33 0 0 0 -0.34 -0.29 7.23 7.23 0 0 1 -1.14 0c-0.94 -0.07 -1.88 -0.22 -2.8 -0.22 -0.69 0 -1.4 0.05 -2.1 0.13 -1 0.11 -2 0.29 -3.05 0.41 -0.69 0.1 -1.34 0.1 -2 0.24a4.24 4.24 0 0 0 -0.89 0.3 7.58 7.58 0 0 0 -2.42 1.55 2 2 0 0 0 -0.5 1.07 3.87 3.87 0 0 1 -0.29 -0.85A18.79 18.79 0 0 1 4 17.23c-0.07 -0.88 -0.11 -1.76 -0.14 -2.63 0 -1.33 -0.07 -2.65 -0.09 -4l0 -3.47A17 17 0 0 1 4 5.23a4.58 4.58 0 0 1 0.41 -1.1 3.26 3.26 0 0 1 0.83 -1 2.23 2.23 0 0 1 0.56 -0.33c0.35 -0.14 0.71 -0.24 1 -0.36a16.16 16.16 0 0 1 2.37 -0.61A36 36 0 0 1 13 1.42l2.51 -0.24c0.56 -0.05 1.13 -0.08 1.69 -0.1s1.15 0 1.71 0c0.16 0 0.91 -0.16 0.79 0a3 3 0 0 1 0.3 1.36A22.78 22.78 0 0 1 19.91 5c-0.08 2.26 0 7 0 10.33 0 1 0 1.89 -0.07 2.56a0.32 0.32 0 0 0 0.29 0.34 0.33 0.33 0 0 0 0.34 -0.29c0.05 -0.68 0.09 -1.57 0.14 -2.59 0.13 -3.37 0.2 -8 0.35 -10.3A18.94 18.94 0 0 0 21 1.91ZM5.61 20.68a6.39 6.39 0 0 1 2.24 -1.18 3.68 3.68 0 0 1 1 -0.22c0.55 -0.07 1.1 -0.08 1.67 -0.15 1.18 -0.18 2.37 -0.4 3.55 -0.56 0.5 -0.07 1 -0.13 1.5 -0.16 0.9 -0.06 1.83 0 2.74 0h0.14a0.29 0.29 0 0 0 -0.07 0.18c-0.07 0.51 -0.16 1 -0.2 1.52l0 0.65a4.62 4.62 0 0 0 0.06 0.65c0.06 0.52 0.16 1 0.25 1.51l-3.38 0.08 -5.08 0a15 15 0 0 1 -3.17 -0.23 4.2 4.2 0 0 1 -1.37 -0.57l-0.18 -0.2a1.07 1.07 0 0 1 0.3 -1.32Z" fill="#000000" fill-rule="evenodd" stroke-width="1"></path>
  </g>
</svg>