<svg xmlns="http://www.w3.org/2000/svg" viewBox="0 0 24 24" id="Religion-Peace--Streamline-Freehand">
  <desc>
    Religion Peace Streamline Icon: https://streamlinehq.com
  </desc>
  <path d="M13.54 11.15a11.76 11.76 0 0 0 -1.31 -0.71l-0.06 0c0 -0.4 0 -0.81 -0.05 -1.21 0 -0.72 -0.06 -1.44 -0.1 -2.15 -0.09 -1.72 -0.21 -3.44 -0.39 -5.16 0.08 -0.43 -0.5 -0.43 -0.58 -0.07 0.09 2.48 0 4.94 0 7.41l0 0.93a1.87 1.87 0 0 0 -0.67 0.4c-0.41 0.35 -0.85 0.86 -1 1l-3.59 3.27c-0.63 0.59 -1.25 1.18 -1.85 1.8 -0.44 0.44 -0.86 0.89 -1.28 1.34s-0.06 0.91 0.3 0.55 1 -0.94 1.46 -1.39S5.69 16 6.34 15.5l3.75 -3.11c0.17 -0.16 0.53 -0.57 0.89 -0.9l0.16 -0.15 0.06 1.13c0.16 1.82 0.48 3.61 0.7 5.42 0.09 0.76 0.18 1.53 0.21 2.3a0.31 0.31 0 0 0 0.32 0.31 0.32 0.32 0 0 0 0.32 -0.32c0 -0.79 0 -1.58 -0.09 -2.36 -0.12 -1.81 -0.35 -3.6 -0.41 -5.41l0 -0.78 0.54 0.28c0.48 0.27 1 0.57 1.42 0.88L21 17a0.32 0.32 0 0 0 0.36 -0.54L14.75 12c-0.4 -0.32 -0.75 -0.6 -1.21 -0.85Z" fill="#000000" fill-rule="evenodd" stroke-width="1"></path>
  <path d="M22.45 5.77a9.44 9.44 0 0 0 -3.55 -3.2A18.43 18.43 0 0 0 12.08 0.86C6.59 0.33 4.4 2.15 2.93 4A15.62 15.62 0 0 0 0.06 14.42a17.89 17.89 0 0 0 0.31 1.9A10.13 10.13 0 0 0 1 18.18a7.33 7.33 0 0 0 3.38 3.58 16.29 16.29 0 0 0 7.07 1.47 14.27 14.27 0 0 0 7.05 -1.73 11.36 11.36 0 0 0 5.11 -7.11 10.72 10.72 0 0 0 -1.16 -8.62Zm0.18 8.37A10.58 10.58 0 0 1 18 20.57a12.74 12.74 0 0 1 -3.16 1.21 13.18 13.18 0 0 1 -3.36 0.38 15.38 15.38 0 0 1 -6.61 -1.31 6.78 6.78 0 0 1 -3 -3.05 9.12 9.12 0 0 1 -0.58 -1.69 14.05 14.05 0 0 1 -0.33 -1.79 14.73 14.73 0 0 1 2.51 -9.88C7.21 -0.54 16.28 2 18.53 3.27a8.83 8.83 0 0 1 3.2 3 9.89 9.89 0 0 1 0.9 7.87Z" fill="#000000" fill-rule="evenodd" stroke-width="1"></path>
</svg>