<svg xmlns="http://www.w3.org/2000/svg" viewBox="0 0 24 24" id="Road-Sign-Turn-1--Streamline-Freehand">
  <desc>
    Road Sign Turn 1 Streamline Icon: https://streamlinehq.com
  </desc>
  <g>
    <path d="M12.43 0.59c0.05 0 0.1 0.05 0.1 0h-0.1Z" fill="#000000" stroke-width="1"></path>
    <path d="M23.8 11.06A7.47 7.47 0 0 0 23 10c-1.87 -2 -6.46 -6.52 -8.54 -8.56l-1 -0.93a0.12 0.12 0 0 0 -0.05 0 0.34 0.34 0 0 0 -0.29 -0.17S12.68 0.65 13 1l1 1c2 2.06 6.52 6.59 8.33 8.7 0.26 0.31 0.42 0.71 0.55 0.84 -0.08 0.13 -0.21 0.31 -0.33 0.49 -1 1.42 -3.47 4.32 -5.78 6.79A33.45 33.45 0 0 1 13 22.37a2.45 2.45 0 0 1 -0.75 0.46c0 -0.12 -0.34 -0.18 -0.58 -0.38a39.06 39.06 0 0 1 -2.91 -2.71c-2.6 -2.62 -5.79 -6.12 -7.12 -7.81 -0.16 -0.2 -0.35 -0.39 -0.47 -0.54C2.34 10.16 4.52 8 6.68 5.85S11 1.73 12 0.91c0.16 -0.12 0.31 -0.26 0.4 -0.32l0.09 0a0.25 0.25 0 0 0 0.2 -0.06 0.3 0.3 0 0 0 0 -0.43c-0.07 -0.09 -0.33 -0.2 -0.69 0A22 22 0 0 0 9.76 2C6.79 4.6 2.08 9.12 0.25 10.9a0.54 0.54 0 0 0 -0.13 0.53 2.61 2.61 0 0 0 0.38 0.69c0.64 0.91 2.17 2.76 3.92 4.71a71.12 71.12 0 0 0 6.48 6.53 2.52 2.52 0 0 0 1.22 0.64 3 3 0 0 0 1.53 -0.7 31.72 31.72 0 0 0 3.9 -3.77 86.63 86.63 0 0 0 5.75 -7 3.79 3.79 0 0 0 0.6 -1.09 0.84 0.84 0 0 0 -0.1 -0.38Zm-22.74 0.11c0.12 -0.05 0.09 0.05 0 0.17 -0.06 -0.08 -0.06 -0.15 0 -0.17Z" fill="#000000" stroke-width="1"></path>
    <path d="M11.2 5c0.14 0.36 1.34 0 1.57 0a0.34 0.34 0 0 0 0 -0.68 13.2 13.2 0 0 0 -1.52 -0.1 0.79 0.79 0 0 0 -0.6 0.26 1.38 1.38 0 0 0 -0.21 0.71l0 1.31a4.43 4.43 0 0 0 -0.07 0.78 17.51 17.51 0 0 0 -2 0 1.19 1.19 0 0 0 -0.77 0.3 0.68 0.68 0 0 0 -0.13 0.33c0 0.18 0 0.47 -0.05 0.58v0.77l0 0.83a1.08 1.08 0 0 0 0.14 0.45 1.4 1.4 0 0 0 0.79 0.37c0.6 0.11 1.55 0.15 1.94 0.2a2.11 2.11 0 0 1 0 0.25c0 1.39 -0.11 4.47 0 6.42a6.85 6.85 0 0 0 0.25 1.76 0.8 0.8 0 0 0 0.46 0.48 4.27 4.27 0 0 0 0.55 0.08c0.39 0 0.89 0.07 1 0.07a4 4 0 0 0 0.9 0 0.89 0.89 0 0 0 0.47 -0.3 2 2 0 0 0 0.25 -0.78 21.87 21.87 0 0 0 0.14 -2.21 3.6 3.6 0 0 0 0.07 -0.83l0.14 0c0.54 -0.07 1.26 -0.06 1.79 -0.11a2 2 0 0 0 0.87 -0.23 0.83 0.83 0 0 0 0.37 -0.59 7.5 7.5 0 0 0 -0.13 -1.28 4.8 4.8 0 0 0 0 -0.66 0.73 0.73 0 0 0 -0.11 -0.3 1.66 1.66 0 0 0 -0.94 -0.5 13.5 13.5 0 0 0 -1.87 -0.13 4.79 4.79 0 0 1 -0.75 -0.08v-1l0.05 -4.39 0.06 -1.42a2.06 2.06 0 0 0 0 -0.43 0.31 0.31 0 0 0 -0.47 -0.21 0.3 0.3 0 0 0 -0.17 0.39 0.27 0.27 0 0 0 0.06 0.1 0.65 0.65 0 0 0 -0.05 0.15L13.1 6.7l-0.2 4.41 0 0.93a3 3 0 0 0 0 0.39 0.46 0.46 0 0 0 0.2 0.35 1.58 1.58 0 0 0 0.47 0.2 18.76 18.76 0 0 0 2.08 0.22 1.6 1.6 0 0 1 0.87 0.22c0 -0.05 -0.11 -0.13 0 -0.13s0.06 0.05 0.05 0.14c0 0.14 -0.09 0.35 -0.09 0.39 0 0.25 -0.15 0.86 0 1l-0.34 0c-0.58 0 -1.33 0 -1.86 0.06a1.46 1.46 0 0 0 -0.95 0.45 0.81 0.81 0 0 0 -0.15 0.38 9.48 9.48 0 0 0 0 1.11L13 19a2.71 2.71 0 0 0 -0.47 0.06l-1 -0.07c0 -0.11 -0.05 -0.24 -0.06 -0.36 -0.21 -1.68 -0.16 -5.47 -0.17 -7.12l0 -0.75a0.55 0.55 0 0 0 -0.12 -0.36 0.63 0.63 0 0 0 -0.24 -0.18 1.42 1.42 0 0 0 -0.36 0c-0.42 -0.06 -1.55 -0.08 -2.16 -0.2a3.64 3.64 0 0 0 -0.08 -0.69l0 -0.67a2.89 2.89 0 0 0 0.09 -0.43 15.93 15.93 0 0 1 2 -0.08 3.49 3.49 0 0 0 0.45 0 0.54 0.54 0 0 0 0.33 -0.19 0.88 0.88 0 0 0 0.12 -0.46c0 -0.31 -0.08 -0.81 -0.08 -0.94l0 -1.07A1.9 1.9 0 0 1 11.2 5Zm2.05 0.12s-0.07 -0.09 0 -0.09 0.01 0.03 0 0.08Zm0.41 7.26c-0.05 0 0 -0.07 0 -0.14s0.09 0.13 0 0.13Z" fill="#000000" stroke-width="1"></path>
    <path d="m16.437 13.43 0.007 -0.007 -0.007 0.007Z" fill="#000000" stroke-width="1"></path>
  </g>
</svg>