<svg xmlns="http://www.w3.org/2000/svg" viewBox="0 0 24 24" id="School-Bell--Streamline-Freehand">
  <desc>
    School Bell Streamline Icon: https://streamlinehq.com
  </desc>
  <g>
    <path d="M5.08 7.63a1.88 1.88 0 0 0 -0.68 0.88 1.52 1.52 0 0 0 -0.1 0.49 1.78 1.78 0 0 0 0 0.46 2.77 2.77 0 0 0 0.4 1 0.32 0.32 0 1 0 0.59 -0.24 3.33 3.33 0 0 1 0 -1.08l0 -0.33a1.37 1.37 0 0 1 0 -0.35A1.18 1.18 0 0 1 5.5 8a0.28 0.28 0 1 0 -0.42 -0.37Z" fill="#000000" fill-rule="evenodd" stroke-width="1"></path>
    <path d="M3.16 6.18A5.32 5.32 0 0 0 2.1 8a3.94 3.94 0 0 0 -0.16 0.91 4.21 4.21 0 0 0 0 0.94 3.84 3.84 0 0 0 1 2 0.32 0.32 0 0 0 0.51 -0.39A3.45 3.45 0 0 1 3 9.51a8.34 8.34 0 0 1 0.1 -1.21 5.8 5.8 0 0 1 0.53 -1.8 0.28 0.28 0 0 0 -0.46 -0.32Z" fill="#000000" fill-rule="evenodd" stroke-width="1"></path>
    <path d="M19.43 7.74a2.76 2.76 0 0 0 -0.91 -1 0.28 0.28 0 0 0 -0.4 0.4 2.51 2.51 0 0 1 0.35 0.94c0 0.12 0.06 0.25 0.09 0.38a4.26 4.26 0 0 1 0.14 1.44 0.33 0.33 0 0 0 0.23 0.39 0.33 0.33 0 0 0 0.39 -0.24 4.26 4.26 0 0 0 0.33 -1.22 2.79 2.79 0 0 0 0 -0.58 2.11 2.11 0 0 0 -0.22 -0.51Z" fill="#000000" fill-rule="evenodd" stroke-width="1"></path>
    <path d="M22.05 8.16a5.17 5.17 0 0 0 -0.21 -1 3.92 3.92 0 0 0 -1.37 -1.94 0.28 0.28 0 0 0 -0.4 0 0.29 0.29 0 0 0 0 0.4 3.48 3.48 0 0 1 0.74 1.77c0.06 0.28 0.1 0.56 0.14 0.84a7.89 7.89 0 0 1 0.05 0.84 3.87 3.87 0 0 1 -0.31 1.93 0.32 0.32 0 0 0 0.54 0.35A4.45 4.45 0 0 0 22 9.17a4.86 4.86 0 0 0 0.05 -1.01Z" fill="#000000" fill-rule="evenodd" stroke-width="1"></path>
    <path d="M17.56 14.73a4 4 0 0 1 -0.39 -1.47c-0.18 -1.4 0 -2.8 -0.24 -4.16a6.58 6.58 0 0 0 -0.56 -1.82 4.64 4.64 0 0 0 -2.8 -2.35s0 0 0 -0.07a3.75 3.75 0 0 0 -0.2 -1 1.65 1.65 0 0 0 -0.45 -0.64 1.92 1.92 0 0 0 -1.1 -0.47c0 -0.31 0.07 -0.59 0.09 -0.89a2.41 2.41 0 0 0 0 -0.38 2.65 2.65 0 0 0 0 -0.38 7.08 7.08 0 0 0 -0.31 -0.88 0.28 0.28 0 0 0 -0.34 -0.22 0.3 0.3 0 0 0 -0.26 0.31c0 0.31 -0.12 0.59 -0.15 0.9a2.41 2.41 0 0 0 0 0.38 2.63 2.63 0 0 0 0.06 0.39c0.08 0.3 0.18 0.57 0.28 0.86a2.15 2.15 0 0 0 -0.68 0.29 2.21 2.21 0 0 0 -0.91 2.09 4.58 4.58 0 0 0 -1.91 1.72A5.78 5.78 0 0 0 7 9.09a14.22 14.22 0 0 0 -0.09 3.24 9.1 9.1 0 0 1 0 2.5 2.7 2.7 0 0 1 -0.72 1.36 0.28 0.28 0 0 0 0 0.4 0.25 0.25 0 0 0 0.27 0.05s0.07 0.07 0.12 0.07a10.81 10.81 0 0 0 1.95 0.23l1.29 0a3 3 0 0 0 1.61 2 1.94 1.94 0 0 0 1.55 0A2.48 2.48 0 0 0 14 18a2.77 2.77 0 0 0 0.22 -0.46 6.56 6.56 0 0 0 0.17 -0.67l0.35 0a4.46 4.46 0 0 0 0.51 -0.07 2.71 2.71 0 0 1 0.27 1 1.49 1.49 0 0 1 0 0.47 1.15 1.15 0 0 1 -0.2 0.56c-0.27 0.46 -0.7 0.87 -0.92 1.35a5.1 5.1 0 0 0 0 2.15 3 3 0 0 0 0.21 0.35 3.66 3.66 0 0 0 0.37 0.45 4.72 4.72 0 0 0 0.78 0.78 1 1 0 0 0 0.83 0.15 0.53 0.53 0 0 0 0.3 -0.25 3.92 3.92 0 0 0 0.21 -0.59 3.2 3.2 0 0 0 0 -1.38 1.35 1.35 0 0 0 -0.65 -0.92 0.78 0.78 0 0 0 -0.57 0 5.46 5.46 0 0 0 -0.94 0.57 0.33 0.33 0 0 0 0 -0.17 0.89 0.89 0 0 1 0.18 -0.72 4.36 4.36 0 0 1 0.6 -0.62 4.47 4.47 0 0 0 0.46 -0.53 2.11 2.11 0 0 0 0.33 -1.46 3.13 3.13 0 0 0 -0.53 -1.31l0.47 -0.07a5.34 5.34 0 0 1 0.69 -0.05 0.31 0.31 0 0 0 0.33 -0.3 0.32 0.32 0 0 0 -0.3 -0.34 6.57 6.57 0 0 0 -0.77 0c-0.56 0 -1.13 0.07 -1.69 0.07l-2 0 -1.37 0 -1 0.08c-0.77 0.09 -1.53 0.2 -2.3 0.24l-1.09 0a3.23 3.23 0 0 0 0.5 -1.31 9.7 9.7 0 0 0 0.17 -2.69 13.94 13.94 0 0 1 0.24 -3 5.17 5.17 0 0 1 0.69 -1.78 4 4 0 0 1 3.55 -1.78 3.84 3.84 0 0 1 3.4 2 5.66 5.66 0 0 1 0.5 1.51c0.26 1.34 0.17 2.73 0.4 4.11a5.17 5.17 0 0 0 0.53 1.7 2.06 2.06 0 0 0 1 0.85 0.31 0.31 0 0 0 0.42 -0.15 0.33 0.33 0 0 0 -0.16 -0.43 1.43 1.43 0 0 1 -0.63 -0.61Zm-2.44 7.15c0.11 0 0.68 0 0.87 -0.19a1.19 1.19 0 0 1 0 0.39 3 3 0 0 1 -0.06 0.77v0.08c-0.2 -0.15 -0.46 -0.4 -0.54 -0.47a4.06 4.06 0 0 1 -0.37 -0.32 1.5 1.5 0 0 1 -0.2 -0.23 0.28 0.28 0 0 0 0.3 -0.03Zm-3.79 -4.95c0.55 0 1.11 0 1.66 -0.06l0.66 -0.05 -0.12 0.29a2 2 0 0 1 -0.25 0.35 1.75 1.75 0 0 1 -0.77 0.51 1.32 1.32 0 0 1 -0.81 0 2.39 2.39 0 0 1 -1.31 -1ZM10.23 5a1.55 1.55 0 0 1 0.83 -1 1.41 1.41 0 0 1 0.66 -0.17 1.2 1.2 0 0 1 0.67 0.17 0.93 0.93 0 0 1 0.33 0.35c0.06 0.13 0.1 0.26 0.15 0.39a3.65 3.65 0 0 0 -0.74 -0.08 5.34 5.34 0 0 0 -1.9 0.34Z" fill="#000000" fill-rule="evenodd" stroke-width="1"></path>
  </g>
</svg>