<svg xmlns="http://www.w3.org/2000/svg" viewBox="0 0 24 24" id="Security-Shield-Check-1--Streamline-Freehand">
  <desc>
    Security Shield Check 1 Streamline Icon: https://streamlinehq.com
  </desc>
  <g>
    <path d="M22.89 2.72C19.29 -1.2 6.73 -0.49 1.37 2.37A0.36 0.36 0 0 0 1.7 3C7.22 0.17 19.12 0.1 22.09 3.45c0.54 0.61 -0.4 9 -0.92 11.24s-5 6.18 -7.22 7.52c-1.46 0.88 -1.63 0.85 -3.06 0 -2.72 -1.67 -7.84 -6.39 -8 -7.56 0 -0.17 -1.83 -9.61 -1.66 -10.28a0.32 0.32 0 0 0 -0.61 -0.16C0.43 5.06 2.08 14.38 2.1 14.7c0.13 1.83 8 9.31 10.36 9.3s9.16 -5.89 9.88 -9c0.36 -1.62 1.71 -11 0.55 -12.28Z" fill="#000000" fill-rule="evenodd" stroke-width="1"></path>
    <path d="M11.8 11.46c-0.58 -0.6 -1 -2.12 -1.47 -2.17 -0.73 -0.07 0.47 2.34 0.51 2.42 1.41 2.78 3.66 -1.75 5.33 -4.28a14.06 14.06 0 0 0 1 -1.74c0.21 -0.45 0.49 -0.93 0.51 -1 0.08 -0.3 -0.13 -0.42 -0.34 -0.41 -0.42 0 -0.61 0.74 -1.4 1.86 -0.41 0.58 1 -1.45 -3.82 5.24 -0.24 0.22 -0.19 0.22 -0.32 0.08Z" fill="#000000" fill-rule="evenodd" stroke-width="1"></path>
    <path d="M12.53 6.06a5.86 5.86 0 0 0 -5.8 3.52 4.47 4.47 0 0 0 0 3.41A6.7 6.7 0 0 0 10 15.82c2.78 0.83 5 0.45 6.59 -1.94 1.16 -1.75 1.62 -4.2 -0.07 -5.43a0.36 0.36 0 0 0 -0.44 0.56c1.29 1 0.68 3 -0.27 4.31 -1.4 1.9 -3.18 2.1 -5.45 1.35a5.9 5.9 0 0 1 -2.6 -2.27 3.66 3.66 0 0 1 -0.07 -2.49 5 5 0 0 1 4.84 -3.22 0.31 0.31 0 1 0 0 -0.63Z" fill="#000000" fill-rule="evenodd" stroke-width="1"></path>
  </g>
</svg>