<svg xmlns="http://www.w3.org/2000/svg" viewBox="0 0 24 24" id="Study-Learning-Bachelor--Streamline-Freehand">
  <desc>
    Study Learning Bachelor Streamline Icon: https://streamlinehq.com
  </desc>
  <g>
    <path d="M15.81 14.32a6.47 6.47 0 0 0 -1.81 -0.73 4 4 0 0 0 1.21 -1.15 3.76 3.76 0 0 0 0.36 -0.79 7.74 7.74 0 0 0 0.25 -1.16A16.45 16.45 0 0 0 16 8.62a15.26 15.26 0 0 0 0 -1.79l2.35 -0.93c0.45 -0.16 0 -0.85 -0.06 -0.9 -0.8 -0.4 -1.6 -0.77 -2.42 -1.12s-1.62 -0.65 -2.49 -0.95l-1.13 -0.41c-0.05 0 -0.31 -0.13 -0.43 -0.16a0.66 0.66 0 0 0 -0.31 0c-0.72 0.19 -1.44 0.39 -2.13 0.63 -0.46 0.16 -0.92 0.35 -1.37 0.54A32.18 32.18 0 0 0 5 5.06l-0.18 0.09a0.3 0.3 0 0 0 -0.12 0.4 0.27 0.27 0 0 0 0.19 0.14 3.77 3.77 0 0 0 -0.16 0.6 2.17 2.17 0 0 0 0 0.44 2.3 2.3 0 0 0 0 0.45 9.41 9.41 0 0 0 0.29 1 0.33 0.33 0 0 0 0.37 0.28 0.32 0.32 0 0 0 0.28 -0.37c0 -0.33 0.07 -0.64 0.1 -1l0 -0.4 0 -0.41a2.74 2.74 0 0 1 0 -0.28 15.31 15.31 0 0 0 1.67 0.84l0 2.86 0 0.8a6.07 6.07 0 0 0 0.2 1.5 3.26 3.26 0 0 0 0.48 0.9 3.72 3.72 0 0 0 1.24 1A7 7 0 0 0 5 18.23a13.2 13.2 0 0 0 -0.47 1.85 6.92 6.92 0 0 0 -0.1 1.3 0.28 0.28 0 0 0 0.29 0.28 0.29 0.29 0 0 0 0.28 -0.29 6.46 6.46 0 0 1 0.15 -1.17 14.57 14.57 0 0 1 0.57 -1.73 5.52 5.52 0 0 1 1.64 -2.27c0 0.36 -0.06 0.72 -0.07 1.09s0 0.61 0 0.91 0.06 0.61 0.11 0.91c0.1 0.71 0.25 1.4 0.37 2.1a0.33 0.33 0 0 0 0.66 -0.06l0 -2.12 0 -0.9c0 -0.3 0 -0.6 -0.08 -0.9 -0.07 -0.53 -0.15 -1.06 -0.22 -1.59l0.32 -0.19L10.66 18c0.27 0.29 0.32 0.63 0.76 0.87a3.55 3.55 0 0 0 -0.09 0.47 1.61 1.61 0 0 0 0 0.38 2.5 2.5 0 0 0 0.06 0.38c0.07 0.29 0.17 0.56 0.26 0.85a0.33 0.33 0 0 0 0.66 -0.06c0 -0.29 0.1 -0.57 0.12 -0.87a2.29 2.29 0 0 0 0 -0.37 1.49 1.49 0 0 0 0 -0.36 3.33 3.33 0 0 0 -0.13 -0.45 1.91 1.91 0 0 0 0.36 -0.29 7 7 0 0 0 0.66 -0.93c0.48 -0.76 0.88 -1.58 1.36 -2.35l0.22 -0.32 0.07 0c0 0.62 -0.08 1.24 -0.08 1.87 0 0.35 0 0.69 0.05 1s0.06 0.69 0.11 1c0.11 0.8 0.27 1.59 0.42 2.39a0.33 0.33 0 0 0 0.36 0.29 0.33 0.33 0 0 0 0.3 -0.36l0 -2.4 0 -1c0 -0.32 -0.06 -0.68 -0.1 -1s-0.13 -0.9 -0.21 -1.36a6.68 6.68 0 0 1 2 2.19 8.78 8.78 0 0 1 0.97 3.43 0.33 0.33 0 1 0 0.66 -0.06 9.75 9.75 0 0 0 -1 -3.69 7.39 7.39 0 0 0 -2.64 -2.93Zm-0.56 -5.76 0 0.23a5.34 5.34 0 0 1 -1.47 0.4 10.62 10.62 0 0 1 -1.38 0.06h-1.47A10.06 10.06 0 0 1 9 9.2a4.37 4.37 0 0 1 -0.94 -0.26c0 -0.6 -0.08 -1.19 -0.13 -1.79 0.73 0.29 1.47 0.55 2.2 0.76 0.33 0.09 0.75 0.25 1.15 0.35a3.46 3.46 0 0 0 0.61 0.09 1 1 0 0 0 0.31 0 2.85 2.85 0 0 0 0.36 -0.13L14 7.64l1.36 -0.54a12 12 0 0 1 -0.11 1.46Zm-9.5 -3.19c0.62 -0.26 1.25 -0.52 1.91 -0.75S9 4.2 9.71 4s1.23 -0.35 1.85 -0.51a1 1 0 0 0 0.32 0.09l1.2 0.38c0.86 0.22 1.68 0.47 2.49 0.74s1.36 0.49 2 0.75l-4 1.23 -1.42 0.46c-0.19 0.07 0 0.19 -0.65 0 -0.4 -0.09 -0.81 -0.24 -1.14 -0.32A24.51 24.51 0 0 1 7.2 6a14.64 14.64 0 0 1 -1.45 -0.63Zm2.73 6.07a5.61 5.61 0 0 1 -0.24 -1c0 -0.25 -0.06 -0.51 -0.09 -0.76a6 6 0 0 0 0.7 0.28 10.12 10.12 0 0 0 2.05 0.36l1.24 0a8.81 8.81 0 0 0 1.27 -0.15 6.63 6.63 0 0 0 1.65 -0.53c0 0.22 -0.06 0.44 -0.1 0.65a7.25 7.25 0 0 1 -0.29 1 2.42 2.42 0 0 1 -0.29 0.55 3.55 3.55 0 0 1 -2.69 1.36 3.22 3.22 0 0 1 -2.77 -1 2.41 2.41 0 0 1 -0.44 -0.76ZM14 14.87c-0.55 0.71 -1 1.47 -1.59 2.17 -0.14 0.19 -0.31 0.46 -0.51 0.69l-0.49 -0.46 -2.36 -2.12a5.88 5.88 0 0 1 0.79 -0.31 7.2 7.2 0 0 1 4.28 -0.13s-0.12 0.1 -0.12 0.16Z" fill="#000000" fill-rule="evenodd" stroke-width="1"></path>
    <path d="M22.78 13.19a3.82 3.82 0 0 0 -1.05 -0.69 2.37 2.37 0 0 0 0.32 -0.39A2.35 2.35 0 0 0 22.3 10a2.49 2.49 0 0 0 -1.38 -1.34 2.36 2.36 0 0 0 -3.25 2.84 2.53 2.53 0 0 0 0.94 1.35 5.87 5.87 0 0 0 -1 0.78 0.29 0.29 0 1 0 0.37 0.45 4.5 4.5 0 0 1 1.2 -0.6 3 3 0 0 1 1.23 -0.15 2.49 2.49 0 0 1 1.07 0.27 4.19 4.19 0 0 1 0.69 0.38 2.9 2.9 0 0 1 1.2 1.55 0.33 0.33 0 0 0 0.63 -0.13 3.58 3.58 0 0 0 -1.22 -2.21Zm-2.19 -3.82a1.56 1.56 0 0 1 0.82 0.94 1.32 1.32 0 0 1 -0.26 1.19 1.52 1.52 0 0 1 -1 0.67 1.44 1.44 0 0 1 -1.54 -1 1.43 1.43 0 0 1 1.98 -1.8Z" fill="#000000" fill-rule="evenodd" stroke-width="1"></path>
    <path d="M5.55 13.83a6.23 6.23 0 0 1 0.84 0.38 0.33 0.33 0 1 0 0.35 -0.56A6.94 6.94 0 0 0 5.67 13l-0.33 -0.1a2.33 2.33 0 0 0 0.5 -0.72A2.15 2.15 0 0 0 5.59 10a2.33 2.33 0 0 0 -1.25 -0.83 2.8 2.8 0 0 0 -1.75 0.09 1.83 1.83 0 0 0 -0.48 0.25 2.11 2.11 0 0 0 -0.66 2.78 2.31 2.31 0 0 0 0.76 0.91 4.13 4.13 0 0 0 -0.49 0.32A5 5 0 0 0 0 16.11a0.3 0.3 0 0 0 0.17 0.38 0.29 0.29 0 0 0 0.37 -0.18 4.88 4.88 0 0 1 1.78 -1.94 5 5 0 0 1 1.14 -0.54 3.34 3.34 0 0 1 1.22 -0.17 2.92 2.92 0 0 1 0.87 0.17ZM2.52 10a1.77 1.77 0 0 1 1.59 -0.14 1.46 1.46 0 0 1 0.75 0.62 1.23 1.23 0 0 1 0 1.24 1.48 1.48 0 0 1 -1 0.78 1.42 1.42 0 0 1 -1.57 -0.71A1.36 1.36 0 0 1 2.52 10Z" fill="#000000" fill-rule="evenodd" stroke-width="1"></path>
  </g>
</svg>