<svg xmlns="http://www.w3.org/2000/svg" viewBox="0 0 24 24" id="Study-Class-Time-Schedule-1--Streamline-Freehand">
  <desc>
    Study Class Time Schedule 1 Streamline Icon: https://streamlinehq.com
  </desc>
  <g>
    <path d="M9.18 16.81a9.81 9.81 0 0 1 -4.71 -1.31A6.47 6.47 0 0 1 1.41 12a9 9 0 0 1 0.68 -6.69 6 6 0 0 1 5.3 -3.5A9.85 9.85 0 0 1 14 4.11c1.5 1.42 2.4 3.57 1.89 6.66a0.31 0.31 0 0 0 0.24 0.35 0.29 0.29 0 0 0 0.35 -0.25c0.68 -3.38 -0.27 -5.76 -1.87 -7.38A10.88 10.88 0 0 0 7.39 0.64a7 7 0 0 0 -6.32 4.09 9.89 9.89 0 0 0 -0.59 7.52 7.38 7.38 0 0 0 3.58 4 10.48 10.48 0 0 0 5.12 1.27 0.34 0.34 0 0 0 0.34 -0.34 0.33 0.33 0 0 0 -0.34 -0.37Z" fill="#000000" stroke-width="1"></path>
    <path d="M14.13 10.69a0.3 0.3 0 0 0 0.35 -0.24A5.72 5.72 0 0 0 13.13 5a8 8 0 0 0 -5.31 -2.11 5.24 5.24 0 0 0 -4.71 3 7.28 7.28 0 0 0 -0.41 5.54 5.45 5.45 0 0 0 2.66 2.93 7.69 7.69 0 0 0 3.74 0.91 0.35 0.35 0 0 0 0.35 -0.27 0.35 0.35 0 0 0 -0.35 -0.34 7 7 0 0 1 -3.34 -0.95 4.56 4.56 0 0 1 -2.13 -2.51 6.3 6.3 0 0 1 0.5 -4.71A4.15 4.15 0 0 1 7.81 4a6.92 6.92 0 0 1 4.71 1.63 5 5 0 0 1 1.37 4.7 0.3 0.3 0 0 0 0.24 0.36Z" fill="#000000" stroke-width="1"></path>
    <path d="M7.09 8.29a0.29 0.29 0 0 0 -0.42 0.07 0.3 0.3 0 0 0 0.07 0.42 10.4 10.4 0 0 0 0.84 0.66 7.08 7.08 0 0 0 0.95 0.55 0.54 0.54 0 0 0 0.72 -0.52A14.65 14.65 0 0 0 9.27 8c0 -0.66 -0.14 -1.46 -0.23 -2.27a0.34 0.34 0 0 0 -0.68 0C8.28 6.5 8.17 7.3 8.14 8l0 0.78 -0.14 -0.1a6.45 6.45 0 0 1 -0.91 -0.39Z" fill="#000000" stroke-width="1"></path>
    <path d="M23.83 13.28a1.27 1.27 0 0 0 -0.72 -0.3A5.65 5.65 0 0 0 22 13a12.33 12.33 0 0 0 -2.76 0.45 4.44 4.44 0 0 0 -1.37 0.7 4.66 4.66 0 0 0 -1.38 -0.72 12.91 12.91 0 0 0 -2.76 -0.43 5.65 5.65 0 0 0 -1.11 0 1.27 1.27 0 0 0 -0.72 0.3 0.64 0.64 0 0 0 -0.16 0.36 2.63 2.63 0 0 0 0.06 0.55l0.09 1.38a8.25 8.25 0 0 1 0 0.86c0 1.23 -0.19 2.47 -0.08 3.69 0 0.28 0 1 0.09 1.3a0.51 0.51 0 0 0 0.46 0.48 10.39 10.39 0 0 1 2.7 0.47 20 20 0 0 1 2.5 1 0.28 0.28 0 0 0 0.31 0 6.6 6.6 0 0 1 2 -0.9 11.93 11.93 0 0 1 3.22 -0.51 0.47 0.47 0 0 0 0.45 -0.45c0.06 -0.3 0 -1 0.05 -1.31l0.22 -4.53 0.09 -1.39a2.45 2.45 0 0 0 0.07 -0.54 0.61 0.61 0 0 0 -0.14 -0.48Zm-4.15 8.45a5.89 5.89 0 0 0 -1.86 1 10.38 10.38 0 0 0 -2.5 -1.1 12.26 12.26 0 0 0 -2.67 -0.57c0 -0.31 0.09 -0.83 0.09 -1 -0.08 -1.2 0.16 -2.41 0.2 -3.61a7.8 7.8 0 0 0 0 -1L12.85 14c0.26 0 0.66 0.11 0.77 0.12a11.65 11.65 0 0 1 2.51 0.42 8.36 8.36 0 0 1 1.43 0.84c0 0.37 -0.12 1.07 -0.14 1.26s-0.07 0.54 -0.09 0.82 0 0.55 0 0.83c0 0.55 0.08 1.1 0.12 1.66 0 0.07 0.11 1.18 0.42 1.39 0.2 0 0.32 -0.09 0.38 -0.43s0.08 -0.89 0.08 -1c0 -0.4 0.1 -0.79 0.13 -1.19a6.87 6.87 0 0 0 0 -0.79c0 -0.45 0 -0.89 -0.07 -1.33 0 -0.2 -0.13 -0.92 -0.18 -1.29a8 8 0 0 1 1.38 -0.79 11.65 11.65 0 0 1 2.51 -0.42c0.11 0 0.49 -0.11 0.76 -0.12l-0.06 1.47 0 1.4c0 1.06 0.05 2.12 0 3.17 0 0.18 0.13 0.73 0.13 1a13.9 13.9 0 0 0 -3.25 0.71Z" fill="#000000" stroke-width="1"></path>
  </g>
</svg>