<svg xmlns="http://www.w3.org/2000/svg" viewBox="0 0 24 24" id="Study-Class-Time-Schedule--Streamline-Freehand">
  <desc>
    Study Class Time Schedule Streamline Icon: https://streamlinehq.com
  </desc>
  <g>
    <path d="M9 16.47a9.66 9.66 0 0 1 -4.64 -1.29 6.36 6.36 0 0 1 -3 -3.49 8.81 8.81 0 0 1 0.66 -6.58 5.89 5.89 0 0 1 5.25 -3.44A9.64 9.64 0 0 1 13.8 4c1.48 1.39 2.36 3.51 1.87 6.55a0.29 0.29 0 0 0 0.23 0.34 0.3 0.3 0 0 0 0.35 -0.24C16.91 7.3 16 5 14.4 3.37A10.68 10.68 0 0 0 7.27 0.57a6.9 6.9 0 0 0 -6.22 4A9.82 9.82 0 0 0 0.47 12 7.25 7.25 0 0 0 4 15.89a10.34 10.34 0 0 0 5 1.25 0.34 0.34 0 0 0 0.34 -0.34 0.34 0.34 0 0 0 -0.34 -0.33Z" fill="#000000" stroke-width="1"></path>
    <path d="M8.15 4.38a0.34 0.34 0 0 0 -0.34 0.33c-0.09 0.86 -0.15 2 -0.16 3v0.88c-0.48 -0.37 -1.1 -0.87 -1.65 -1.26a0.3 0.3 0 0 0 -0.39 0.45c0.57 0.59 1.21 1.37 1.68 1.77a1.13 1.13 0 0 0 1.06 0.3 0.6 0.6 0 0 0 0.33 -0.35 1.88 1.88 0 0 0 0.09 -0.59l0 -1.29c-0.07 -0.92 -0.23 -2 -0.27 -2.89a0.34 0.34 0 0 0 -0.35 -0.35Z" fill="#000000" stroke-width="1"></path>
    <path d="M23.83 13.52a1.23 1.23 0 0 0 -0.71 -0.29 5.46 5.46 0 0 0 -1.09 0 12.37 12.37 0 0 0 -2.71 0.44 4.42 4.42 0 0 0 -1.35 0.69 4.31 4.31 0 0 0 -1.36 -0.71 11.79 11.79 0 0 0 -2.71 -0.43 5.46 5.46 0 0 0 -1.09 0 1.23 1.23 0 0 0 -0.71 0.29 0.64 0.64 0 0 0 -0.16 0.36 2.42 2.42 0 0 0 0.06 0.53l0.08 1.37a5.91 5.91 0 0 1 0 0.84c0 1.21 -0.18 2.43 -0.08 3.63 0 0.27 0 1 0.09 1.28a0.51 0.51 0 0 0 0.46 0.47 11 11 0 0 1 2.66 0.46 18.48 18.48 0 0 1 2.45 1 0.29 0.29 0 0 0 0.31 -0.05 6.46 6.46 0 0 1 2.03 -0.93 12.38 12.38 0 0 1 3.17 -0.5c0.14 0 0.39 -0.09 0.45 -0.45s0 -1 0.05 -1.28l0.22 -4.46 0.08 -1.36a2.45 2.45 0 0 0 0.07 -0.54 0.61 0.61 0 0 0 -0.21 -0.36Zm-4.08 8.32a5.79 5.79 0 0 0 -1.83 1 10.63 10.63 0 0 0 -2.46 -1.08 12.36 12.36 0 0 0 -2.63 -0.56c0 -0.3 0.1 -0.81 0.09 -1 -0.07 -1.18 0.16 -2.37 0.2 -3.55l0 -1 -0.12 -1.42c0.26 0 0.65 0.11 0.76 0.12a11.4 11.4 0 0 1 2.47 0.42 8 8 0 0 1 1.41 0.82c0 0.36 -0.12 1 -0.15 1.23s-0.06 0.54 -0.08 0.81 0 0.54 0 0.82c0 0.54 0.08 1.09 0.12 1.63 0 0.07 0.1 1.16 0.42 1.37 0.19 0 0.31 -0.09 0.36 -0.42s0.08 -0.88 0.09 -0.95c0 -0.39 0.09 -0.77 0.12 -1.16a6.87 6.87 0 0 0 0 -0.79c0 -0.43 0 -0.87 -0.07 -1.31 0 -0.19 -0.13 -0.9 -0.18 -1.27a8.35 8.35 0 0 1 1.36 -0.77 11.38 11.38 0 0 1 2.47 -0.41c0.11 0 0.49 -0.11 0.75 -0.12l-0.06 1.45 0 1.38c0 1 0.05 2.08 0 3.11 0 0.18 0.12 0.72 0.12 1a14.18 14.18 0 0 0 -3.16 0.65Z" fill="#000000" stroke-width="1"></path>
  </g>
</svg>