<svg xmlns="http://www.w3.org/2000/svg" viewBox="0 0 24 24" id="Teacher-Female-Woman-Check-Correct--Streamline-Freehand">
  <desc>
    Teacher Female Woman Check Correct Streamline Icon: https://streamlinehq.com
  </desc>
  <g>
    <path d="m11.81 8.55 -0.32 -0.31a1.11 1.11 0 0 1 -0.15 -0.33 4.23 4.23 0 0 1 -0.14 -0.65 21.66 21.66 0 0 0 -0.63 -4A4.16 4.16 0 0 0 8.73 0.94c-0.2 -0.11 -0.41 -0.22 -0.62 -0.31A5.3 5.3 0 0 0 7.44 0.4a4.54 4.54 0 0 0 -0.91 -0.14 6.76 6.76 0 0 0 -0.9 0 5.16 5.16 0 0 0 -2.76 1.1 5.23 5.23 0 0 0 -1.7 2.41 7.61 7.61 0 0 0 -0.33 1.6c-0.08 0.77 -0.09 1.56 -0.12 2.3a6.25 6.25 0 0 1 -0.08 0.86 3.78 3.78 0 0 1 -0.21 0.8l-0.3 0.76c0 0.08 -0.12 0.2 -0.12 0.27a0.33 0.33 0 0 0 0 0.24 0.36 0.36 0 0 0 0.2 0.18 3.05 3.05 0 0 0 0.9 0.19l0.6 0a8.39 8.39 0 0 0 -1 2.9 8.61 8.61 0 0 0 0 3 2 2 0 0 0 1.47 1.63l0.14 0L2 20.11 1.64 22c0 0.13 -0.08 0.35 -0.1 0.53a1.28 1.28 0 0 0 0 0.45 0.93 0.93 0 0 0 0.58 0.55 4.7 4.7 0 0 0 1.54 0.19c0.59 0 1.17 -0.05 1.74 -0.1 0.86 -0.07 1.71 -0.16 2.57 -0.25l1.26 -0.18 0.31 0a0.56 0.56 0 0 0 0.46 -0.46 3.5 3.5 0 0 0 0 -1c-0.08 -0.71 -0.3 -1.45 -0.4 -2.06l-0.25 -1.51a2.75 2.75 0 0 0 1.44 -1.18 4.68 4.68 0 0 0 0.56 -2.63 9 9 0 0 0 -0.27 -1.71 6.33 6.33 0 0 0 -0.64 -1.64 2.4 2.4 0 0 0 -0.18 -0.26 4.26 4.26 0 0 0 1.24 -0.59 1.92 1.92 0 0 0 0.73 -1 0.55 0.55 0 0 0 0 -0.26c-0.06 -0.15 -0.42 -0.34 -0.42 -0.34Zm-1.62 7.66a2.08 2.08 0 0 1 -0.94 1.19l-0.63 -3.85a0.34 0.34 0 0 0 -0.39 -0.29 0.34 0.34 0 0 0 -0.29 0.39l0.73 6.12c0.06 0.52 0.21 1.15 0.28 1.75a3.39 3.39 0 0 1 0 0.63l-1.09 0.13 -4.25 0.32a4.59 4.59 0 0 1 -0.8 0c-0.37 0 -0.16 -0.2 -0.13 -0.41l0.2 -1.93c1.36 -9.92 0 -0.3 0.92 -6.72a0.3 0.3 0 1 0 -0.59 -0.1l-0.81 4.34 -0.06 0a1.24 1.24 0 0 1 -0.78 -1.09 7.57 7.57 0 0 1 0.27 -2.58 8.15 8.15 0 0 1 0.88 -2.67 3.31 3.31 0 0 1 1.19 -1.31 2.65 2.65 0 0 1 0.75 -0.29c0.23 -0.05 0.46 -0.07 0.69 -0.1a3.09 3.09 0 0 0 0.6 0.08 3.49 3.49 0 0 0 1 -0.13 0.24 0.24 0 0 0 0.09 0 4.43 4.43 0 0 1 0.87 0.07 1.23 1.23 0 0 1 0.44 0.17 3.46 3.46 0 0 1 1.17 1.51 8.86 8.86 0 0 1 0.5 1.42 9.87 9.87 0 0 1 0.29 1.52 4.16 4.16 0 0 1 -0.11 1.83ZM3.72 5a3.25 3.25 0 0 0 1.41 -0.27 3.1 3.1 0 0 0 0.73 -0.41l0.24 -0.2 0.4 0.26a4.81 4.81 0 0 0 0.81 0.42 5.12 5.12 0 0 0 0.86 0.29 0.27 0.27 0 0 0 0.13 0 6.37 6.37 0 0 1 0 1.51 2.72 2.72 0 0 1 -0.6 1.45 2.19 2.19 0 0 1 -1.7 0.62 2.11 2.11 0 0 1 -1.7 -0.73 2.58 2.58 0 0 1 -0.54 -1.15A6.54 6.54 0 0 1 3.72 5Zm7.15 4.63a3.5 3.5 0 0 1 -1 0.47 3.54 3.54 0 0 0 -1.11 -0.86 2.11 2.11 0 0 0 -0.62 -0.17 2.59 2.59 0 0 0 0.41 -0.4 3.41 3.41 0 0 0 0.6 -1.58A6.54 6.54 0 0 0 9 4.8a0.34 0.34 0 0 0 -0.4 -0.28 0.26 0.26 0 0 0 -0.11 -0.07 5.5 5.5 0 0 1 -0.68 -0.39 5.48 5.48 0 0 1 -0.6 -0.5 6 6 0 0 0 -1.27 -0.76 0.59 0.59 0 0 0 -0.36 0.2 7 7 0 0 1 -0.58 0.56 3.87 3.87 0 0 1 -0.55 0.44 2.51 2.51 0 0 1 -0.85 0.33 0.21 0.21 0 0 0 -0.11 -0.07 0.3 0.3 0 0 0 -0.34 0.26 8.59 8.59 0 0 0 -0.25 2.39 3.62 3.62 0 0 0 0.54 1.64 2.87 2.87 0 0 0 0.71 0.68 3.13 3.13 0 0 0 -0.6 0.16 3.76 3.76 0 0 0 -1.37 1c-0.31 0 -0.64 0 -1 -0.08l-0.37 -0.07 0.28 -0.63a4.7 4.7 0 0 0 0.31 -0.94 7.5 7.5 0 0 0 0.14 -0.95c0.07 -0.72 0.12 -1.49 0.24 -2.23a7 7 0 0 1 0.34 -1.37 4.27 4.27 0 0 1 1.45 -1.85 4.22 4.22 0 0 1 2.16 -0.85 4.45 4.45 0 0 1 0.73 0 3.1 3.1 0 0 1 0.69 0.1 3.16 3.16 0 0 1 0.52 0.17 3.44 3.44 0 0 1 0.51 0.25A3.08 3.08 0 0 1 9.65 3.6a22.18 22.18 0 0 1 0.75 3.83 5 5 0 0 0 0.2 0.78 2.09 2.09 0 0 0 0.3 0.55l0.46 0.42a1.58 1.58 0 0 1 -0.49 0.47Z" fill="#000000" fill-rule="evenodd" stroke-width="1"></path>
    <path d="m23.94 8.63 -0.07 -4.43a9.7 9.7 0 0 0 -0.1 -1.69 3.28 3.28 0 0 0 -0.44 -1.19 1.54 1.54 0 0 0 -1.15 -0.69 13.76 13.76 0 0 0 -2.26 0.13c-1.16 0 -2.33 0 -3.5 0.09 -1.75 0.08 -3.5 0.2 -5.23 0.32a0.31 0.31 0 0 0 -0.28 0.32 0.29 0.29 0 0 0 0.31 0.29c1.73 -0.06 3.48 -0.11 5.22 -0.12 1.16 0 2.31 0 3.47 0.06 0.41 0 1.18 -0.14 1.84 -0.1 0.28 0 0.54 0 0.66 0.25a2.37 2.37 0 0 1 0.26 0.83 9.71 9.71 0 0 1 0.06 1.52l0.06 4.44c0 1 0.07 1.92 0.09 2.87l0 1.89a8.66 8.66 0 0 1 0 1 0.41 0.41 0 0 1 -0.14 0.3 2.55 2.55 0 0 1 -1.45 0.46A22.37 22.37 0 0 1 18.6 15c-0.87 0 -1.55 -0.06 -2.2 0 -1 0 -1.93 0.07 -3.28 0.12a0.33 0.33 0 0 0 -0.33 0.35 0.34 0.34 0 0 0 0.34 0.33l3.26 0c0.64 0 1.31 0.05 2.15 0.12a23.12 23.12 0 0 0 2.8 0.25 3.67 3.67 0 0 0 2 -0.59 1.37 1.37 0 0 0 0.49 -0.7 5.37 5.37 0 0 0 0.17 -1.41c0 -0.66 0.05 -1.3 0.05 -2 -0.05 -0.92 -0.05 -1.87 -0.11 -2.84Z" fill="#000000" fill-rule="evenodd" stroke-width="1"></path>
    <path d="M15.67 10.66a0.53 0.53 0 0 0 0.46 0.14 1.45 1.45 0 0 0 0.68 -0.34 7.41 7.41 0 0 0 0.8 -0.88c0.36 -0.45 0.73 -0.91 1.07 -1.39 0.52 -0.73 1 -1.49 1.42 -2.24a0.35 0.35 0 0 0 -0.1 -0.48 0.34 0.34 0 0 0 -0.47 0.1c-0.35 0.45 -0.71 0.89 -1.09 1.33s-0.69 0.76 -1 1.15l-0.68 0.78 -0.68 0.82 0 -0.05 -1.53 -1.3a0.3 0.3 0 0 0 -0.44 0.41l1.25 1.57s0.22 0.29 0.31 0.38Z" fill="#000000" fill-rule="evenodd" stroke-width="1"></path>
  </g>
</svg>