<svg xmlns="http://www.w3.org/2000/svg" viewBox="0 0 24 24" id="Various-Building-Church--Streamline-Freehand">
  <desc>
    Various Building Church Streamline Icon: https://streamlinehq.com
  </desc>
  <title>various-building-church</title>
  <g>
    <path d="M13.94 17.54a2.05 2.05 0 0 0 -2 -0.77 2.43 2.43 0 0 0 -1.69 1.17 3.39 3.39 0 0 0 -0.38 1.38 5.45 5.45 0 0 0 0.13 1.07c0.1 0.94 0.79 0.6 0.75 -0.08a5.14 5.14 0 0 1 0.09 -0.87 2.31 2.31 0 0 1 0.41 -0.92 1.43 1.43 0 0 1 0.95 -0.58 1 1 0 0 1 0.95 0.3 2 2 0 0 1 0.48 0.82 5.47 5.47 0 0 1 0.23 1.05c0 0.91 0.75 0.83 0.77 0a7.41 7.41 0 0 0 -0.1 -1.32 3.28 3.28 0 0 0 -0.59 -1.25Z" fill="#000000" fill-rule="evenodd" stroke-width="1"></path>
    <path d="M13.39 8.28c0.56 0.08 1.13 0.12 1.7 0.19h0.85l0.68 0.61 1.45 1.34a0.37 0.37 0 0 0 0.5 0 0.36 0.36 0 0 0 0 -0.5l-1.2 -1.57c-0.15 -0.18 -0.32 -0.44 -0.51 -0.64a1.92 1.92 0 0 0 -0.41 -0.31 1.39 1.39 0 0 0 -0.54 -0.12l-0.8 0c-0.65 0 -1.3 0.13 -2 0.14h-0.29c-0.43 0.1 -0.27 0.47 0.28 0.79Z" fill="#000000" fill-rule="evenodd" stroke-width="1"></path>
    <path d="M9.87 9.49c-0.16 0.57 -0.87 3.64 -1 4.21a7.17 7.17 0 0 0 -0.1 0.81c0 0.31 0.63 0 0.76 -0.37a1.5 1.5 0 0 1 0.06 -0.29c0.17 -0.64 0.38 -1.27 0.6 -1.9l1.2 -3.55 0.07 -0.2 0 0.08A6.79 6.79 0 0 1 12 9l2.5 5.06a0.36 0.36 0 0 0 0.47 0.18 0.35 0.35 0 0 0 0.17 -0.46c-0.58 -1.28 -1.64 -3.89 -2.14 -5.2 -0.05 -0.14 -0.72 -1.36 -0.79 -1.46a3.09 3.09 0 0 0 -0.35 -0.41A8.39 8.39 0 0 0 12 5.56 5.23 5.23 0 0 0 12 5a6.94 6.94 0 0 1 1.2 -0.17 0.34 0.34 0 0 0 0.39 -0.29 0.35 0.35 0 0 0 -0.29 -0.4 5.18 5.18 0 0 0 -1.45 -0.24c-0.1 -0.42 -0.22 -0.82 -0.3 -1.23a0.31 0.31 0 0 0 -0.33 -0.29 0.3 0.3 0 0 0 -0.29 0.32c0 0.41 -0.08 0.83 -0.11 1.25a8.1 8.1 0 0 1 -1.28 0.2 0.31 0.31 0 0 0 -0.36 0.25 0.31 0.31 0 0 0 0.25 0.36 4.63 4.63 0 0 0 1.42 0.31l0 0.5c0 0.33 0.09 0.66 0.13 1a0.47 0.47 0 0 0 -0.19 0.16 23 23 0 0 0 -0.92 2.76Z" fill="#000000" fill-rule="evenodd" stroke-width="1"></path>
    <path d="M23.61 20.83c-0.47 0 -0.94 0.07 -1.42 0.07a1 1 0 0 1 -0.17 0 0.37 0.37 0 0 0 0.05 -0.18l0.13 -2c0 -0.69 0.14 -1.46 0.13 -2.2a5.8 5.8 0 0 0 -0.12 -1 0.67 0.67 0 0 0 -0.59 -0.47l-0.79 0h-0.35c0 -0.88 0 -1.76 -0.09 -2.65l-0.09 -1.17a0.66 0.66 0 0 0 -0.62 -0.5h-0.28l-2.23 0c-1.11 0 -1.87 0.11 -2.67 0.2a0.39 0.39 0 0 0 0 0.76c0.77 0 1.75 0.12 2.64 0.16s1.69 0 2.07 0l0.52 3.17h-0.18c-0.6 0.06 -1.2 0.15 -1.81 0.22l-2 0.24c-0.2 -0.18 -0.46 -0.36 -0.61 -0.5s-0.59 -0.49 -0.91 -0.72c-0.7 -0.51 -1.43 -1 -2.11 -1.5h-0.05a0.33 0.33 0 0 0 -0.06 -0.1 0.35 0.35 0 0 0 -0.5 0 34.23 34.23 0 0 0 -3 2.72c-0.15 0.18 -0.48 0.46 -0.71 0.73a1.73 1.73 0 0 0 -0.33 0.6 3.14 3.14 0 0 0 -0.08 0.88c0 0.37 0.08 0.76 0.09 1.09l0.14 2.45 -6.61 0.39 0 -5.12 0.11 -1.73c0 -0.11 0.14 -0.41 0 -0.45l0.93 -1.51 1 -1.67 0.09 -0.23a1.3 1.3 0 0 1 0.2 0.15c0.33 0.26 0.63 0.58 0.89 0.82s0.88 0.64 1.3 1a2.09 2.09 0 0 1 0.38 0.42l0.14 0.88c0.06 0.41 0.12 0.82 0.2 1.23a7.51 7.51 0 0 0 0.19 0.82 0.36 0.36 0 0 0 0.57 0.27 0.35 0.35 0 0 0 0.21 -0.4c-0.06 -0.26 -0.1 -0.52 -0.14 -0.78S7 14.39 7 14l0 -0.76a1.33 1.33 0 0 0 -0.13 -0.45 2.84 2.84 0 0 0 -0.52 -0.66L6.13 12v-0.09a11.27 11.27 0 0 0 1.18 0.28 3.27 3.27 0 0 0 0.54 0 4.9 4.9 0 0 0 0.54 0c0.23 0 0.41 -0.15 0.63 -0.2 0.36 -0.28 0.4 -0.74 0.09 -0.83l-0.74 -0.08a4.55 4.55 0 0 0 -0.52 0l-0.52 0c-0.43 0 -0.82 0.15 -1.23 0.22l-0.24 -3.13c0.47 0.08 0.94 0.18 1.42 0.24l0.69 0 0.68 0c0.47 0 0.73 -0.06 1.19 -0.12s0.6 -0.67 0.23 -0.8l-0.05 0c-0.54 -0.07 -0.82 -0.12 -1.36 -0.17l-0.68 0a5.1 5.1 0 0 0 -0.68 0c-0.5 0 -1 0.14 -1.45 0.21l0 -1.67a1.07 1.07 0 0 0 -0.13 -0.38c-0.13 -0.27 -0.39 -0.63 -0.49 -0.81l-1.33 -2A6.44 6.44 0 0 0 3.36 2a0.63 0.63 0 0 0 -1 0 4.17 4.17 0 0 0 -0.28 0.47c-0.15 0.31 -0.28 0.67 -0.41 0.94 -0.24 0.5 -0.54 1 -0.78 1.57a6 6 0 0 0 -0.38 1.2 3.59 3.59 0 0 0 -0.08 0.9c0 0.63 0.11 1.33 0.12 1.83l0 3.3 0 0.6c0 0.2 -0.19 0.28 -0.27 0.42a5.23 5.23 0 0 0 -0.29 0.58 1.12 1.12 0 0 0 0.01 0.29l0 0.52v1.8l0.36 5.47a0.3 0.3 0 0 0 0.32 0.29 0.28 0.28 0 0 0 0.13 0l2.27 0c2.95 0 2.32 0.07 5.44 0.09l3.06 0c1.52 -0.05 3 -0.13 4.57 -0.18l3.88 -0.2c0.73 0 1.46 -0.06 2.17 -0.12q0.75 0 1.47 -0.15a0.35 0.35 0 1 0 -0.08 -0.69ZM2 5.48c0.26 -0.54 0.56 -1.05 0.8 -1.54l0.2 -0.49 1.26 1.76 0.53 0.79v0.11a6.63 6.63 0 0 0 -1.34 -0.16 6.44 6.44 0 0 0 -1 0C2.22 6 2 6 1.7 6.09a6.65 6.65 0 0 1 0.3 -0.61ZM1.48 7.1l0 -0.18a6.1 6.1 0 0 0 1.2 0.18 6.59 6.59 0 0 0 1 -0.07c0.4 0 0.78 -0.12 1.18 -0.16L5 8.23l0.38 3.1 -0.38 -0.28A12.22 12.22 0 0 0 4 10a2.21 2.21 0 0 0 -0.69 -0.4 0.63 0.63 0 0 0 -0.69 0.24c-0.12 0.15 -0.39 0.58 -0.4 0.59l-0.85 1.32c0.05 -0.94 0.12 -1.87 0.16 -2.8 -0.03 -0.53 -0.08 -1.23 -0.05 -1.85Zm7 14h-0.09l0.2 -2.41 0 -1.26a1.86 1.86 0 0 1 0.06 -0.43l0.77 -0.9c0.3 -0.41 0.63 -0.81 1 -1.19s1 -1 1.44 -1.56l2.52 2.47 0.77 0.7a1.91 1.91 0 0 1 0.15 0.46c0.07 0.33 0.12 0.69 0.18 1l0.62 2.93c-0.53 0 -7.1 0.19 -7.58 0.2Zm11.5 -0.2h-3.2l-0.28 -3.08c0 -0.35 0 -0.81 -0.12 -1.21a3.43 3.43 0 0 0 -0.16 -0.45l1.59 0 3 0 0.34 -0.05a6 6 0 0 1 0.07 0.74c0 0.63 0 1.28 0.08 1.86l0.08 2a0.5 0.5 0 0 0 0 0.13Z" fill="#000000" fill-rule="evenodd" stroke-width="1"></path>
  </g>
</svg>